{
.appVersion = "1356";
DisplayStrings = (
"0"
);
copyright = "Copyright (c) 2011, Sorkin Type Co (www.sorkintype.com), with Reserved Font Name \"Doppio\"";
customParameters = (
{
name = description;
value = "Doppio is a robust low contrast sans serif type with a contemporary feeling. Doppio will work from small text sizes through large display sizes. Doppio's boxy style makes it especially suitable for screen use.";
},
{
name = trademark;
value = "Doppio is a trademark of Sorkin Type Co.";
},
{
name = licenseURL;
value = "http://scripts.sil.org/OFL";
},
{
name = license;
value = "This Font Software is licensed under the SIL Open Font License, Version 1.1. This license is copied below, and is also available with a FAQ at: http://scripts.sil.org/OFL";
},
{
name = vendorID;
value = "STC ";
},
{
name = panose;
value = (
2,
1,
6,
3,
3,
0,
0,
2,
8,
4
);
},
{
name = unicodeRanges;
value = (
0,
1,
2,
3,
5,
7,
29,
31,
33,
35,
38,
45,
62
);
},
{
name = fsType;
value = (
);
}
);
date = "2012-01-22 10:14:19 +0000";
designer = "Szymon Celej";
designerURL = www.hypnotype.com;
familyName = "Doppio One";
featurePrefixes = (
{
code = "lookup lookup_0 {\012sub w by .notdef;\012} lookup_0;\012";
name = lookup_0;
}
);
features = (
{
code = "script latn;\012sub e w' lookup lookup_0 i p ;\012";
name = calt;
},
{
code = "script latn;\012sub I J by IJ;\012sub e w i p l o g o by .notdef;\012sub f f i by .notdef;\012sub f f l by .notdef;\012sub f i by fi;\012sub f f by ff;\012sub f l by fl;\012sub f t by .notdef;\012sub i j by ij;\012";
name = liga;
},
{

glyphs = (
{
glyphname = A;
layers = (
{
layerId = "410E5E1C-5FD0-457E-A79B-7BF13808BDAC";
paths = (
{
closed = 1;
nodes = (
"276 0 LINE",
"391 387 LINE",
"877 387 LINE",
"997 0 LINE",
"1262 0 LINE",
"795 1427 LINE",
"477 1427 LINE",
"14 0 LINE"
);
},
{
closed = 1;
nodes = (
"631 1206 LINE",
"635 1206 LINE",
"811 602 LINE",
"455 602 LINE"
);
}
);
userData = {
assembly = "SVTCA[0]	/* SetFreedomAndProjectionVectorToAxis */\012PUSHB[ ]	/* 1 value pushed */\0120 \012RCVT[ ]	/* ReadCVT */\012IF[ ]	/* If */\012PUSHB[ ]	/* 1 value pushed */\0120 \012MDAP[1]	/* MoveDirectAbsPt */\012ELSE[ ]	/* Else */\012PUSHB[ ]	/* 2 values pushed */\0120 23 \012MIAP[0]	/* MoveIndirectAbsPt */\012EIF[ ]	/* EndIf */\012PUSHB[ ]	/* 1 value pushed */\0120 \012RCVT[ ]	/* ReadCVT */\012IF[ ]	/* If */\012PUSHB[ ]	/* 1 value pushed */\0122 \012MDAP[1]	/* MoveDirectAbsPt */\012ELSE[ ]	/* Else */\012PUSHB[ ]	/* 2 values pushed */\0122 17 \012MIAP[0]	/* MoveIndirectAbsPt */\012EIF[ ]	/* EndIf */\012PUSHB[ ]	/* 1 value pushed */\0120 \012RCVT[ ]	/* ReadCVT */\012IF[ ]	/* If */\012PUSHB[ ]	/* 1 value pushed */\0126 \012MDAP[1]	/* MoveDirectAbsPt */\012ELSE[ ]	/* Else */\012PUSHB[ ]	/* 2 values pushed */\0126 17 \012MIAP[0]	/* MoveIndirectAbsPt */\012EIF[ ]	/* EndIf */\012PUSHB[ ]	/* 4 values pushed */\0128 3 4 4 \012CALL[ ]	/* CallFunction */\012PUSHB[ ]	/* 1 value pushed */\0120 \012SRP0[ ]	/* SetRefPoint0 */\012PUSHB[ ]	/* 2 values pushed */\0129 3 \012MIRP[10100]	/* MoveIndirectRelPt */\012IUP[0]	/* InterpolateUntPts */\012IUP[1]	/* InterpolateUntPts */";
};
width = 1276;
}
);
note = A;
unicode = 0041;
},
{
glyphname = Aogonek;
layers = (
{
layerId = "410E5E1C-5FD0-457E-A79B-7BF13808BDAC";
paths = (
{
closed = 1;
nodes = (
"276 0 LINE",
"391 387 LINE",
"877 387 LINE",
"997 0 LINE",
"973 -24 OFFCURVE",
"926 -84 OFFCURVE",
"888 -154 OFFCURVE",
"864 -235 OFFCURVE",
"864 -279 QCURVE SMOOTH",
"864 -334 OFFCURVE",
"903 -417 OFFCURVE",
"971 -472 OFFCURVE",
"1063 -500 OFFCURVE",
"1116 -500 QCURVE SMOOTH",
"1145 -500 OFFCURVE",
"1195 -494 OFFCURVE",
"1214 -490 QCURVE SMOOTH",
"1236 -486 OFFCURVE",
"1255 -479 QCURVE",
"1255 -311 LINE",
"1245 -313 OFFCURVE",
"1234 -314 QCURVE SMOOTH",
"1214 -317 OFFCURVE",
"1186 -317 QCURVE SMOOTH",
"1135 -317 OFFCURVE",
"1085 -267 OFFCURVE",
"1085 -225 QCURVE SMOOTH",
"1085 -174 OFFCURVE",
"1168 -56 OFFCURVE",
"1262 0 QCURVE",
"795 1427 LINE",
"477 1427 LINE",
"14 0 LINE"
);
},
{
closed = 1;
nodes = (
"631 1206 LINE",
"635 1206 LINE",
"811 602 LINE",
"455 602 LINE"
);
}
);
userData = {
assembly = "PUSHB[ ]	/* 4 values pushed */\0125 10 23 4 \012CALL[ ]	/* CallFunction */\012NPUSHB[ ]	/* 11 values pushed */\0129 23 25 23 41 23 57 23 73 23 5 \012DELTAP1[ ]	/* DeltaExceptionP1 */\012PUSHB[ ]	/* 1 value pushed */\0125 \012SRP0[ ]	/* SetRefPoint0 */\012PUSHB[ ]	/* 1 value pushed */\01238 \012MDRP[11100]	/* MoveDirectRelPt */\012SVTCA[0]	/* SetFreedomAndProjectionVectorToAxis */\012PUSHB[ ]	/* 1 value pushed */\0120 \012RCVT[ ]	/* ReadCVT */\012IF[ ]	/* If */\012PUSHB[ ]	/* 1 value pushed */\0120 \012MDAP[1]	/* MoveDirectAbsPt */\012ELSE[ ]	/* Else */\012PUSHB[ ]	/* 2 values pushed */\0120 23 \012MIAP[0]	/* MoveIndirectAbsPt */\012EIF[ ]	/* EndIf */\012PUSHB[ ]	/* 1 value pushed */\0120 \012RCVT[ ]	/* ReadCVT */\012IF[ ]	/* If */\012PUSHB[ ]	/* 1 value pushed */\0122 \012MDAP[1]	/* MoveDirectAbsPt */\012ELSE[ ]	/* Else */\012PUSHB[ ]	/* 2 values pushed */\0122 17 \012MIAP[0]	/* MoveIndirectAbsPt */\012EIF[ ]	/* EndIf */\012PUSHB[ ]	/* 1 value pushed */\0120 \012RCVT[ ]	/* ReadCVT */\012IF[ ]	/* If */\012PUSHB[ ]	/* 1 value pushed */\01228 \012MDAP[1]	/* MoveDirectAbsPt */\012ELSE[ ]	/* Else */\012PUSHB[ ]	/* 2 values pushed */\01228 17 \012MIAP[0]	/* MoveIndirectAbsPt */\012EIF[ ]	/* EndIf */\012PUSHB[ ]	/* 1 value pushed */\0120 \012RCVT[ ]	/* ReadCVT */\012IF[ ]	/* If */\012PUSHB[ ]	/* 1 value pushed */\01231 \012MDAP[1]	/* MoveDirectAbsPt */\012ELSE[ ]	/* Else */\012PUSHB[ ]	/* 2 values pushed */\01231 17 \012MIAP[0]	/* MoveIndirectAbsPt */\012EIF[ ]	/* EndIf */\012PUSHB[ ]	/* 1 value pushed */\0120 \012RCVT[ ]	/* ReadCVT */\012IF[ ]	/* If */\012PUSHB[ ]	/* 1 value pushed */\01215 \012MDAP[1]	/* MoveDirectAbsPt */\012ELSE[ ]	/* Else */\012PUSHB[ ]	/* 2 values pushed */\01215 19 \012MIAP[0]	/* MoveIndirectAbsPt */\012EIF[ ]	/* EndIf */\012PUSHB[ ]	/* 1 value pushed */\0120 \012RCVT[ ]	/* ReadCVT */\012IF[ ]	/* If */\012PUSHB[ ]	/* 1 value pushed */\01218 \012MDAP[1]	/* MoveDirectAbsPt */\012ELSE[ ]	/* Else */\012PUSHB[ ]	/* 2 values pushed */\01218 19 \012MIAP[0]	/* MoveIndirectAbsPt */\012EIF[ ]	/* EndIf */\012PUSHB[ ]	/* 4 values pushed */\01233 3 29 4 \012CALL[ ]	/* CallFunction */\012PUSHB[ ]	/* 1 value pushed */\01215 \012SRP0[ ]	/* SetRefPoint0 */\012PUSHB[ ]	/* 2 values pushed */\0128 4 \012MIRP[10100]	/* MoveIndirectRelPt */\012NPUSHB[ ]	/* 11 values pushed */\0127 8 23 8 39 8 55 8 71 8 5 \012DELTAP1[ ]	/* DeltaExceptionP1 */\012PUSHB[ ]	/* 1 value pushed */\0120 \012SRP0[ ]	/* SetRefPoint0 */\012PUSHB[ ]	/* 2 values pushed */\01234 3 \012MIRP[10100]	/* MoveIndirectRelPt */\012IUP[0]	/* InterpolateUntPts */\012IUP[1]	/* InterpolateUntPts */";
};
width = 1276;
}
);
note = Aogonek;
unicode = 0104;
},
{
glyphname = AE;
layers = (
{
layerId = "410E5E1C-5FD0-457E-A79B-7BF13808BDAC";
paths = (
{
closed = 1;
nodes = (
"272 0 LINE",
"387 387 LINE",
"873 387 LINE",
"993 0 LINE",
"1643 0 LINE",
"1643 223 LINE",
"1184 223 LINE",
"1057 610 LINE",
"1583 610 LINE",
"1583 829 LINE",
"985 829 LINE",
"862 1204 LINE",
"1567 1204 LINE",
"1567 1427 LINE",
"473 1427 LINE",
"10 0 LINE"
);
},
{
closed = 1;
nodes = (
"629 1204 LINE",
"635 1204 LINE",
"807 602 LINE",
"451 602 LINE"
);
}
);
userData = {
assembly = "SVTCA[0]	/* SetFreedomAndProjectionVectorToAxis */\012PUSHB[ ]	/* 1 value pushed */\0120 \012RCVT[ ]	/* ReadCVT */\012IF[ ]	/* If */\012PUSHB[ ]	/* 1 value pushed */\0120 \012MDAP[1]	/* MoveDirectAbsPt */\012ELSE[ ]	/* Else */\012PUSHB[ ]	/* 2 values pushed */\0120 23 \012MIAP[0]	/* MoveIndirectAbsPt */\012EIF[ ]	/* EndIf */\012PUSHB[ ]	/* 1 value pushed */\0120 \012RCVT[ ]	/* ReadCVT */\012IF[ ]	/* If */\012PUSHB[ ]	/* 1 value pushed */\01210 \012MDAP[1]	/* MoveDirectAbsPt */\012ELSE[ ]	/* Else */\012PUSHB[ ]	/* 2 values pushed */\01210 17 \012MIAP[0]	/* MoveIndirectAbsPt */\012EIF[ ]	/* EndIf */\012PUSHB[ ]	/* 1 value pushed */\0120 \012RCVT[ ]	/* ReadCVT */\012IF[ ]	/* If */\012PUSHB[ ]	/* 1 value pushed */\01214 \012MDAP[1]	/* MoveDirectAbsPt */\012ELSE[ ]	/* Else */\012PUSHB[ ]	/* 2 values pushed */\01214 17 \012MIAP[0]	/* MoveIndirectAbsPt */\012EIF[ ]	/* EndIf */\012PUSHB[ ]	/* 4 values pushed */\01216 3 12 4 \012CALL[ ]	/* CallFunction */\012PUSHB[ ]	/* 1 value pushed */\0120 \012SRP0[ ]	/* SetRefPoint0 */\012PUSHB[ ]	/* 2 values pushed */\0122 3 \012MIRP[10100]	/* MoveIndirectRelPt */\012PUSHB[ ]	/* 1 value pushed */\01216 \012SRP0[ ]	/* SetRefPoint0 */\012PUSHB[ ]	/* 1 value pushed */\0126 \012MDRP[10000]	/* MoveDirectRelPt */\012PUSHB[ ]	/* 1 value pushed */\0126 \012MDAP[1]	/* MoveDirectAbsPt */\012PUSHB[ ]	/* 2 values pushed */\0125 3 \012MIRP[10100]	/* MoveIndirectRelPt */\012PUSHB[ ]	/* 1 value pushed */\01210 \012SRP0[ ]	/* SetRefPoint0 */\012PUSHB[ ]	/* 2 values pushed */\0128 3 \012MIRP[10100]	/* MoveIndirectRelPt */\012PUSHB[ ]	/* 1 value pushed */\0122 \012SRP0[ ]	/* SetRefPoint0 */\012PUSHB[ ]	/* 1 value pushed */\01217 \012MDRP[10000]	/* MoveDirectRelPt */\012PUSHB[ ]	/* 1 value pushed */\01218 \012MDRP[10000]	/* MoveDirectRelPt */\012IUP[0]	/* InterpolateUntPts */\012IUP[1]	/* InterpolateUntPts */";
};
width = 1713;
}
);
note = AE;
unicode = 00C6;
},
{
glyphname = B;
layers = (
{
layerId = "410E5E1C-5FD0-457E-A79B-7BF13808BDAC";
paths = (
{
closed = 1;
nodes = (
"770 0 LINE SMOOTH",
"878 0 OFFCURVE",
"1039 34 OFFCURVE",
"1144 128 OFFCURVE",
"1196 294 OFFCURVE",
"1196 426 QCURVE SMOOTH",
"1196 492 OFFCURVE",
"1170 591 OFFCURVE",
"1128 661 OFFCURVE",
"1076 706 OFFCURVE",
"1022 733 OFFCURVE",
"972 746 OFFCURVE",
"954 748 QCURVE",
"954 750 LINE",
"982 756 OFFCURVE",
"1046 783 OFFCURVE",
"1098 845 OFFCURVE",
"1133 951 OFFCURVE",
"1133 1036 QCURVE SMOOTH",
"1133 1136 OFFCURVE",
"1089 1283 OFFCURVE",
"994 1380 OFFCURVE",
"846 1427 OFFCURVE",
"741 1427 QCURVE SMOOTH",
"182 1427 LINE",
"182 0 LINE"
);
},
{
closed = 1;
nodes = (
"422 1208 LINE",
"700 1208 LINE SMOOTH",
"746 1208 OFFCURVE",
"819 1190 OFFCURVE",
"869 1148 OFFCURVE",
"895 1077 OFFCURVE",
"895 1024 QCURVE SMOOTH",
"895 960 OFFCURVE",
"873 882 OFFCURVE",
"824 839 OFFCURVE",
"748 825 OFFCURVE",
"694 825 QCURVE SMOOTH",
"422 825 LINE"
);
},
{
closed = 1;
nodes = (
"422 621 LINE",
"729 621 LINE SMOOTH",
"785 621 OFFCURVE",
"866 608 OFFCURVE",
"919 566 OFFCURVE",
"944 487 OFFCURVE",
"944 422 QCURVE SMOOTH",
"944 357 OFFCURVE",
"915 278 OFFCURVE",
"862 234 OFFCURVE",
"787 219 OFFCURVE",
"741 219 QCURVE SMOOTH",
"422 219 LINE"
);
}
);
userData = {
assembly = "PUSHB[ ]	/* 4 values pushed */\01237 12 0 4 \012CALL[ ]	/* CallFunction */\012PUSHB[ ]	/* 4 values pushed */\0126 13 31 4 \012CALL[ ]	/* CallFunction */\012NPUSHB[ ]	/* 11 values pushed */\0129 31 25 31 41 31 57 31 73 31 5 \012DELTAP1[ ]	/* DeltaExceptionP1 */\012PUSHB[ ]	/* 3 values pushed */\01212 31 6 \012SRP1[ ]	/* SetRefPoint1 */\012SRP2[ ]	/* SetRefPoint2 */\012IP[ ]	/* InterpolatePts */\012PUSHB[ ]	/* 3 values pushed */\01244 31 6 \012SRP1[ ]	/* SetRefPoint1 */\012SRP2[ ]	/* SetRefPoint2 */\012IP[ ]	/* InterpolatePts */\012PUSHB[ ]	/* 1 value pushed */\01244 \012MDAP[1]	/* MoveDirectAbsPt */\012NPUSHB[ ]	/* 11 values pushed */\0129 44 25 44 41 44 57 44 73 44 5 \012DELTAP1[ ]	/* DeltaExceptionP1 */\012PUSHB[ ]	/* 2 values pushed */\01219 11 \012MIRP[10100]	/* MoveIndirectRelPt */\012PUSHB[ ]	/* 1 value pushed */\01237 \012SRP0[ ]	/* SetRefPoint0 */\012PUSHB[ ]	/* 1 value pushed */\01250 \012MDRP[10000]	/* MoveDirectRelPt */\012PUSHB[ ]	/* 1 value pushed */\01219 \012SRP0[ ]	/* SetRefPoint0 */\012PUSHB[ ]	/* 1 value pushed */\01253 \012MDRP[11100]	/* MoveDirectRelPt */\012SVTCA[0]	/* SetFreedomAndProjectionVectorToAxis */\012PUSHB[ ]	/* 1 value pushed */\0120 \012RCVT[ ]	/* ReadCVT */\012IF[ ]	/* If */\012PUSHB[ ]	/* 1 value pushed */\0120 \012MDAP[1]	/* MoveDirectAbsPt */\012ELSE[ ]	/* Else */\012PUSHB[ ]	/* 2 values pushed */\0120 23 \012MIAP[0]	/* MoveIndirectAbsPt */\012EIF[ ]	/* EndIf */\012PUSHB[ ]	/* 1 value pushed */\0120 \012RCVT[ ]	/* ReadCVT */\012IF[ ]	/* If */\012PUSHB[ ]	/* 1 value pushed */\01224 \012MDAP[1]	/* MoveDirectAbsPt */\012ELSE[ ]	/* Else */\012PUSHB[ ]	/* 2 values pushed */\01224 17 \012MIAP[0]	/* MoveIndirectAbsPt */\012EIF[ ]	/* EndIf */\012PUSHB[ ]	/* 4 values pushed */\01226 5 49 4 \012CALL[ ]	/* CallFunction */\012PUSHB[ ]	/* 3 values pushed */\01212 49 26 \012SRP1[ ]	/* SetRefPoint1 */\012SRP2[ ]	/* SetRefPoint2 */\012IP[ ]	/* InterpolatePts */\012PUSHB[ ]	/* 1 value pushed */\0120 \012SRP0[ ]	/* SetRefPoint0 */\012PUSHB[ ]	/* 2 values pushed */\01236 3 \012MIRP[10100]	/* MoveIndirectRelPt */\012PUSHB[ ]	/* 1 value pushed */\01224 \012SRP0[ ]	/* SetRefPoint0 */\012PUSHB[ ]	/* 2 values pushed */\01239 3 \012MIRP[10100]	/* MoveIndirectRelPt */\012IUP[0]	/* InterpolateUntPts */\012IUP[1]	/* InterpolateUntPts */";
};
width = 1312;
}
);
note = B;
unicode = 0042;
},
{
glyphname = C;
layers = (
{
layerId = "410E5E1C-5FD0-457E-A79B-7BF13808BDAC";
paths = (
{
closed = 1;
nodes = (
"923 -6 OFFCURVE",
"975 6 QCURVE SMOOTH",
"1035 19 OFFCURVE",
"1079 37 QCURVE",
"1079 209 LINE",
"1043 206 OFFCURVE",
"998 203 QCURVE SMOOTH",
"960 201 OFFCURVE",
"852 197 OFFCURVE",
"786 197 QCURVE SMOOTH",
"735 197 OFFCURVE",
"633 206 OFFCURVE",
"539 241 OFFCURVE",
"459 309 OFFCURVE",
"399 427 OFFCURVE",
"365 603 OFFCURVE",
"365 727 QCURVE SMOOTH",
"365 845 OFFCURVE",
"398 1011 OFFCURVE",
"457 1122 OFFCURVE",
"537 1186 OFFCURVE",
"630 1219 OFFCURVE",
"731 1227 OFFCURVE",
"782 1227 QCURVE SMOOTH",
"838 1227 OFFCURVE",
"941 1222 OFFCURVE",
"981 1220 QCURVE SMOOTH",
"1028 1217 OFFCURVE",
"1069 1214 QCURVE",
"1069 1386 LINE",
"1028 1404 OFFCURVE",
"970 1418 QCURVE SMOOTH",
"920 1430 OFFCURVE",
"772 1450 OFFCURVE",
"672 1450 QCURVE SMOOTH",
"613 1450 OFFCURVE",
"485 1425 OFFCURVE",
"361 1363 OFFCURVE",
"249 1258 OFFCURVE",
"165 1096 OFFCURVE",
"115 873 OFFCURVE",
"115 725 QCURVE SMOOTH",
"115 571 OFFCURVE",
"159 341 OFFCURVE",
"237 174 OFFCURVE",
"343 65 OFFCURVE",
"466 1 OFFCURVE",
"603 -25 OFFCURVE",
"672 -25 QCURVE SMOOTH",
"772 -25 OFFCURVE"
);
}
);
userData = {
assembly = "PUSHB[ ]	/* 4 values pushed */\01232 11 7 4 \012CALL[ ]	/* CallFunction */\012NPUSHB[ ]	/* 11 values pushed */\0126 32 22 32 38 32 54 32 70 32 5 \012DELTAP1[ ]	/* DeltaExceptionP1 */\012SVTCA[0]	/* SetFreedomAndProjectionVectorToAxis */\012PUSHB[ ]	/* 1 value pushed */\0120 \012RCVT[ ]	/* ReadCVT */\012IF[ ]	/* If */\012PUSHB[ ]	/* 1 value pushed */\01214 \012MDAP[1]	/* MoveDirectAbsPt */\012ELSE[ ]	/* Else */\012PUSHB[ ]	/* 2 values pushed */\01214 23 \012MIAP[0]	/* MoveIndirectAbsPt */\012EIF[ ]	/* EndIf */\012PUSHB[ ]	/* 1 value pushed */\0120 \012RCVT[ ]	/* ReadCVT */\012IF[ ]	/* If */\012PUSHB[ ]	/* 1 value pushed */\0120 \012MDAP[1]	/* MoveDirectAbsPt */\012ELSE[ ]	/* Else */\012PUSHB[ ]	/* 2 values pushed */\0120 17 \012MIAP[0]	/* MoveIndirectAbsPt */\012EIF[ ]	/* EndIf */\012PUSHB[ ]	/* 1 value pushed */\01214 \012SRP0[ ]	/* SetRefPoint0 */\012PUSHB[ ]	/* 2 values pushed */\01220 3 \012MIRP[10100]	/* MoveIndirectRelPt */\012PUSHB[ ]	/* 1 value pushed */\01222 \012MDRP[10000]	/* MoveDirectRelPt */\012PUSHB[ ]	/* 1 value pushed */\01222 \012MDAP[1]	/* MoveDirectAbsPt */\012PUSHB[ ]	/* 1 value pushed */\01225 \012MDRP[10000]	/* MoveDirectRelPt */\012PUSHB[ ]	/* 1 value pushed */\0120 \012SRP0[ ]	/* SetRefPoint0 */\012PUSHB[ ]	/* 2 values pushed */\01239 3 \012MIRP[10100]	/* MoveIndirectRelPt */\012NPUSHB[ ]	/* 11 values pushed */\0127 39 23 39 39 39 55 39 71 39 5 \012DELTAP1[ ]	/* DeltaExceptionP1 */\012PUSHB[ ]	/* 1 value pushed */\01242 \012MDRP[10000]	/* MoveDirectRelPt */\012PUSHB[ ]	/* 1 value pushed */\01242 \012MDAP[1]	/* MoveDirectAbsPt */\012PUSHB[ ]	/* 1 value pushed */\01244 \012MDRP[10000]	/* MoveDirectRelPt */\012PUSHB[ ]	/* 1 value pushed */\01244 \012MDAP[1]	/* MoveDirectAbsPt */\012IUP[0]	/* InterpolateUntPts */\012IUP[1]	/* InterpolateUntPts */";
};
width = 1179;
}
);
note = C;
unicode = 0043;
},
{
glyphname = D;
layers = (
{
layerId = "410E5E1C-5FD0-457E-A79B-7BF13808BDAC";
paths = (
{
closed = 1;
nodes = (
"694 0 LINE SMOOTH",
"779 0 OFFCURVE",
"928 22 OFFCURVE",
"1053 81 OFFCURVE",
"1151 184 OFFCURVE",
"1219 345 OFFCURVE",
"1255 572 OFFCURVE",
"1255 725 QCURVE SMOOTH",
"1255 873 OFFCURVE",
"1216 1093 OFFCURVE",
"1144 1249 OFFCURVE",
"1042 1349 OFFCURVE",
"918 1405 OFFCURVE",
"773 1427 OFFCURVE",
"694 1427 QCURVE SMOOTH",
"182 1427 LINE",
"182 0 LINE"
);
},
{
closed = 1;
nodes = (
"422 1204 LINE",
"629 1204 LINE SMOOTH",
"682 1204 OFFCURVE",
"779 1198 OFFCURVE",
"863 1169 OFFCURVE",
"930 1110 OFFCURVE",
"978 1004 OFFCURVE",
"1004 843 OFFCURVE",
"1004 727 QCURVE SMOOTH",
"1004 602 OFFCURVE",
"977 431 OFFCURVE",
"928 319 OFFCURVE",
"859 258 OFFCURVE",
"776 228 OFFCURVE",
"680 223 OFFCURVE",
"629 223 QCURVE SMOOTH",
"422 223 LINE"
);
}
);
userData = {
assembly = "PUSHB[ ]	/* 1 value pushed */\01234 \012MDAP[1]	/* MoveDirectAbsPt */\012PUSHB[ ]	/* 1 value pushed */\01224 \012MDAP[1]	/* MoveDirectAbsPt */\012PUSHB[ ]	/* 1 value pushed */\01234 \012SRP0[ ]	/* SetRefPoint0 */\012PUSHB[ ]	/* 1 value pushed */\0120 \012MDRP[10000]	/* MoveDirectRelPt */\012PUSHB[ ]	/* 1 value pushed */\0120 \012MDAP[1]	/* MoveDirectAbsPt */\012NPUSHB[ ]	/* 11 values pushed */\0129 24 25 24 41 24 57 24 73 24 5 \012DELTAP1[ ]	/* DeltaExceptionP1 */\012PUSHB[ ]	/* 1 value pushed */\01224 \012SRP0[ ]	/* SetRefPoint0 */\012PUSHB[ ]	/* 2 values pushed */\0128 11 \012MIRP[10100]	/* MoveIndirectRelPt */\012PUSHB[ ]	/* 1 value pushed */\0120 \012SRP0[ ]	/* SetRefPoint0 */\012PUSHB[ ]	/* 2 values pushed */\01232 12 \012MIRP[10100]	/* MoveIndirectRelPt */\012PUSHB[ ]	/* 1 value pushed */\0128 \012SRP0[ ]	/* SetRefPoint0 */\012PUSHB[ ]	/* 1 value pushed */\01235 \012MDRP[11100]	/* MoveDirectRelPt */\012SVTCA[0]	/* SetFreedomAndProjectionVectorToAxis */\012PUSHB[ ]	/* 1 value pushed */\0120 \012RCVT[ ]	/* ReadCVT */\012IF[ ]	/* If */\012PUSHB[ ]	/* 1 value pushed */\0120 \012MDAP[1]	/* MoveDirectAbsPt */\012ELSE[ ]	/* Else */\012PUSHB[ ]	/* 2 values pushed */\0120 23 \012MIAP[0]	/* MoveIndirectAbsPt */\012EIF[ ]	/* EndIf */\012PUSHB[ ]	/* 1 value pushed */\0120 \012RCVT[ ]	/* ReadCVT */\012IF[ ]	/* If */\012PUSHB[ ]	/* 1 value pushed */\01215 \012MDAP[1]	/* MoveDirectAbsPt */\012ELSE[ ]	/* Else */\012PUSHB[ ]	/* 2 values pushed */\01215 17 \012MIAP[0]	/* MoveIndirectAbsPt */\012EIF[ ]	/* EndIf */\012PUSHB[ ]	/* 2 values pushed */\01217 3 \012MIRP[10100]	/* MoveIndirectRelPt */\012PUSHB[ ]	/* 1 value pushed */\0120 \012SRP0[ ]	/* SetRefPoint0 */\012PUSHB[ ]	/* 2 values pushed */\01231 3 \012MIRP[10100]	/* MoveIndirectRelPt */\012IUP[0]	/* InterpolateUntPts */\012IUP[1]	/* InterpolateUntPts */";
};
width = 1370;
}
);
note = D;
unicode = 0044;
},
{
glyphname = Eth;
layers = (
{
layerId = "410E5E1C-5FD0-457E-A79B-7BF13808BDAC";
paths = (
{
closed = 1;
nodes = (
"743 0 LINE SMOOTH",
"828 0 OFFCURVE",
"977 22 OFFCURVE",
"1102 81 OFFCURVE",
"1200 184 OFFCURVE",
"1268 345 OFFCURVE",
"1304 572 OFFCURVE",
"1304 725 QCURVE SMOOTH",
"1304 873 OFFCURVE",
"1265 1093 OFFCURVE",
"1193 1249 OFFCURVE",
"1091 1349 OFFCURVE",
"967 1405 OFFCURVE",
"822 1427 OFFCURVE",
"743 1427 QCURVE SMOOTH",
"231 1427 LINE",
"231 823 LINE",
"60 823 LINE",
"60 605 LINE",
"231 605 LINE",
"231 0 LINE"
);
},
{
closed = 1;
nodes = (
"471 605 LINE",
"795 605 LINE",
"795 823 LINE",
"471 823 LINE",
"471 1204 LINE",
"678 1204 LINE SMOOTH",
"731 1204 OFFCURVE",
"828 1198 OFFCURVE",
"912 1169 OFFCURVE",
"979 1110 OFFCURVE",
"1027 1004 OFFCURVE",
"1053 843 OFFCURVE",
"1053 727 QCURVE SMOOTH",
"1053 602 OFFCURVE",
"1026 431 OFFCURVE",
"977 319 OFFCURVE",
"908 258 OFFCURVE",
"825 228 OFFCURVE",
"729 223 OFFCURVE",
"678 223 QCURVE SMOOTH",
"471 223 LINE"
);
}
);
userData = {
assembly = "PUSHB[ ]	/* 4 values pushed */\01212 11 28 4 \012CALL[ ]	/* CallFunction */\012PUSHB[ ]	/* 3 values pushed */\01239 1 3 \012CALL[ ]	/* CallFunction */\012PUSHB[ ]	/* 3 values pushed */\0120 1 39 \012SRP1[ ]	/* SetRefPoint1 */\012SRP2[ ]	/* SetRefPoint2 */\012IP[ ]	/* InterpolatePts */\012PUSHB[ ]	/* 1 value pushed */\0120 \012MDAP[1]	/* MoveDirectAbsPt */\012PUSHB[ ]	/* 1 value pushed */\0123 \012MDRP[10000]	/* MoveDirectRelPt */\012NPUSHB[ ]	/* 11 values pushed */\0129 28 25 28 41 28 57 28 73 28 5 \012DELTAP1[ ]	/* DeltaExceptionP1 */\012PUSHB[ ]	/* 1 value pushed */\0120 \012SRP0[ ]	/* SetRefPoint0 */\012PUSHB[ ]	/* 2 values pushed */\01240 12 \012MIRP[10100]	/* MoveIndirectRelPt */\012PUSHB[ ]	/* 1 value pushed */\01236 \012MDRP[10000]	/* MoveDirectRelPt */\012PUSHB[ ]	/* 1 value pushed */\01212 \012SRP0[ ]	/* SetRefPoint0 */\012PUSHB[ ]	/* 1 value pushed */\01243 \012MDRP[11100]	/* MoveDirectRelPt */\012SVTCA[0]	/* SetFreedomAndProjectionVectorToAxis */\012PUSHB[ ]	/* 1 value pushed */\0120 \012RCVT[ ]	/* ReadCVT */\012IF[ ]	/* If */\012PUSHB[ ]	/* 1 value pushed */\0124 \012MDAP[1]	/* MoveDirectAbsPt */\012ELSE[ ]	/* Else */\012PUSHB[ ]	/* 2 values pushed */\0124 23 \012MIAP[0]	/* MoveIndirectAbsPt */\012EIF[ ]	/* EndIf */\012PUSHB[ ]	/* 1 value pushed */\0120 \012RCVT[ ]	/* ReadCVT */\012IF[ ]	/* If */\012PUSHB[ ]	/* 1 value pushed */\01219 \012MDAP[1]	/* MoveDirectAbsPt */\012ELSE[ ]	/* Else */\012PUSHB[ ]	/* 2 values pushed */\01219 17 \012MIAP[0]	/* MoveIndirectAbsPt */\012EIF[ ]	/* EndIf */\012PUSHB[ ]	/* 4 values pushed */\0123 3 0 4 \012CALL[ ]	/* CallFunction */\012PUSHB[ ]	/* 1 value pushed */\01219 \012SRP0[ ]	/* SetRefPoint0 */\012PUSHB[ ]	/* 2 values pushed */\01221 3 \012MIRP[10100]	/* MoveIndirectRelPt */\012PUSHB[ ]	/* 1 value pushed */\0124 \012SRP0[ ]	/* SetRefPoint0 */\012PUSHB[ ]	/* 2 values pushed */\01235 3 \012MIRP[10100]	/* MoveIndirectRelPt */\012PUSHB[ ]	/* 1 value pushed */\0123 \012SRP0[ ]	/* SetRefPoint0 */\012PUSHB[ ]	/* 1 value pushed */\01237 \012MDRP[10000]	/* MoveDirectRelPt */\012PUSHB[ ]	/* 1 value pushed */\0120 \012SRP0[ ]	/* SetRefPoint0 */\012PUSHB[ ]	/* 1 value pushed */\01239 \012MDRP[10000]	/* MoveDirectRelPt */\012IUP[0]	/* InterpolateUntPts */\012IUP[1]	/* InterpolateUntPts */";
};
width = 1419;
}
);
note = Eth;
unicode = 00D0;
},
{
glyphname = Dcroat;
layers = (
{
layerId = "410E5E1C-5FD0-457E-A79B-7BF13808BDAC";
paths = (
{
closed = 1;
nodes = (
"743 0 LINE SMOOTH",
"828 0 OFFCURVE",
"977 22 OFFCURVE",
"1102 81 OFFCURVE",
"1200 184 OFFCURVE",
"1268 345 OFFCURVE",
"1304 572 OFFCURVE",
"1304 725 QCURVE SMOOTH",
"1304 873 OFFCURVE",
"1265 1093 OFFCURVE",
"1193 1249 OFFCURVE",
"1091 1349 OFFCURVE",
"967 1405 OFFCURVE",
"822 1427 OFFCURVE",
"743 1427 QCURVE SMOOTH",
"231 1427 LINE",
"231 823 LINE",
"60 823 LINE",
"60 605 LINE",
"231 605 LINE",
"231 0 LINE"
);
},
{
closed = 1;
nodes = (
"471 605 LINE",
"795 605 LINE",
"795 823 LINE",
"471 823 LINE",
"471 1204 LINE",
"678 1204 LINE SMOOTH",
"731 1204 OFFCURVE",
"828 1198 OFFCURVE",
"912 1169 OFFCURVE",
"979 1110 OFFCURVE",
"1027 1004 OFFCURVE",
"1053 843 OFFCURVE",
"1053 727 QCURVE SMOOTH",
"1053 602 OFFCURVE",
"1026 431 OFFCURVE",
"977 319 OFFCURVE",
"908 258 OFFCURVE",
"825 228 OFFCURVE",
"729 223 OFFCURVE",
"678 223 QCURVE SMOOTH",
"471 223 LINE"
);
}
);
userData = {
assembly = "PUSHB[ ]	/* 4 values pushed */\01212 11 28 4 \012CALL[ ]	/* CallFunction */\012PUSHB[ ]	/* 3 values pushed */\01239 1 3 \012CALL[ ]	/* CallFunction */\012PUSHB[ ]	/* 3 values pushed */\0120 1 39 \012SRP1[ ]	/* SetRefPoint1 */\012SRP2[ ]	/* SetRefPoint2 */\012IP[ ]	/* InterpolatePts */\012PUSHB[ ]	/* 1 value pushed */\0120 \012MDAP[1]	/* MoveDirectAbsPt */\012PUSHB[ ]	/* 1 value pushed */\0123 \012MDRP[10000]	/* MoveDirectRelPt */\012NPUSHB[ ]	/* 11 values pushed */\0129 28 25 28 41 28 57 28 73 28 5 \012DELTAP1[ ]	/* DeltaExceptionP1 */\012PUSHB[ ]	/* 1 value pushed */\0120 \012SRP0[ ]	/* SetRefPoint0 */\012PUSHB[ ]	/* 2 values pushed */\01240 12 \012MIRP[10100]	/* MoveIndirectRelPt */\012PUSHB[ ]	/* 1 value pushed */\01236 \012MDRP[10000]	/* MoveDirectRelPt */\012PUSHB[ ]	/* 1 value pushed */\01212 \012SRP0[ ]	/* SetRefPoint0 */\012PUSHB[ ]	/* 1 value pushed */\01243 \012MDRP[11100]	/* MoveDirectRelPt */\012SVTCA[0]	/* SetFreedomAndProjectionVectorToAxis */\012PUSHB[ ]	/* 1 value pushed */\0120 \012RCVT[ ]	/* ReadCVT */\012IF[ ]	/* If */\012PUSHB[ ]	/* 1 value pushed */\0124 \012MDAP[1]	/* MoveDirectAbsPt */\012ELSE[ ]	/* Else */\012PUSHB[ ]	/* 2 values pushed */\0124 23 \012MIAP[0]	/* MoveIndirectAbsPt */\012EIF[ ]	/* EndIf */\012PUSHB[ ]	/* 1 value pushed */\0120 \012RCVT[ ]	/* ReadCVT */\012IF[ ]	/* If */\012PUSHB[ ]	/* 1 value pushed */\01219 \012MDAP[1]	/* MoveDirectAbsPt */\012ELSE[ ]	/* Else */\012PUSHB[ ]	/* 2 values pushed */\01219 17 \012MIAP[0]	/* MoveIndirectAbsPt */\012EIF[ ]	/* EndIf */\012PUSHB[ ]	/* 4 values pushed */\0123 3 0 4 \012CALL[ ]	/* CallFunction */\012PUSHB[ ]	/* 1 value pushed */\01219 \012SRP0[ ]	/* SetRefPoint0 */\012PUSHB[ ]	/* 2 values pushed */\01221 3 \012MIRP[10100]	/* MoveIndirectRelPt */\012PUSHB[ ]	/* 1 value pushed */\0124 \012SRP0[ ]	/* SetRefPoint0 */\012PUSHB[ ]	/* 2 values pushed */\01235 3 \012MIRP[10100]	/* MoveIndirectRelPt */\012PUSHB[ ]	/* 1 value pushed */\0123 \012SRP0[ ]	/* SetRefPoint0 */\012PUSHB[ ]	/* 1 value pushed */\01237 \012MDRP[10000]	/* MoveDirectRelPt */\012PUSHB[ ]	/* 1 value pushed */\0120 \012SRP0[ ]	/* SetRefPoint0 */\012PUSHB[ ]	/* 1 value pushed */\01239 \012MDRP[10000]	/* MoveDirectRelPt */\012IUP[0]	/* InterpolateUntPts */\012IUP[1]	/* InterpolateUntPts */";
};
width = 1419;
}
);
note = Dcroat;
unicode = 0110;
},
{
glyphname = E;
layers = (
{
layerId = "410E5E1C-5FD0-457E-A79B-7BF13808BDAC";
paths = (
{
closed = 1;
nodes = (
"1057 0 LINE",
"1057 223 LINE",
"422 223 LINE",
"422 610 LINE",
"940 610 LINE",
"940 829 LINE",
"422 829 LINE",
"422 1204 LINE",
"1040 1204 LINE",
"1040 1427 LINE",
"182 1427 LINE",
"182 0 LINE"
);
}
);
userData = {
assembly = "PUSHB[ ]	/* 4 values pushed */\0123 12 0 4 \012CALL[ ]	/* CallFunction */\012PUSHB[ ]	/* 1 value pushed */\0123 \012SRP0[ ]	/* SetRefPoint0 */\012PUSHB[ ]	/* 1 value pushed */\0127 \012MDRP[10000]	/* MoveDirectRelPt */\012SVTCA[0]	/* SetFreedomAndProjectionVectorToAxis */\012PUSHB[ ]	/* 1 value pushed */\0120 \012RCVT[ ]	/* ReadCVT */\012IF[ ]	/* If */\012PUSHB[ ]	/* 1 value pushed */\0120 \012MDAP[1]	/* MoveDirectAbsPt */\012ELSE[ ]	/* Else */\012PUSHB[ ]	/* 2 values pushed */\0120 23 \012MIAP[0]	/* MoveIndirectAbsPt */\012EIF[ ]	/* EndIf */\012PUSHB[ ]	/* 1 value pushed */\0120 \012RCVT[ ]	/* ReadCVT */\012IF[ ]	/* If */\012PUSHB[ ]	/* 1 value pushed */\01210 \012MDAP[1]	/* MoveDirectAbsPt */\012ELSE[ ]	/* Else */\012PUSHB[ ]	/* 2 values pushed */\01210 17 \012MIAP[0]	/* MoveIndirectAbsPt */\012EIF[ ]	/* EndIf */\012PUSHB[ ]	/* 4 values pushed */\0125 3 6 4 \012CALL[ ]	/* CallFunction */\012PUSHB[ ]	/* 1 value pushed */\0120 \012SRP0[ ]	/* SetRefPoint0 */\012PUSHB[ ]	/* 2 values pushed */\0122 3 \012MIRP[10100]	/* MoveIndirectRelPt */\012PUSHB[ ]	/* 1 value pushed */\01210 \012SRP0[ ]	/* SetRefPoint0 */\012PUSHB[ ]	/* 2 values pushed */\0128 3 \012MIRP[10100]	/* MoveIndirectRelPt */\012IUP[0]	/* InterpolateUntPts */\012IUP[1]	/* InterpolateUntPts */";
};
width = 1149;
}
);
note = E;
unicode = 0045;
},
{
glyphname = Eogonek;
layers = (
{
layerId = "410E5E1C-5FD0-457E-A79B-7BF13808BDAC";
paths = (
{
closed = 1;
nodes = (
"795 0 LINE",
"772 -24 OFFCURVE",
"725 -84 OFFCURVE",
"687 -155 OFFCURVE",
"663 -235 OFFCURVE",
"663 -279 QCURVE SMOOTH",
"663 -334 OFFCURVE",
"702 -417 OFFCURVE",
"770 -472 OFFCURVE",
"862 -500 OFFCURVE",
"915 -500 QCURVE SMOOTH",
"944 -500 OFFCURVE",
"993 -494 OFFCURVE",
"1013 -490 QCURVE SMOOTH",
"1035 -486 OFFCURVE",
"1055 -479 QCURVE",
"1055 -311 LINE",
"1045 -313 OFFCURVE",
"1034 -314 QCURVE SMOOTH",
"1014 -317 OFFCURVE",
"985 -317 QCURVE SMOOTH",
"934 -317 OFFCURVE",
"885 -267 OFFCURVE",
"885 -225 QCURVE SMOOTH",
"885 -174 OFFCURVE",
"963 -60 OFFCURVE",
"1057 0 QCURVE",
"1057 223 LINE",
"422 223 LINE",
"422 610 LINE",
"940 610 LINE",
"940 829 LINE",
"422 829 LINE",
"422 1204 LINE",
"1040 1204 LINE",
"1040 1427 LINE",
"182 1427 LINE",
"182 0 LINE"
);
}
);
userData = {
assembly = "PUSHB[ ]	/* 1 value pushed */\01238 \012MDAP[1]	/* MoveDirectAbsPt */\012PUSHB[ ]	/* 1 value pushed */\01231 \012MDAP[1]	/* MoveDirectAbsPt */\012PUSHB[ ]	/* 1 value pushed */\01238 \012SRP0[ ]	/* SetRefPoint0 */\012PUSHB[ ]	/* 1 value pushed */\0120 \012MDRP[10000]	/* MoveDirectRelPt */\012PUSHB[ ]	/* 1 value pushed */\0120 \012MDAP[1]	/* MoveDirectAbsPt */\012PUSHB[ ]	/* 2 values pushed */\0123 12 \012MIRP[10100]	/* MoveIndirectRelPt */\012PUSHB[ ]	/* 1 value pushed */\0127 \012MDRP[10000]	/* MoveDirectRelPt */\012NPUSHB[ ]	/* 11 values pushed */\0129 31 25 31 41 31 57 31 73 31 5 \012DELTAP1[ ]	/* DeltaExceptionP1 */\012PUSHB[ ]	/* 1 value pushed */\01231 \012SRP0[ ]	/* SetRefPoint0 */\012PUSHB[ ]	/* 2 values pushed */\01213 10 \012MIRP[10100]	/* MoveIndirectRelPt */\012PUSHB[ ]	/* 3 values pushed */\01236 31 13 \012SRP1[ ]	/* SetRefPoint1 */\012SRP2[ ]	/* SetRefPoint2 */\012IP[ ]	/* InterpolatePts */\012PUSHB[ ]	/* 1 value pushed */\01239 \012MDRP[11100]	/* MoveDirectRelPt */\012SVTCA[0]	/* SetFreedomAndProjectionVectorToAxis */\012PUSHB[ ]	/* 1 value pushed */\0120 \012RCVT[ ]	/* ReadCVT */\012IF[ ]	/* If */\012PUSHB[ ]	/* 1 value pushed */\0120 \012MDAP[1]	/* MoveDirectAbsPt */\012ELSE[ ]	/* Else */\012PUSHB[ ]	/* 2 values pushed */\0120 23 \012MIAP[0]	/* MoveIndirectAbsPt */\012EIF[ ]	/* EndIf */\012PUSHB[ ]	/* 1 value pushed */\0120 \012RCVT[ ]	/* ReadCVT */\012IF[ ]	/* If */\012PUSHB[ ]	/* 1 value pushed */\01210 \012MDAP[1]	/* MoveDirectAbsPt */\012ELSE[ ]	/* Else */\012PUSHB[ ]	/* 2 values pushed */\01210 17 \012MIAP[0]	/* MoveIndirectAbsPt */\012EIF[ ]	/* EndIf */\012PUSHB[ ]	/* 1 value pushed */\0120 \012RCVT[ ]	/* ReadCVT */\012IF[ ]	/* If */\012PUSHB[ ]	/* 1 value pushed */\01236 \012MDAP[1]	/* MoveDirectAbsPt */\012ELSE[ ]	/* Else */\012PUSHB[ ]	/* 2 values pushed */\01236 17 \012MIAP[0]	/* MoveIndirectAbsPt */\012EIF[ ]	/* EndIf */\012PUSHB[ ]	/* 1 value pushed */\0120 \012RCVT[ ]	/* ReadCVT */\012IF[ ]	/* If */\012PUSHB[ ]	/* 1 value pushed */\01223 \012MDAP[1]	/* MoveDirectAbsPt */\012ELSE[ ]	/* Else */\012PUSHB[ ]	/* 2 values pushed */\01223 19 \012MIAP[0]	/* MoveIndirectAbsPt */\012EIF[ ]	/* EndIf */\012PUSHB[ ]	/* 1 value pushed */\0120 \012RCVT[ ]	/* ReadCVT */\012IF[ ]	/* If */\012PUSHB[ ]	/* 1 value pushed */\01226 \012MDAP[1]	/* MoveDirectAbsPt */\012ELSE[ ]	/* Else */\012PUSHB[ ]	/* 2 values pushed */\01226 19 \012MIAP[0]	/* MoveIndirectAbsPt */\012EIF[ ]	/* EndIf */\012PUSHB[ ]	/* 4 values pushed */\0125 3 6 4 \012CALL[ ]	/* CallFunction */\012PUSHB[ ]	/* 1 value pushed */\0120 \012SRP0[ ]	/* SetRefPoint0 */\012PUSHB[ ]	/* 2 values pushed */\0122 3 \012MIRP[10100]	/* MoveIndirectRelPt */\012PUSHB[ ]	/* 1 value pushed */\01236 \012SRP0[ ]	/* SetRefPoint0 */\012PUSHB[ ]	/* 2 values pushed */\0128 3 \012MIRP[10100]	/* MoveIndirectRelPt */\012PUSHB[ ]	/* 1 value pushed */\0129 \012MDRP[10000]	/* MoveDirectRelPt */\012PUSHB[ ]	/* 1 value pushed */\01223 \012SRP0[ ]	/* SetRefPoint0 */\012PUSHB[ ]	/* 2 values pushed */\01216 4 \012MIRP[10100]	/* MoveIndirectRelPt */\012NPUSHB[ ]	/* 11 values pushed */\0127 16 23 16 39 16 55 16 71 16 5 \012DELTAP1[ ]	/* DeltaExceptionP1 */\012IUP[0]	/* InterpolateUntPts */\012IUP[1]	/* InterpolateUntPts */";
};
width = 1149;
}
);
note = Eogonek;
unicode = 0118;
},
{
glyphname = F;
layers = (
{
layerId = "410E5E1C-5FD0-457E-A79B-7BF13808BDAC";
paths = (
{
closed = 1;
nodes = (
"422 0 LINE",
"422 551 LINE",
"963 551 LINE",
"963 774 LINE",
"422 774 LINE",
"422 1204 LINE",
"1040 1204 LINE",
"1040 1427 LINE",
"182 1427 LINE",
"182 0 LINE"
);
}
);
userData = {
assembly = "PUSHB[ ]	/* 4 values pushed */\0123 12 0 4 \012CALL[ ]	/* CallFunction */\012PUSHB[ ]	/* 1 value pushed */\0123 \012SRP0[ ]	/* SetRefPoint0 */\012PUSHB[ ]	/* 1 value pushed */\0127 \012MDRP[10000]	/* MoveDirectRelPt */\012SVTCA[0]	/* SetFreedomAndProjectionVectorToAxis */\012PUSHB[ ]	/* 1 value pushed */\0120 \012RCVT[ ]	/* ReadCVT */\012IF[ ]	/* If */\012PUSHB[ ]	/* 1 value pushed */\0120 \012MDAP[1]	/* MoveDirectAbsPt */\012ELSE[ ]	/* Else */\012PUSHB[ ]	/* 2 values pushed */\0120 23 \012MIAP[0]	/* MoveIndirectAbsPt */\012EIF[ ]	/* EndIf */\012PUSHB[ ]	/* 1 value pushed */\0120 \012RCVT[ ]	/* ReadCVT */\012IF[ ]	/* If */\012PUSHB[ ]	/* 1 value pushed */\0128 \012MDAP[1]	/* MoveDirectAbsPt */\012ELSE[ ]	/* Else */\012PUSHB[ ]	/* 2 values pushed */\0128 17 \012MIAP[0]	/* MoveIndirectAbsPt */\012EIF[ ]	/* EndIf */\012PUSHB[ ]	/* 4 values pushed */\0125 3 6 4 \012CALL[ ]	/* CallFunction */\012PUSHB[ ]	/* 1 value pushed */\0120 \012SRP0[ ]	/* SetRefPoint0 */\012PUSHB[ ]	/* 2 values pushed */\0122 3 \012MIRP[10100]	/* MoveIndirectRelPt */\012IUP[0]	/* InterpolateUntPts */\012IUP[1]	/* InterpolateUntPts */";
};
width = 1110;
}
);
note = F;
unicode = 0046;
},
{
glyphname = G;
layers = (
{
layerId = "410E5E1C-5FD0-457E-A79B-7BF13808BDAC";
paths = (
{
closed = 1;
nodes = (
"204 213 OFFCURVE",
"372 39 OFFCURVE",
"615 -31 OFFCURVE",
"770 -31 QCURVE SMOOTH",
"865 -31 OFFCURVE",
"1028 -1 OFFCURVE",
"1088 18 QCURVE SMOOTH",
"1158 40 OFFCURVE",
"1217 68 QCURVE",
"1217 799 LINE",
"719 799 LINE",
"719 580 LINE",
"979 580 LINE",
"979 213 LINE",
"954 206 OFFCURVE",
"921 201 QCURVE SMOOTH",
"893 196 OFFCURVE",
"813 190 OFFCURVE",
"764 190 QCURVE SMOOTH",
"651 190 OFFCURVE",
"497 251 OFFCURVE",
"403 381 OFFCURVE",
"362 584 OFFCURVE",
"362 727 QCURVE SMOOTH",
"362 867 OFFCURVE",
"401 1060 OFFCURVE",
"497 1180 OFFCURVE",
"661 1233 OFFCURVE",
"786 1233 QCURVE SMOOTH",
"858 1233 OFFCURVE",
"994 1226 OFFCURVE",
"1047 1222 QCURVE SMOOTH",
"1109 1218 OFFCURVE",
"1163 1212 QCURVE",
"1163 1393 LINE",
"1113 1410 OFFCURVE",
"1050 1424 QCURVE SMOOTH",
"995 1436 OFFCURVE",
"842 1456 OFFCURVE",
"745 1456 QCURVE SMOOTH",
"601 1456 OFFCURVE",
"369 1382 OFFCURVE",
"204 1211 OFFCURVE",
"115 932 OFFCURVE",
"115 727 QCURVE SMOOTH",
"115 505 OFFCURVE"
);
}
);
userData = {
assembly = "PUSHB[ ]	/* 1 value pushed */\01246 \012MDAP[1]	/* MoveDirectAbsPt */\012PUSHB[ ]	/* 1 value pushed */\01231 \012MDAP[1]	/* MoveDirectAbsPt */\012PUSHB[ ]	/* 1 value pushed */\01246 \012SRP0[ ]	/* SetRefPoint0 */\012PUSHB[ ]	/* 1 value pushed */\0120 \012MDRP[10000]	/* MoveDirectRelPt */\012PUSHB[ ]	/* 1 value pushed */\0120 \012MDAP[1]	/* MoveDirectAbsPt */\012PUSHB[ ]	/* 2 values pushed */\01221 12 \012MIRP[10100]	/* MoveIndirectRelPt */\012NPUSHB[ ]	/* 11 values pushed */\0126 21 22 21 38 21 54 21 70 21 5 \012DELTAP1[ ]	/* DeltaExceptionP1 */\012PUSHB[ ]	/* 1 value pushed */\01231 \012SRP0[ ]	/* SetRefPoint0 */\012PUSHB[ ]	/* 2 values pushed */\01236 13 \012MIRP[10100]	/* MoveIndirectRelPt */\012PUSHB[ ]	/* 1 value pushed */\01247 \012MDRP[11100]	/* MoveDirectRelPt */\012SVTCA[0]	/* SetFreedomAndProjectionVectorToAxis */\012PUSHB[ ]	/* 1 value pushed */\0120 \012RCVT[ ]	/* ReadCVT */\012IF[ ]	/* If */\012PUSHB[ ]	/* 1 value pushed */\0125 \012MDAP[1]	/* MoveDirectAbsPt */\012ELSE[ ]	/* Else */\012PUSHB[ ]	/* 2 values pushed */\0125 23 \012MIAP[0]	/* MoveIndirectAbsPt */\012EIF[ ]	/* EndIf */\012PUSHB[ ]	/* 1 value pushed */\0120 \012RCVT[ ]	/* ReadCVT */\012IF[ ]	/* If */\012PUSHB[ ]	/* 1 value pushed */\01241 \012MDAP[1]	/* MoveDirectAbsPt */\012ELSE[ ]	/* Else */\012PUSHB[ ]	/* 2 values pushed */\01241 17 \012MIAP[0]	/* MoveIndirectAbsPt */\012EIF[ ]	/* EndIf */\012PUSHB[ ]	/* 4 values pushed */\01235 3 32 4 \012CALL[ ]	/* CallFunction */\012PUSHB[ ]	/* 1 value pushed */\0125 \012SRP0[ ]	/* SetRefPoint0 */\012PUSHB[ ]	/* 2 values pushed */\01213 3 \012MIRP[10100]	/* MoveIndirectRelPt */\012NPUSHB[ ]	/* 11 values pushed */\0128 13 24 13 40 13 56 13 72 13 5 \012DELTAP1[ ]	/* DeltaExceptionP1 */\012PUSHB[ ]	/* 1 value pushed */\01216 \012MDRP[10000]	/* MoveDirectRelPt */\012PUSHB[ ]	/* 1 value pushed */\01241 \012SRP0[ ]	/* SetRefPoint0 */\012PUSHB[ ]	/* 2 values pushed */\01226 3 \012MIRP[10100]	/* MoveIndirectRelPt */\012NPUSHB[ ]	/* 11 values pushed */\0127 26 23 26 39 26 55 26 71 26 5 \012DELTAP1[ ]	/* DeltaExceptionP1 */\012IUP[0]	/* InterpolateUntPts */\012IUP[1]	/* InterpolateUntPts */";
};
width = 1350;
}
);
note = G;
unicode = 0047;
},
{
glyphname = H;
layers = (
{
layerId = "410E5E1C-5FD0-457E-A79B-7BF13808BDAC";
paths = (
{
closed = 1;
nodes = (
"422 0 LINE",
"422 612 LINE",
"1034 612 LINE",
"1034 0 LINE",
"1274 0 LINE",
"1274 1427 LINE",
"1034 1427 LINE",
"1034 836 LINE",
"422 836 LINE",
"422 1427 LINE",
"182 1427 LINE",
"182 0 LINE"
);
}
);
userData = {
assembly = "PUSHB[ ]	/* 1 value pushed */\01212 \012MDAP[1]	/* MoveDirectAbsPt */\012PUSHB[ ]	/* 1 value pushed */\0124 \012MDAP[1]	/* MoveDirectAbsPt */\012PUSHB[ ]	/* 1 value pushed */\01212 \012SRP0[ ]	/* SetRefPoint0 */\012PUSHB[ ]	/* 1 value pushed */\0120 \012MDRP[10000]	/* MoveDirectRelPt */\012PUSHB[ ]	/* 1 value pushed */\0120 \012MDAP[1]	/* MoveDirectAbsPt */\012PUSHB[ ]	/* 2 values pushed */\0121 12 \012MIRP[10100]	/* MoveIndirectRelPt */\012PUSHB[ ]	/* 1 value pushed */\0124 \012SRP0[ ]	/* SetRefPoint0 */\012PUSHB[ ]	/* 2 values pushed */\0125 12 \012MIRP[10100]	/* MoveIndirectRelPt */\012PUSHB[ ]	/* 1 value pushed */\0124 \012SRP0[ ]	/* SetRefPoint0 */\012PUSHB[ ]	/* 1 value pushed */\0127 \012MDRP[10000]	/* MoveDirectRelPt */\012PUSHB[ ]	/* 1 value pushed */\0121 \012SRP0[ ]	/* SetRefPoint0 */\012PUSHB[ ]	/* 1 value pushed */\0129 \012MDRP[10000]	/* MoveDirectRelPt */\012PUSHB[ ]	/* 1 value pushed */\0125 \012SRP0[ ]	/* SetRefPoint0 */\012PUSHB[ ]	/* 1 value pushed */\01213 \012MDRP[11100]	/* MoveDirectRelPt */\012SVTCA[0]	/* SetFreedomAndProjectionVectorToAxis */\012PUSHB[ ]	/* 1 value pushed */\0120 \012RCVT[ ]	/* ReadCVT */\012IF[ ]	/* If */\012PUSHB[ ]	/* 1 value pushed */\0120 \012MDAP[1]	/* MoveDirectAbsPt */\012ELSE[ ]	/* Else */\012PUSHB[ ]	/* 2 values pushed */\0120 23 \012MIAP[0]	/* MoveIndirectAbsPt */\012EIF[ ]	/* EndIf */\012PUSHB[ ]	/* 1 value pushed */\0120 \012RCVT[ ]	/* ReadCVT */\012IF[ ]	/* If */\012PUSHB[ ]	/* 1 value pushed */\0124 \012MDAP[1]	/* MoveDirectAbsPt */\012ELSE[ ]	/* Else */\012PUSHB[ ]	/* 2 values pushed */\0124 23 \012MIAP[0]	/* MoveIndirectAbsPt */\012EIF[ ]	/* EndIf */\012PUSHB[ ]	/* 1 value pushed */\0120 \012RCVT[ ]	/* ReadCVT */\012IF[ ]	/* If */\012PUSHB[ ]	/* 1 value pushed */\0126 \012MDAP[1]	/* MoveDirectAbsPt */\012ELSE[ ]	/* Else */\012PUSHB[ ]	/* 2 values pushed */\0126 17 \012MIAP[0]	/* MoveIndirectAbsPt */\012EIF[ ]	/* EndIf */\012PUSHB[ ]	/* 1 value pushed */\0120 \012RCVT[ ]	/* ReadCVT */\012IF[ ]	/* If */\012PUSHB[ ]	/* 1 value pushed */\01210 \012MDAP[1]	/* MoveDirectAbsPt */\012ELSE[ ]	/* Else */\012PUSHB[ ]	/* 2 values pushed */\01210 17 \012MIAP[0]	/* MoveIndirectAbsPt */\012EIF[ ]	/* EndIf */\012PUSHB[ ]	/* 4 values pushed */\0123 3 8 4 \012CALL[ ]	/* CallFunction */\012IUP[0]	/* InterpolateUntPts */\012IUP[1]	/* InterpolateUntPts */";
};
width = 1456;
}
);
note = H;
unicode = 0048;
},
{
glyphname = Hbar;
layers = (
{
layerId = "410E5E1C-5FD0-457E-A79B-7BF13808BDAC";
paths = (
{
closed = 1;
nodes = (
"455 0 LINE",
"455 612 LINE",
"1067 612 LINE",
"1067 0 LINE",
"1307 0 LINE",
"1307 1016 LINE",
"1491 1016 LINE",
"1491 1182 LINE",
"1307 1182 LINE",
"1307 1427 LINE",
"1067 1427 LINE",
"1067 1182 LINE",
"455 1182 LINE",
"455 1427 LINE",
"215 1427 LINE",
"215 1182 LINE",
"0 1182 LINE",
"0 1016 LINE",
"215 1016 LINE",
"215 0 LINE"
);
},
{
closed = 1;
nodes = (
"455 1016 LINE",
"1067 1016 LINE",
"1067 836 LINE",
"455 836 LINE"
);
}
);
userData = {
assembly = "PUSHB[ ]	/* 4 values pushed */\01222 12 0 4 \012CALL[ ]	/* CallFunction */\012PUSHB[ ]	/* 4 values pushed */\01210 12 7 4 \012CALL[ ]	/* CallFunction */\012PUSHB[ ]	/* 1 value pushed */\0120 \012SRP0[ ]	/* SetRefPoint0 */\012PUSHB[ ]	/* 1 value pushed */\0123 \012MDRP[10000]	/* MoveDirectRelPt */\012PUSHB[ ]	/* 1 value pushed */\01222 \012SRP0[ ]	/* SetRefPoint0 */\012PUSHB[ ]	/* 1 value pushed */\0125 \012MDRP[10000]	/* MoveDirectRelPt */\012PUSHB[ ]	/* 1 value pushed */\01210 \012SRP0[ ]	/* SetRefPoint0 */\012PUSHB[ ]	/* 1 value pushed */\01213 \012MDRP[10000]	/* MoveDirectRelPt */\012PUSHB[ ]	/* 1 value pushed */\0127 \012SRP0[ ]	/* SetRefPoint0 */\012PUSHB[ ]	/* 1 value pushed */\01215 \012MDRP[10000]	/* MoveDirectRelPt */\012PUSHB[ ]	/* 1 value pushed */\01222 \012SRP0[ ]	/* SetRefPoint0 */\012PUSHB[ ]	/* 1 value pushed */\01217 \012MDRP[10000]	/* MoveDirectRelPt */\012PUSHB[ ]	/* 1 value pushed */\0127 \012SRP0[ ]	/* SetRefPoint0 */\012PUSHB[ ]	/* 1 value pushed */\01220 \012MDRP[10000]	/* MoveDirectRelPt */\012PUSHB[ ]	/* 1 value pushed */\01210 \012SRP0[ ]	/* SetRefPoint0 */\012PUSHB[ ]	/* 1 value pushed */\01225 \012MDRP[11100]	/* MoveDirectRelPt */\012SVTCA[0]	/* SetFreedomAndProjectionVectorToAxis */\012PUSHB[ ]	/* 1 value pushed */\0120 \012RCVT[ ]	/* ReadCVT */\012IF[ ]	/* If */\012PUSHB[ ]	/* 1 value pushed */\0124 \012MDAP[1]	/* MoveDirectAbsPt */\012ELSE[ ]	/* Else */\012PUSHB[ ]	/* 2 values pushed */\0124 23 \012MIAP[0]	/* MoveIndirectAbsPt */\012EIF[ ]	/* EndIf */\012PUSHB[ ]	/* 1 value pushed */\0120 \012RCVT[ ]	/* ReadCVT */\012IF[ ]	/* If */\012PUSHB[ ]	/* 1 value pushed */\0128 \012MDAP[1]	/* MoveDirectAbsPt */\012ELSE[ ]	/* Else */\012PUSHB[ ]	/* 2 values pushed */\0128 23 \012MIAP[0]	/* MoveIndirectAbsPt */\012EIF[ ]	/* EndIf */\012PUSHB[ ]	/* 1 value pushed */\0120 \012RCVT[ ]	/* ReadCVT */\012IF[ ]	/* If */\012PUSHB[ ]	/* 1 value pushed */\01214 \012MDAP[1]	/* MoveDirectAbsPt */\012ELSE[ ]	/* Else */\012PUSHB[ ]	/* 2 values pushed */\01214 17 \012MIAP[0]	/* MoveIndirectAbsPt */\012EIF[ ]	/* EndIf */\012PUSHB[ ]	/* 1 value pushed */\0120 \012RCVT[ ]	/* ReadCVT */\012IF[ ]	/* If */\012PUSHB[ ]	/* 1 value pushed */\01218 \012MDAP[1]	/* MoveDirectAbsPt */\012ELSE[ ]	/* Else */\012PUSHB[ ]	/* 2 values pushed */\01218 17 \012MIAP[0]	/* MoveIndirectAbsPt */\012EIF[ ]	/* EndIf */\012PUSHB[ ]	/* 4 values pushed */\0123 7 0 4 \012CALL[ ]	/* CallFunction */\012PUSHB[ ]	/* 4 values pushed */\01220 3 16 4 \012CALL[ ]	/* CallFunction */\012PUSHB[ ]	/* 1 value pushed */\0123 \012SRP0[ ]	/* SetRefPoint0 */\012PUSHB[ ]	/* 1 value pushed */\0126 \012MDRP[10000]	/* MoveDirectRelPt */\012PUSHB[ ]	/* 1 value pushed */\0123 \012SRP0[ ]	/* SetRefPoint0 */\012PUSHB[ ]	/* 1 value pushed */\01210 \012MDRP[10000]	/* MoveDirectRelPt */\012PUSHB[ ]	/* 1 value pushed */\0120 \012SRP0[ ]	/* SetRefPoint0 */\012PUSHB[ ]	/* 1 value pushed */\01212 \012MDRP[10000]	/* MoveDirectRelPt */\012PUSHB[ ]	/* 1 value pushed */\0120 \012SRP0[ ]	/* SetRefPoint0 */\012PUSHB[ ]	/* 1 value pushed */\01221 \012MDRP[10000]	/* MoveDirectRelPt */\012IUP[0]	/* InterpolateUntPts */\012IUP[1]	/* InterpolateUntPts */";
};
width = 1491;
}
);
note = Hbar;
unicode = 0126;
},
{
glyphname = I;
layers = (
{
layerId = "410E5E1C-5FD0-457E-A79B-7BF13808BDAC";
paths = (
{
closed = 1;
nodes = (
"422 0 LINE",
"422 1427 LINE",
"182 1427 LINE",
"182 0 LINE"
);
}
);
userData = {
assembly = "PUSHB[ ]	/* 4 values pushed */\0121 12 0 4 \012CALL[ ]	/* CallFunction */\012SVTCA[0]	/* SetFreedomAndProjectionVectorToAxis */\012PUSHB[ ]	/* 1 value pushed */\0120 \012RCVT[ ]	/* ReadCVT */\012IF[ ]	/* If */\012PUSHB[ ]	/* 1 value pushed */\0120 \012MDAP[1]	/* MoveDirectAbsPt */\012ELSE[ ]	/* Else */\012PUSHB[ ]	/* 2 values pushed */\0120 23 \012MIAP[0]	/* MoveIndirectAbsPt */\012EIF[ ]	/* EndIf */\012PUSHB[ ]	/* 1 value pushed */\0120 \012RCVT[ ]	/* ReadCVT */\012IF[ ]	/* If */\012PUSHB[ ]	/* 1 value pushed */\0122 \012MDAP[1]	/* MoveDirectAbsPt */\012ELSE[ ]	/* Else */\012PUSHB[ ]	/* 2 values pushed */\0122 17 \012MIAP[0]	/* MoveIndirectAbsPt */\012EIF[ ]	/* EndIf */\012IUP[0]	/* InterpolateUntPts */\012IUP[1]	/* InterpolateUntPts */";
};
width = 604;
}
);
note = I;
unicode = 0049;
},
{
glyphname = Iogonek;
layers = (
{
layerId = "410E5E1C-5FD0-457E-A79B-7BF13808BDAC";
paths = (
{
closed = 1;
nodes = (
"194 -2 OFFCURVE",
"139 -65 OFFCURVE",
"94 -141 OFFCURVE",
"65 -230 OFFCURVE",
"65 -279 QCURVE SMOOTH",
"65 -334 OFFCURVE",
"104 -417 OFFCURVE",
"172 -472 OFFCURVE",
"264 -500 OFFCURVE",
"317 -500 QCURVE SMOOTH",
"346 -500 OFFCURVE",
"395 -494 OFFCURVE",
"415 -490 QCURVE SMOOTH",
"437 -486 OFFCURVE",
"457 -479 QCURVE",
"457 -311 LINE",
"447 -313 OFFCURVE",
"436 -314 QCURVE SMOOTH",
"416 -317 OFFCURVE",
"387 -317 QCURVE SMOOTH",
"336 -317 OFFCURVE",
"287 -267 OFFCURVE",
"287 -225 QCURVE SMOOTH",
"287 -174 OFFCURVE",
"365 -60 OFFCURVE",
"459 0 QCURVE",
"459 1427 LINE",
"219 1427 LINE",
"219 21 LINE"
);
}
);
userData = {
assembly = "PUSHB[ ]	/* 4 values pushed */\0121 12 0 4 \012CALL[ ]	/* CallFunction */\012PUSHB[ ]	/* 3 values pushed */\0125 0 1 \012SRP1[ ]	/* SetRefPoint1 */\012SRP2[ ]	/* SetRefPoint2 */\012IP[ ]	/* InterpolatePts */\012PUSHB[ ]	/* 1 value pushed */\0125 \012MDAP[1]	/* MoveDirectAbsPt */\012PUSHB[ ]	/* 1 value pushed */\0121 \012SRP0[ ]	/* SetRefPoint0 */\012PUSHB[ ]	/* 1 value pushed */\01212 \012MDRP[10000]	/* MoveDirectRelPt */\012PUSHB[ ]	/* 1 value pushed */\01212 \012MDAP[1]	/* MoveDirectAbsPt */\012PUSHB[ ]	/* 1 value pushed */\0125 \012SRP0[ ]	/* SetRefPoint0 */\012PUSHB[ ]	/* 2 values pushed */\01223 10 \012MIRP[10100]	/* MoveIndirectRelPt */\012SVTCA[0]	/* SetFreedomAndProjectionVectorToAxis */\012PUSHB[ ]	/* 1 value pushed */\0120 \012RCVT[ ]	/* ReadCVT */\012IF[ ]	/* If */\012PUSHB[ ]	/* 1 value pushed */\0120 \012MDAP[1]	/* MoveDirectAbsPt */\012ELSE[ ]	/* Else */\012PUSHB[ ]	/* 2 values pushed */\0120 23 \012MIAP[0]	/* MoveIndirectAbsPt */\012EIF[ ]	/* EndIf */\012PUSHB[ ]	/* 1 value pushed */\0120 \012RCVT[ ]	/* ReadCVT */\012IF[ ]	/* If */\012PUSHB[ ]	/* 1 value pushed */\0122 \012MDAP[1]	/* MoveDirectAbsPt */\012ELSE[ ]	/* Else */\012PUSHB[ ]	/* 2 values pushed */\0122 17 \012MIAP[0]	/* MoveIndirectAbsPt */\012EIF[ ]	/* EndIf */\012PUSHB[ ]	/* 1 value pushed */\0120 \012RCVT[ ]	/* ReadCVT */\012IF[ ]	/* If */\012PUSHB[ ]	/* 1 value pushed */\01215 \012MDAP[1]	/* MoveDirectAbsPt */\012ELSE[ ]	/* Else */\012PUSHB[ ]	/* 2 values pushed */\01215 19 \012MIAP[0]	/* MoveIndirectAbsPt */\012EIF[ ]	/* EndIf */\012PUSHB[ ]	/* 1 value pushed */\0120 \012RCVT[ ]	/* ReadCVT */\012IF[ ]	/* If */\012PUSHB[ ]	/* 1 value pushed */\01218 \012MDAP[1]	/* MoveDirectAbsPt */\012ELSE[ ]	/* Else */\012PUSHB[ ]	/* 2 values pushed */\01218 19 \012MIAP[0]	/* MoveIndirectAbsPt */\012EIF[ ]	/* EndIf */\012PUSHB[ ]	/* 1 value pushed */\01215 \012SRP0[ ]	/* SetRefPoint0 */\012PUSHB[ ]	/* 2 values pushed */\0128 4 \012MIRP[10100]	/* MoveIndirectRelPt */\012NPUSHB[ ]	/* 11 values pushed */\0127 8 23 8 39 8 55 8 71 8 5 \012DELTAP1[ ]	/* DeltaExceptionP1 */\012IUP[0]	/* InterpolateUntPts */\012IUP[1]	/* InterpolateUntPts */";
};
width = 641;
}
);
note = Iogonek;
unicode = 012E;
},
{
glyphname = J;
layers = (
{
layerId = "410E5E1C-5FD0-457E-A79B-7BF13808BDAC";
paths = (
{
closed = 1;
nodes = (
"47 0 OFFCURVE",
"86 -8 QCURVE SMOOTH",
"119 -15 OFFCURVE",
"205 -25 OFFCURVE",
"253 -25 QCURVE SMOOTH",
"320 -25 OFFCURVE",
"422 0 OFFCURVE",
"491 61 OFFCURVE",
"526 162 OFFCURVE",
"526 238 QCURVE SMOOTH",
"525 1427 LINE",
"284 1427 LINE",
"284 311 LINE SMOOTH",
"284 263 OFFCURVE",
"268 210 OFFCURVE",
"236 184 OFFCURVE",
"187 178 OFFCURVE",
"153 178 QCURVE SMOOTH",
"131 178 OFFCURVE",
"83 179 OFFCURVE",
"62 180 QCURVE SMOOTH",
"37 181 OFFCURVE",
"14 182 QCURVE",
"14 10 LINE"
);
}
);
userData = {
assembly = "PUSHB[ ]	/* 4 values pushed */\01213 12 10 4 \012CALL[ ]	/* CallFunction */\012SVTCA[0]	/* SetFreedomAndProjectionVectorToAxis */\012PUSHB[ ]	/* 1 value pushed */\0120 \012RCVT[ ]	/* ReadCVT */\012IF[ ]	/* If */\012PUSHB[ ]	/* 1 value pushed */\01211 \012MDAP[1]	/* MoveDirectAbsPt */\012ELSE[ ]	/* Else */\012PUSHB[ ]	/* 2 values pushed */\01211 23 \012MIAP[0]	/* MoveIndirectAbsPt */\012EIF[ ]	/* EndIf */\012PUSHB[ ]	/* 1 value pushed */\0120 \012RCVT[ ]	/* ReadCVT */\012IF[ ]	/* If */\012PUSHB[ ]	/* 1 value pushed */\01218 \012MDAP[1]	/* MoveDirectAbsPt */\012ELSE[ ]	/* Else */\012PUSHB[ ]	/* 2 values pushed */\01218 17 \012MIAP[0]	/* MoveIndirectAbsPt */\012EIF[ ]	/* EndIf */\012PUSHB[ ]	/* 2 values pushed */\0120 5 \012MIRP[10100]	/* MoveIndirectRelPt */\012PUSHB[ ]	/* 1 value pushed */\0122 \012MDRP[10000]	/* MoveDirectRelPt */\012PUSHB[ ]	/* 1 value pushed */\0122 \012MDAP[1]	/* MoveDirectAbsPt */\012PUSHB[ ]	/* 1 value pushed */\0125 \012MDRP[10000]	/* MoveDirectRelPt */\012IUP[0]	/* InterpolateUntPts */\012IUP[1]	/* InterpolateUntPts */";
};
width = 706;
}
);
note = J;
unicode = 004A;
},
{
glyphname = K;
layers = (
{
layerId = "410E5E1C-5FD0-457E-A79B-7BF13808BDAC";
paths = (
{
closed = 1;
nodes = (
"422 0 LINE",
"422 621 LINE",
"642 621 LINE",
"994 0 LINE",
"1275 0 LINE",
"854 737 LINE",
"1252 1427 LINE",
"975 1427 LINE",
"642 844 LINE",
"422 844 LINE",
"422 1427 LINE",
"182 1427 LINE",
"182 0 LINE"
);
}
);
userData = {
assembly = "PUSHB[ ]	/* 4 values pushed */\0121 12 0 4 \012CALL[ ]	/* CallFunction */\012PUSHB[ ]	/* 1 value pushed */\0121 \012SRP0[ ]	/* SetRefPoint0 */\012PUSHB[ ]	/* 1 value pushed */\01210 \012MDRP[10000]	/* MoveDirectRelPt */\012SVTCA[0]	/* SetFreedomAndProjectionVectorToAxis */\012PUSHB[ ]	/* 1 value pushed */\0120 \012RCVT[ ]	/* ReadCVT */\012IF[ ]	/* If */\012PUSHB[ ]	/* 1 value pushed */\0120 \012MDAP[1]	/* MoveDirectAbsPt */\012ELSE[ ]	/* Else */\012PUSHB[ ]	/* 2 values pushed */\0120 23 \012MIAP[0]	/* MoveIndirectAbsPt */\012EIF[ ]	/* EndIf */\012PUSHB[ ]	/* 1 value pushed */\0120 \012RCVT[ ]	/* ReadCVT */\012IF[ ]	/* If */\012PUSHB[ ]	/* 1 value pushed */\0124 \012MDAP[1]	/* MoveDirectAbsPt */\012ELSE[ ]	/* Else */\012PUSHB[ ]	/* 2 values pushed */\0124 23 \012MIAP[0]	/* MoveIndirectAbsPt */\012EIF[ ]	/* EndIf */\012PUSHB[ ]	/* 1 value pushed */\0120 \012RCVT[ ]	/* ReadCVT */\012IF[ ]	/* If */\012PUSHB[ ]	/* 1 value pushed */\0127 \012MDAP[1]	/* MoveDirectAbsPt */\012ELSE[ ]	/* Else */\012PUSHB[ ]	/* 2 values pushed */\0127 17 \012MIAP[0]	/* MoveIndirectAbsPt */\012EIF[ ]	/* EndIf */\012PUSHB[ ]	/* 1 value pushed */\0120 \012RCVT[ ]	/* ReadCVT */\012IF[ ]	/* If */\012PUSHB[ ]	/* 1 value pushed */\01211 \012MDAP[1]	/* MoveDirectAbsPt */\012ELSE[ ]	/* Else */\012PUSHB[ ]	/* 2 values pushed */\01211 17 \012MIAP[0]	/* MoveIndirectAbsPt */\012EIF[ ]	/* EndIf */\012PUSHB[ ]	/* 4 values pushed */\0123 3 9 4 \012CALL[ ]	/* CallFunction */\012IUP[0]	/* InterpolateUntPts */\012IUP[1]	/* InterpolateUntPts */";
};
width = 1313;
}
);
note = K;
unicode = 004B;
},
{
glyphname = L;
layers = (
{
layerId = "410E5E1C-5FD0-457E-A79B-7BF13808BDAC";
paths = (
{
closed = 1;
nodes = (
"1012 0 LINE",
"1012 223 LINE",
"422 223 LINE",
"422 1427 LINE",
"182 1427 LINE",
"182 0 LINE"
);
}
);
userData = {
assembly = "PUSHB[ ]	/* 4 values pushed */\0121 12 0 4 \012CALL[ ]	/* CallFunction */\012SVTCA[0]	/* SetFreedomAndProjectionVectorToAxis */\012PUSHB[ ]	/* 1 value pushed */\0120 \012RCVT[ ]	/* ReadCVT */\012IF[ ]	/* If */\012PUSHB[ ]	/* 1 value pushed */\0120 \012MDAP[1]	/* MoveDirectAbsPt */\012ELSE[ ]	/* Else */\012PUSHB[ ]	/* 2 values pushed */\0120 23 \012MIAP[0]	/* MoveIndirectAbsPt */\012EIF[ ]	/* EndIf */\012PUSHB[ ]	/* 1 value pushed */\0120 \012RCVT[ ]	/* ReadCVT */\012IF[ ]	/* If */\012PUSHB[ ]	/* 1 value pushed */\0124 \012MDAP[1]	/* MoveDirectAbsPt */\012ELSE[ ]	/* Else */\012PUSHB[ ]	/* 2 values pushed */\0124 17 \012MIAP[0]	/* MoveIndirectAbsPt */\012EIF[ ]	/* EndIf */\012PUSHB[ ]	/* 2 values pushed */\0122 3 \012MIRP[10100]	/* MoveIndirectRelPt */\012IUP[0]	/* InterpolateUntPts */\012IUP[1]	/* InterpolateUntPts */";
};
width = 1056;
}
);
note = L;
unicode = 004C;
},
{
glyphname = Lcaron;
layers = (
{
layerId = "410E5E1C-5FD0-457E-A79B-7BF13808BDAC";
paths = (
{
closed = 1;
nodes = (
"621 958 LINE",
"654 1025 OFFCURVE",
"683 1085 QCURVE SMOOTH",
"695 1110 OFFCURVE",
"721 1164 OFFCURVE",
"744 1213 OFFCURVE",
"764 1255 OFFCURVE",
"770 1270 QCURVE SMOOTH",
"805 1343 OFFCURVE",
"805 1382 QCURVE SMOOTH",
"805 1412 OFFCURVE",
"765 1444 OFFCURVE",
"725 1458 QCURVE SMOOTH",
"703 1465 OFFCURVE",
"659 1473 OFFCURVE",
"640 1476 QCURVE SMOOTH",
"618 1479 OFFCURVE",
"598 1481 QCURVE",
"473 1007 LINE"
);
},
{
closed = 1;
nodes = (
"1012 0 LINE",
"1012 223 LINE",
"422 223 LINE",
"422 1427 LINE",
"182 1427 LINE",
"182 0 LINE"
);
}
);
userData = {
assembly = "PUSHB[ ]	/* 1 value pushed */\01225 \012MDAP[1]	/* MoveDirectAbsPt */\012PUSHB[ ]	/* 1 value pushed */\01218 \012MDAP[1]	/* MoveDirectAbsPt */\012PUSHB[ ]	/* 2 values pushed */\0128 15 \012MIRP[10100]	/* MoveIndirectRelPt */\012PUSHB[ ]	/* 1 value pushed */\01225 \012SRP0[ ]	/* SetRefPoint0 */\012PUSHB[ ]	/* 1 value pushed */\01219 \012MDRP[10000]	/* MoveDirectRelPt */\012PUSHB[ ]	/* 1 value pushed */\01219 \012MDAP[1]	/* MoveDirectAbsPt */\012PUSHB[ ]	/* 2 values pushed */\01220 12 \012MIRP[10100]	/* MoveIndirectRelPt */\012PUSHB[ ]	/* 1 value pushed */\0128 \012SRP0[ ]	/* SetRefPoint0 */\012PUSHB[ ]	/* 1 value pushed */\01226 \012MDRP[11100]	/* MoveDirectRelPt */\012SVTCA[0]	/* SetFreedomAndProjectionVectorToAxis */\012PUSHB[ ]	/* 1 value pushed */\0120 \012RCVT[ ]	/* ReadCVT */\012IF[ ]	/* If */\012PUSHB[ ]	/* 1 value pushed */\01219 \012MDAP[1]	/* MoveDirectAbsPt */\012ELSE[ ]	/* Else */\012PUSHB[ ]	/* 2 values pushed */\01219 23 \012MIAP[0]	/* MoveIndirectAbsPt */\012EIF[ ]	/* EndIf */\012PUSHB[ ]	/* 1 value pushed */\0120 \012RCVT[ ]	/* ReadCVT */\012IF[ ]	/* If */\012PUSHB[ ]	/* 1 value pushed */\01223 \012MDAP[1]	/* MoveDirectAbsPt */\012ELSE[ ]	/* Else */\012PUSHB[ ]	/* 2 values pushed */\01223 17 \012MIAP[0]	/* MoveIndirectAbsPt */\012EIF[ ]	/* EndIf */\012PUSHB[ ]	/* 4 values pushed */\0120 9 17 4 \012CALL[ ]	/* CallFunction */\012PUSHB[ ]	/* 1 value pushed */\01223 \012SRP0[ ]	/* SetRefPoint0 */\012PUSHB[ ]	/* 2 values pushed */\01221 3 \012MIRP[10100]	/* MoveIndirectRelPt */\012IUP[0]	/* InterpolateUntPts */\012IUP[1]	/* InterpolateUntPts */";
};
width = 1062;
}
);
note = Lcaron;
unicode = 013D;
},
{
glyphname = Lslash;
layers = (
{
layerId = "410E5E1C-5FD0-457E-A79B-7BF13808BDAC";
paths = (
{
closed = 1;
nodes = (
"1112 0 LINE",
"1112 229 LINE",
"520 229 LINE",
"520 578 LINE",
"850 793 LINE",
"850 1047 LINE",
"520 829 LINE",
"520 1427 LINE",
"283 1427 LINE",
"283 702 LINE",
"123 602 LINE",
"123 352 LINE",
"283 453 LINE",
"283 0 LINE"
);
}
);
userData = {
assembly = "PUSHB[ ]	/* 4 values pushed */\0129 13 3 4 \012CALL[ ]	/* CallFunction */\012PUSHB[ ]	/* 1 value pushed */\0123 \012SRP0[ ]	/* SetRefPoint0 */\012PUSHB[ ]	/* 1 value pushed */\0120 \012MDRP[10000]	/* MoveDirectRelPt */\012PUSHB[ ]	/* 1 value pushed */\0129 \012SRP0[ ]	/* SetRefPoint0 */\012PUSHB[ ]	/* 1 value pushed */\0125 \012MDRP[10000]	/* MoveDirectRelPt */\012SVTCA[0]	/* SetFreedomAndProjectionVectorToAxis */\012PUSHB[ ]	/* 1 value pushed */\0120 \012RCVT[ ]	/* ReadCVT */\012IF[ ]	/* If */\012PUSHB[ ]	/* 1 value pushed */\0124 \012MDAP[1]	/* MoveDirectAbsPt */\012ELSE[ ]	/* Else */\012PUSHB[ ]	/* 2 values pushed */\0124 23 \012MIAP[0]	/* MoveIndirectAbsPt */\012EIF[ ]	/* EndIf */\012PUSHB[ ]	/* 1 value pushed */\0120 \012RCVT[ ]	/* ReadCVT */\012IF[ ]	/* If */\012PUSHB[ ]	/* 1 value pushed */\01212 \012MDAP[1]	/* MoveDirectAbsPt */\012ELSE[ ]	/* Else */\012PUSHB[ ]	/* 2 values pushed */\01212 17 \012MIAP[0]	/* MoveIndirectAbsPt */\012EIF[ ]	/* EndIf */\012PUSHB[ ]	/* 3 values pushed */\0120 12 4 \012SRP1[ ]	/* SetRefPoint1 */\012SRP2[ ]	/* SetRefPoint2 */\012IP[ ]	/* InterpolatePts */\012PUSHB[ ]	/* 3 values pushed */\0121 12 4 \012SRP1[ ]	/* SetRefPoint1 */\012SRP2[ ]	/* SetRefPoint2 */\012IP[ ]	/* InterpolatePts */\012PUSHB[ ]	/* 3 values pushed */\0126 12 4 \012SRP1[ ]	/* SetRefPoint1 */\012SRP2[ ]	/* SetRefPoint2 */\012IP[ ]	/* InterpolatePts */\012PUSHB[ ]	/* 3 values pushed */\0127 12 4 \012SRP1[ ]	/* SetRefPoint1 */\012SRP2[ ]	/* SetRefPoint2 */\012IP[ ]	/* InterpolatePts */\012PUSHB[ ]	/* 2 values pushed */\01210 3 \012MIRP[10100]	/* MoveIndirectRelPt */\012IUP[0]	/* InterpolateUntPts */\012IUP[1]	/* InterpolateUntPts */";
};
width = 1182;
}
);
note = Lslash;
unicode = 0141;
},
{
glyphname = M;
layers = (
{
layerId = "410E5E1C-5FD0-457E-A79B-7BF13808BDAC";
paths = (
{
closed = 1;
nodes = (
"422 0 LINE",
"422 1204 LINE",
"428 1204 LINE",
"442 1158 OFFCURVE",
"455 1115 QCURVE SMOOTH",
"466 1078 OFFCURVE",
"492 997 OFFCURVE",
"502 967 QCURVE SMOOTH",
"690 387 LINE",
"1049 387 LINE",
"1233 963 LINE SMOOTH",
"1243 993 OFFCURVE",
"1269 1076 OFFCURVE",
"1280 1114 QCURVE SMOOTH",
"1307 1204 LINE",
"1313 1204 LINE",
"1313 0 LINE",
"1552 0 LINE",
"1552 1427 LINE",
"1143 1427 LINE",
"870 567 LINE",
"862 567 LINE",
"598 1427 LINE",
"182 1427 LINE",
"182 0 LINE"
);
}
);
userData = {
assembly = "PUSHB[ ]	/* 1 value pushed */\01225 \012MDAP[1]	/* MoveDirectAbsPt */\012PUSHB[ ]	/* 1 value pushed */\0127 \012MDAP[1]	/* MoveDirectAbsPt */\012PUSHB[ ]	/* 1 value pushed */\01225 \012SRP0[ ]	/* SetRefPoint0 */\012PUSHB[ ]	/* 1 value pushed */\0120 \012MDRP[10000]	/* MoveDirectRelPt */\012PUSHB[ ]	/* 1 value pushed */\0120 \012MDAP[1]	/* MoveDirectAbsPt */\012PUSHB[ ]	/* 1 value pushed */\0127 \012SRP0[ ]	/* SetRefPoint0 */\012PUSHB[ ]	/* 2 values pushed */\0126 12 \012MIRP[10100]	/* MoveIndirectRelPt */\012PUSHB[ ]	/* 1 value pushed */\0127 \012SRP0[ ]	/* SetRefPoint0 */\012PUSHB[ ]	/* 1 value pushed */\0129 \012MDRP[10000]	/* MoveDirectRelPt */\012PUSHB[ ]	/* 1 value pushed */\0129 \012MDAP[1]	/* MoveDirectAbsPt */\012PUSHB[ ]	/* 1 value pushed */\0120 \012SRP0[ ]	/* SetRefPoint0 */\012PUSHB[ ]	/* 2 values pushed */\01222 12 \012MIRP[10100]	/* MoveIndirectRelPt */\012PUSHB[ ]	/* 1 value pushed */\0126 \012SRP0[ ]	/* SetRefPoint0 */\012PUSHB[ ]	/* 1 value pushed */\01226 \012MDRP[11100]	/* MoveDirectRelPt */\012SVTCA[0]	/* SetFreedomAndProjectionVectorToAxis */\012PUSHB[ ]	/* 1 value pushed */\0120 \012RCVT[ ]	/* ReadCVT */\012IF[ ]	/* If */\012PUSHB[ ]	/* 1 value pushed */\0120 \012MDAP[1]	/* MoveDirectAbsPt */\012ELSE[ ]	/* Else */\012PUSHB[ ]	/* 2 values pushed */\0120 23 \012MIAP[0]	/* MoveIndirectAbsPt */\012EIF[ ]	/* EndIf */\012PUSHB[ ]	/* 1 value pushed */\0120 \012RCVT[ ]	/* ReadCVT */\012IF[ ]	/* If */\012PUSHB[ ]	/* 1 value pushed */\0124 \012MDAP[1]	/* MoveDirectAbsPt */\012ELSE[ ]	/* Else */\012PUSHB[ ]	/* 2 values pushed */\0124 23 \012MIAP[0]	/* MoveIndirectAbsPt */\012EIF[ ]	/* EndIf */\012PUSHB[ ]	/* 1 value pushed */\0120 \012RCVT[ ]	/* ReadCVT */\012IF[ ]	/* If */\012PUSHB[ ]	/* 1 value pushed */\0126 \012MDAP[1]	/* MoveDirectAbsPt */\012ELSE[ ]	/* Else */\012PUSHB[ ]	/* 2 values pushed */\0126 17 \012MIAP[0]	/* MoveIndirectAbsPt */\012EIF[ ]	/* EndIf */\012PUSHB[ ]	/* 1 value pushed */\0120 \012RCVT[ ]	/* ReadCVT */\012IF[ ]	/* If */\012PUSHB[ ]	/* 1 value pushed */\01223 \012MDAP[1]	/* MoveDirectAbsPt */\012ELSE[ ]	/* Else */\012PUSHB[ ]	/* 2 values pushed */\01223 17 \012MIAP[0]	/* MoveIndirectAbsPt */\012EIF[ ]	/* EndIf */\012PUSHB[ ]	/* 4 values pushed */\0123 4 14 4 \012CALL[ ]	/* CallFunction */\012PUSHB[ ]	/* 1 value pushed */\0124 \012SRP0[ ]	/* SetRefPoint0 */\012PUSHB[ ]	/* 2 values pushed */\0128 3 \012MIRP[10100]	/* MoveIndirectRelPt */\012PUSHB[ ]	/* 1 value pushed */\01221 \012MDRP[10000]	/* MoveDirectRelPt */\012PUSHB[ ]	/* 1 value pushed */\01222 \012MDRP[10000]	/* MoveDirectRelPt */\012IUP[0]	/* InterpolateUntPts */\012IUP[1]	/* InterpolateUntPts */";
};
width = 1734;
}
);
note = M;
unicode = 004D;
},
{
glyphname = N;
layers = (
{
layerId = "410E5E1C-5FD0-457E-A79B-7BF13808BDAC";
paths = (
{
closed = 1;
nodes = (
"420 0 LINE",
"420 1204 LINE",
"424 1204 LINE",
"435 1177 OFFCURVE",
"449 1145 QCURVE SMOOTH",
"460 1118 OFFCURVE",
"492 1046 OFFCURVE",
"510 1004 QCURVE SMOOTH",
"950 0 LINE",
"1339 0 LINE",
"1339 1427 LINE",
"1102 1427 LINE",
"1102 436 LINE SMOOTH",
"1102 402 OFFCURVE",
"1102 328 OFFCURVE",
"1103 296 QCURVE SMOOTH",
"1104 259 OFFCURVE",
"1105 223 QCURVE",
"1100 223 LINE",
"580 1427 LINE",
"182 1427 LINE",
"182 0 LINE"
);
}
);
userData = {
assembly = "PUSHB[ ]	/* 1 value pushed */\01222 \012MDAP[1]	/* MoveDirectAbsPt */\012PUSHB[ ]	/* 1 value pushed */\0128 \012MDAP[1]	/* MoveDirectAbsPt */\012PUSHB[ ]	/* 1 value pushed */\01222 \012SRP0[ ]	/* SetRefPoint0 */\012PUSHB[ ]	/* 1 value pushed */\0120 \012MDRP[10000]	/* MoveDirectRelPt */\012PUSHB[ ]	/* 1 value pushed */\0120 \012MDAP[1]	/* MoveDirectAbsPt */\012PUSHB[ ]	/* 1 value pushed */\0128 \012SRP0[ ]	/* SetRefPoint0 */\012PUSHB[ ]	/* 1 value pushed */\0122 \012MDRP[10000]	/* MoveDirectRelPt */\012PUSHB[ ]	/* 1 value pushed */\0122 \012MDAP[1]	/* MoveDirectAbsPt */\012PUSHB[ ]	/* 1 value pushed */\0128 \012SRP0[ ]	/* SetRefPoint0 */\012PUSHB[ ]	/* 2 values pushed */\01211 13 \012MIRP[10100]	/* MoveIndirectRelPt */\012PUSHB[ ]	/* 3 values pushed */\0123 8 11 \012SRP1[ ]	/* SetRefPoint1 */\012SRP2[ ]	/* SetRefPoint2 */\012IP[ ]	/* InterpolatePts */\012PUSHB[ ]	/* 1 value pushed */\0128 \012SRP0[ ]	/* SetRefPoint0 */\012PUSHB[ ]	/* 1 value pushed */\0125 \012MDRP[10000]	/* MoveDirectRelPt */\012PUSHB[ ]	/* 1 value pushed */\0125 \012MDAP[1]	/* MoveDirectAbsPt */\012PUSHB[ ]	/* 1 value pushed */\0120 \012SRP0[ ]	/* SetRefPoint0 */\012PUSHB[ ]	/* 2 values pushed */\01219 13 \012MIRP[10100]	/* MoveIndirectRelPt */\012PUSHB[ ]	/* 1 value pushed */\01211 \012SRP0[ ]	/* SetRefPoint0 */\012PUSHB[ ]	/* 1 value pushed */\01223 \012MDRP[11100]	/* MoveDirectRelPt */\012SVTCA[0]	/* SetFreedomAndProjectionVectorToAxis */\012PUSHB[ ]	/* 1 value pushed */\0120 \012RCVT[ ]	/* ReadCVT */\012IF[ ]	/* If */\012PUSHB[ ]	/* 1 value pushed */\0120 \012MDAP[1]	/* MoveDirectAbsPt */\012ELSE[ ]	/* Else */\012PUSHB[ ]	/* 2 values pushed */\0120 23 \012MIAP[0]	/* MoveIndirectAbsPt */\012EIF[ ]	/* EndIf */\012PUSHB[ ]	/* 1 value pushed */\0120 \012RCVT[ ]	/* ReadCVT */\012IF[ ]	/* If */\012PUSHB[ ]	/* 1 value pushed */\0129 \012MDAP[1]	/* MoveDirectAbsPt */\012ELSE[ ]	/* Else */\012PUSHB[ ]	/* 2 values pushed */\0129 23 \012MIAP[0]	/* MoveIndirectAbsPt */\012EIF[ ]	/* EndIf */\012PUSHB[ ]	/* 1 value pushed */\0120 \012RCVT[ ]	/* ReadCVT */\012IF[ ]	/* If */\012PUSHB[ ]	/* 1 value pushed */\01211 \012MDAP[1]	/* MoveDirectAbsPt */\012ELSE[ ]	/* Else */\012PUSHB[ ]	/* 2 values pushed */\01211 17 \012MIAP[0]	/* MoveIndirectAbsPt */\012EIF[ ]	/* EndIf */\012PUSHB[ ]	/* 1 value pushed */\0120 \012RCVT[ ]	/* ReadCVT */\012IF[ ]	/* If */\012PUSHB[ ]	/* 1 value pushed */\01220 \012MDAP[1]	/* MoveDirectAbsPt */\012ELSE[ ]	/* Else */\012PUSHB[ ]	/* 2 values pushed */\01220 17 \012MIAP[0]	/* MoveIndirectAbsPt */\012EIF[ ]	/* EndIf */\012PUSHB[ ]	/* 1 value pushed */\01211 \012SRP0[ ]	/* SetRefPoint0 */\012PUSHB[ ]	/* 2 values pushed */\0122 3 \012MIRP[10100]	/* MoveIndirectRelPt */\012PUSHB[ ]	/* 1 value pushed */\0120 \012SRP0[ ]	/* SetRefPoint0 */\012PUSHB[ ]	/* 2 values pushed */\01218 3 \012MIRP[10100]	/* MoveIndirectRelPt */\012NPUSHB[ ]	/* 11 values pushed */\0128 18 24 18 40 18 56 18 72 18 5 \012DELTAP1[ ]	/* DeltaExceptionP1 */\012IUP[0]	/* InterpolateUntPts */\012IUP[1]	/* InterpolateUntPts */";
};
width = 1521;
}
);
note = N;
unicode = 004E;
},
{
glyphname = Eng;
layers = (
{
layerId = "410E5E1C-5FD0-457E-A79B-7BF13808BDAC";
paths = (
{
closed = 1;
nodes = (
"420 0 LINE",
"420 1204 LINE",
"424 1204 LINE",
"435 1177 OFFCURVE",
"449 1145 QCURVE SMOOTH",
"460 1118 OFFCURVE",
"492 1046 OFFCURVE",
"510 1004 QCURVE SMOOTH",
"950 0 LINE",
"1098 0 LINE",
"1098 -164 LINE SMOOTH",
"1098 -212 OFFCURVE",
"1082 -265 OFFCURVE",
"1050 -291 OFFCURVE",
"1001 -297 OFFCURVE",
"967 -297 QCURVE SMOOTH",
"945 -297 OFFCURVE",
"897 -296 OFFCURVE",
"876 -295 QCURVE SMOOTH",
"851 -294 OFFCURVE",
"828 -293 QCURVE",
"828 -465 LINE",
"861 -475 OFFCURVE",
"900 -483 QCURVE SMOOTH",
"933 -490 OFFCURVE",
"1019 -500 OFFCURVE",
"1067 -500 QCURVE SMOOTH",
"1134 -500 OFFCURVE",
"1236 -475 OFFCURVE",
"1305 -414 OFFCURVE",
"1340 -313 OFFCURVE",
"1340 -237 QCURVE SMOOTH",
"1339 77 LINE",
"1339 1427 LINE",
"1102 1427 LINE",
"1102 436 LINE SMOOTH",
"1102 402 OFFCURVE",
"1102 328 OFFCURVE",
"1103 296 QCURVE SMOOTH",
"1104 259 OFFCURVE",
"1105 223 QCURVE",
"1100 223 LINE",
"580 1427 LINE",
"182 1427 LINE",
"182 0 LINE"
);
}
);
userData = {
assembly = "PUSHB[ ]	/* 4 values pushed */\01212 12 33 4 \012CALL[ ]	/* CallFunction */\012PUSHB[ ]	/* 4 values pushed */\01242 13 0 4 \012CALL[ ]	/* CallFunction */\012PUSHB[ ]	/* 1 value pushed */\01233 \012SRP0[ ]	/* SetRefPoint0 */\012PUSHB[ ]	/* 1 value pushed */\0123 \012MDRP[10000]	/* MoveDirectRelPt */\012PUSHB[ ]	/* 1 value pushed */\0123 \012MDAP[1]	/* MoveDirectAbsPt */\012PUSHB[ ]	/* 1 value pushed */\01233 \012SRP0[ ]	/* SetRefPoint0 */\012PUSHB[ ]	/* 1 value pushed */\0125 \012MDRP[10000]	/* MoveDirectRelPt */\012PUSHB[ ]	/* 1 value pushed */\0125 \012MDAP[1]	/* MoveDirectAbsPt */\012PUSHB[ ]	/* 1 value pushed */\01233 \012SRP0[ ]	/* SetRefPoint0 */\012PUSHB[ ]	/* 1 value pushed */\0128 \012MDRP[10000]	/* MoveDirectRelPt */\012PUSHB[ ]	/* 1 value pushed */\0128 \012MDAP[1]	/* MoveDirectAbsPt */\012PUSHB[ ]	/* 1 value pushed */\01212 \012SRP0[ ]	/* SetRefPoint0 */\012PUSHB[ ]	/* 1 value pushed */\01210 \012MDRP[10000]	/* MoveDirectRelPt */\012PUSHB[ ]	/* 1 value pushed */\01210 \012MDAP[1]	/* MoveDirectAbsPt */\012PUSHB[ ]	/* 1 value pushed */\01212 \012SRP0[ ]	/* SetRefPoint0 */\012PUSHB[ ]	/* 1 value pushed */\01246 \012MDRP[11100]	/* MoveDirectRelPt */\012SVTCA[0]	/* SetFreedomAndProjectionVectorToAxis */\012PUSHB[ ]	/* 1 value pushed */\0120 \012RCVT[ ]	/* ReadCVT */\012IF[ ]	/* If */\012PUSHB[ ]	/* 1 value pushed */\0120 \012MDAP[1]	/* MoveDirectAbsPt */\012ELSE[ ]	/* Else */\012PUSHB[ ]	/* 2 values pushed */\0120 23 \012MIAP[0]	/* MoveIndirectAbsPt */\012EIF[ ]	/* EndIf */\012PUSHB[ ]	/* 1 value pushed */\0120 \012RCVT[ ]	/* ReadCVT */\012IF[ ]	/* If */\012PUSHB[ ]	/* 1 value pushed */\0129 \012MDAP[1]	/* MoveDirectAbsPt */\012ELSE[ ]	/* Else */\012PUSHB[ ]	/* 2 values pushed */\0129 23 \012MIAP[0]	/* MoveIndirectAbsPt */\012EIF[ ]	/* EndIf */\012PUSHB[ ]	/* 1 value pushed */\0120 \012RCVT[ ]	/* ReadCVT */\012IF[ ]	/* If */\012PUSHB[ ]	/* 1 value pushed */\01234 \012MDAP[1]	/* MoveDirectAbsPt */\012ELSE[ ]	/* Else */\012PUSHB[ ]	/* 2 values pushed */\01234 17 \012MIAP[0]	/* MoveIndirectAbsPt */\012EIF[ ]	/* EndIf */\012PUSHB[ ]	/* 1 value pushed */\0120 \012RCVT[ ]	/* ReadCVT */\012IF[ ]	/* If */\012PUSHB[ ]	/* 1 value pushed */\01243 \012MDAP[1]	/* MoveDirectAbsPt */\012ELSE[ ]	/* Else */\012PUSHB[ ]	/* 2 values pushed */\01243 17 \012MIAP[0]	/* MoveIndirectAbsPt */\012EIF[ ]	/* EndIf */\012PUSHB[ ]	/* 1 value pushed */\0120 \012RCVT[ ]	/* ReadCVT */\012IF[ ]	/* If */\012PUSHB[ ]	/* 1 value pushed */\01217 \012MDAP[1]	/* MoveDirectAbsPt */\012ELSE[ ]	/* Else */\012PUSHB[ ]	/* 2 values pushed */\01217 19 \012MIAP[0]	/* MoveIndirectAbsPt */\012EIF[ ]	/* EndIf */\012PUSHB[ ]	/* 1 value pushed */\01234 \012SRP0[ ]	/* SetRefPoint0 */\012PUSHB[ ]	/* 2 values pushed */\0122 3 \012MIRP[10100]	/* MoveIndirectRelPt */\012PUSHB[ ]	/* 1 value pushed */\01217 \012SRP0[ ]	/* SetRefPoint0 */\012PUSHB[ ]	/* 2 values pushed */\01223 5 \012MIRP[10100]	/* MoveIndirectRelPt */\012PUSHB[ ]	/* 1 value pushed */\01225 \012MDRP[10000]	/* MoveDirectRelPt */\012PUSHB[ ]	/* 1 value pushed */\01225 \012MDAP[1]	/* MoveDirectAbsPt */\012PUSHB[ ]	/* 1 value pushed */\01228 \012MDRP[10000]	/* MoveDirectRelPt */\012PUSHB[ ]	/* 1 value pushed */\0120 \012SRP0[ ]	/* SetRefPoint0 */\012PUSHB[ ]	/* 2 values pushed */\01241 3 \012MIRP[10100]	/* MoveIndirectRelPt */\012NPUSHB[ ]	/* 11 values pushed */\0128 41 24 41 40 41 56 41 72 41 5 \012DELTAP1[ ]	/* DeltaExceptionP1 */\012IUP[0]	/* InterpolateUntPts */\012IUP[1]	/* InterpolateUntPts */";
};
width = 1521;
}
);
note = Eng;
unicode = 014A;
},
{
glyphname = O;
layers = (
{
layerId = "410E5E1C-5FD0-457E-A79B-7BF13808BDAC";
paths = (
{
closed = 1;
nodes = (
"951 -4 OFFCURVE",
"1081 60 OFFCURVE",
"1181 169 OFFCURVE",
"1250 334 OFFCURVE",
"1286 560 OFFCURVE",
"1286 709 QCURVE SMOOTH",
"1286 858 OFFCURVE",
"1250 1085 OFFCURVE",
"1181 1251 OFFCURVE",
"1081 1362 OFFCURVE",
"951 1428 OFFCURVE",
"793 1456 OFFCURVE",
"702 1456 QCURVE SMOOTH",
"565 1456 OFFCURVE",
"347 1391 OFFCURVE",
"195 1224 OFFCURVE",
"115 934 OFFCURVE",
"115 709 QCURVE SMOOTH",
"115 559 OFFCURVE",
"151 333 OFFCURVE",
"221 168 OFFCURVE",
"322 60 OFFCURVE",
"452 -5 OFFCURVE",
"610 -31 OFFCURVE",
"702 -31 QCURVE SMOOTH",
"793 -31 OFFCURVE"
);
},
{
closed = 1;
nodes = (
"474 236 OFFCURVE",
"398 353 OFFCURVE",
"367 554 OFFCURVE",
"367 709 QCURVE SMOOTH",
"367 865 OFFCURVE",
"398 1067 OFFCURVE",
"474 1186 OFFCURVE",
"604 1233 OFFCURVE",
"702 1233 QCURVE SMOOTH",
"800 1233 OFFCURVE",
"929 1186 OFFCURVE",
"1005 1067 OFFCURVE",
"1036 865 OFFCURVE",
"1036 709 QCURVE SMOOTH",
"1036 554 OFFCURVE",
"1005 353 OFFCURVE",
"929 236 OFFCURVE",
"800 190 OFFCURVE",
"702 190 QCURVE SMOOTH",
"604 190 OFFCURVE"
);
}
);
userData = {
assembly = "PUSHB[ ]	/* 1 value pushed */\01246 \012MDAP[1]	/* MoveDirectAbsPt */\012PUSHB[ ]	/* 1 value pushed */\01231 \012MDAP[1]	/* MoveDirectAbsPt */\012PUSHB[ ]	/* 1 value pushed */\01246 \012SRP0[ ]	/* SetRefPoint0 */\012PUSHB[ ]	/* 1 value pushed */\0127 \012MDRP[10000]	/* MoveDirectRelPt */\012PUSHB[ ]	/* 1 value pushed */\0127 \012MDAP[1]	/* MoveDirectAbsPt */\012NPUSHB[ ]	/* 11 values pushed */\0129 31 25 31 41 31 57 31 73 31 5 \012DELTAP1[ ]	/* DeltaExceptionP1 */\012PUSHB[ ]	/* 1 value pushed */\01231 \012SRP0[ ]	/* SetRefPoint0 */\012PUSHB[ ]	/* 2 values pushed */\01219 11 \012MIRP[10100]	/* MoveIndirectRelPt */\012PUSHB[ ]	/* 1 value pushed */\0127 \012SRP0[ ]	/* SetRefPoint0 */\012PUSHB[ ]	/* 2 values pushed */\01241 11 \012MIRP[10100]	/* MoveIndirectRelPt */\012NPUSHB[ ]	/* 11 values pushed */\0126 41 22 41 38 41 54 41 70 41 5 \012DELTAP1[ ]	/* DeltaExceptionP1 */\012PUSHB[ ]	/* 1 value pushed */\01219 \012SRP0[ ]	/* SetRefPoint0 */\012PUSHB[ ]	/* 1 value pushed */\01247 \012MDRP[11100]	/* MoveDirectRelPt */\012SVTCA[0]	/* SetFreedomAndProjectionVectorToAxis */\012PUSHB[ ]	/* 1 value pushed */\0120 \012RCVT[ ]	/* ReadCVT */\012IF[ ]	/* If */\012PUSHB[ ]	/* 1 value pushed */\01212 \012MDAP[1]	/* MoveDirectAbsPt */\012ELSE[ ]	/* Else */\012PUSHB[ ]	/* 2 values pushed */\01212 23 \012MIAP[0]	/* MoveIndirectAbsPt */\012EIF[ ]	/* EndIf */\012PUSHB[ ]	/* 1 value pushed */\0120 \012RCVT[ ]	/* ReadCVT */\012IF[ ]	/* If */\012PUSHB[ ]	/* 1 value pushed */\0120 \012MDAP[1]	/* MoveDirectAbsPt */\012ELSE[ ]	/* Else */\012PUSHB[ ]	/* 2 values pushed */\0120 17 \012MIAP[0]	/* MoveIndirectAbsPt */\012EIF[ ]	/* EndIf */\012PUSHB[ ]	/* 2 values pushed */\01226 3 \012MIRP[10100]	/* MoveIndirectRelPt */\012NPUSHB[ ]	/* 11 values pushed */\0127 26 23 26 39 26 55 26 71 26 5 \012DELTAP1[ ]	/* DeltaExceptionP1 */\012PUSHB[ ]	/* 1 value pushed */\01212 \012SRP0[ ]	/* SetRefPoint0 */\012PUSHB[ ]	/* 2 values pushed */\01236 3 \012MIRP[10100]	/* MoveIndirectRelPt */\012NPUSHB[ ]	/* 11 values pushed */\0128 36 24 36 40 36 56 36 72 36 5 \012DELTAP1[ ]	/* DeltaExceptionP1 */\012IUP[0]	/* InterpolateUntPts */\012IUP[1]	/* InterpolateUntPts */";
};
width = 1401;
}
);
note = O;
unicode = 004F;
},
{
glyphname = Oslash;
layers = (
{
layerId = "410E5E1C-5FD0-457E-A79B-7BF13808BDAC";
paths = (
{
closed = 1;
nodes = (
"429 -172 LINE",
"504 -6 LINE",
"554 -20 OFFCURVE",
"665 -31 OFFCURVE",
"727 -31 QCURVE SMOOTH",
"818 -31 OFFCURVE",
"976 -4 OFFCURVE",
"1106 60 OFFCURVE",
"1206 169 OFFCURVE",
"1275 334 OFFCURVE",
"1311 560 OFFCURVE",
"1311 709 QCURVE SMOOTH",
"1311 835 OFFCURVE",
"1286 1035 OFFCURVE",
"1236 1190 OFFCURVE",
"1164 1304 OFFCURVE",
"1117 1344 QCURVE",
"1231 1595 LINE",
"1012 1595 LINE",
"938 1433 LINE",
"890 1445 OFFCURVE",
"785 1456 OFFCURVE",
"727 1456 QCURVE SMOOTH",
"590 1456 OFFCURVE",
"372 1391 OFFCURVE",
"220 1224 OFFCURVE",
"140 934 OFFCURVE",
"140 709 QCURVE SMOOTH",
"140 586 OFFCURVE",
"164 390 OFFCURVE",
"212 237 OFFCURVE",
"281 124 OFFCURVE",
"326 85 QCURVE",
"209 -172 LINE"
);
},
{
closed = 1;
nodes = (
"413 395 OFFCURVE",
"392 577 OFFCURVE",
"392 709 QCURVE SMOOTH",
"392 865 OFFCURVE",
"423 1067 OFFCURVE",
"499 1186 OFFCURVE",
"629 1233 OFFCURVE",
"727 1233 QCURVE SMOOTH",
"794 1233 OFFCURVE",
"843 1223 QCURVE",
"439 335 LINE"
);
},
{
closed = 1;
nodes = (
"1036 1039 OFFCURVE",
"1061 849 OFFCURVE",
"1061 709 QCURVE SMOOTH",
"1061 554 OFFCURVE",
"1030 353 OFFCURVE",
"954 236 OFFCURVE",
"825 190 OFFCURVE",
"727 190 QCURVE SMOOTH",
"690 190 OFFCURVE",
"626 195 OFFCURVE",
"599 202 QCURVE",
"1006 1100 LINE"
);
}
);
userData = {
assembly = "PUSHB[ ]	/* 3 values pushed */\01215 33 3 \012CALL[ ]	/* CallFunction */\012PUSHB[ ]	/* 3 values pushed */\01241 33 15 \012SRP1[ ]	/* SetRefPoint1 */\012SRP2[ ]	/* SetRefPoint2 */\012IP[ ]	/* InterpolatePts */\012PUSHB[ ]	/* 1 value pushed */\01241 \012MDAP[1]	/* MoveDirectAbsPt */\012PUSHB[ ]	/* 2 values pushed */\0125 11 \012MIRP[10100]	/* MoveIndirectRelPt */\012PUSHB[ ]	/* 3 values pushed */\01253 33 15 \012SRP1[ ]	/* SetRefPoint1 */\012SRP2[ ]	/* SetRefPoint2 */\012IP[ ]	/* InterpolatePts */\012PUSHB[ ]	/* 1 value pushed */\01253 \012MDAP[1]	/* MoveDirectAbsPt */\012NPUSHB[ ]	/* 11 values pushed */\0129 53 25 53 41 53 57 53 73 53 5 \012DELTAP1[ ]	/* DeltaExceptionP1 */\012PUSHB[ ]	/* 2 values pushed */\01221 11 \012MIRP[10100]	/* MoveIndirectRelPt */\012PUSHB[ ]	/* 3 values pushed */\01244 33 15 \012SRP1[ ]	/* SetRefPoint1 */\012SRP2[ ]	/* SetRefPoint2 */\012IP[ ]	/* InterpolatePts */\012PUSHB[ ]	/* 3 values pushed */\01256 33 15 \012SRP1[ ]	/* SetRefPoint1 */\012SRP2[ ]	/* SetRefPoint2 */\012IP[ ]	/* InterpolatePts */\012PUSHB[ ]	/* 1 value pushed */\01258 \012MDRP[11100]	/* MoveDirectRelPt */\012SVTCA[0]	/* SetFreedomAndProjectionVectorToAxis */\012PUSHB[ ]	/* 1 value pushed */\0120 \012RCVT[ ]	/* ReadCVT */\012IF[ ]	/* If */\012PUSHB[ ]	/* 1 value pushed */\01210 \012MDAP[1]	/* MoveDirectAbsPt */\012ELSE[ ]	/* Else */\012PUSHB[ ]	/* 2 values pushed */\01210 23 \012MIAP[0]	/* MoveIndirectAbsPt */\012EIF[ ]	/* EndIf */\012PUSHB[ ]	/* 1 value pushed */\0120 \012RCVT[ ]	/* ReadCVT */\012IF[ ]	/* If */\012PUSHB[ ]	/* 1 value pushed */\01228 \012MDAP[1]	/* MoveDirectAbsPt */\012ELSE[ ]	/* Else */\012PUSHB[ ]	/* 2 values pushed */\01228 17 \012MIAP[0]	/* MoveIndirectAbsPt */\012EIF[ ]	/* EndIf */\012PUSHB[ ]	/* 3 values pushed */\01214 32 3 \012CALL[ ]	/* CallFunction */\012PUSHB[ ]	/* 1 value pushed */\01210 \012SRP0[ ]	/* SetRefPoint0 */\012PUSHB[ ]	/* 2 values pushed */\01236 3 \012MIRP[10100]	/* MoveIndirectRelPt */\012NPUSHB[ ]	/* 11 values pushed */\0128 36 24 36 40 36 56 36 72 36 5 \012DELTAP1[ ]	/* DeltaExceptionP1 */\012PUSHB[ ]	/* 3 values pushed */\01244 32 14 \012SRP1[ ]	/* SetRefPoint1 */\012SRP2[ ]	/* SetRefPoint2 */\012IP[ ]	/* InterpolatePts */\012PUSHB[ ]	/* 1 value pushed */\01228 \012SRP0[ ]	/* SetRefPoint0 */\012PUSHB[ ]	/* 2 values pushed */\01248 3 \012MIRP[10100]	/* MoveIndirectRelPt */\012NPUSHB[ ]	/* 11 values pushed */\0127 48 23 48 39 48 55 48 71 48 5 \012DELTAP1[ ]	/* DeltaExceptionP1 */\012PUSHB[ ]	/* 3 values pushed */\01256 32 14 \012SRP1[ ]	/* SetRefPoint1 */\012SRP2[ ]	/* SetRefPoint2 */\012IP[ ]	/* InterpolatePts */\012IUP[0]	/* InterpolateUntPts */\012IUP[1]	/* InterpolateUntPts */";
};
width = 1451;
}
);
note = Oslash;
unicode = 00D8;
},
{
glyphname = OE;
layers = (
{
layerId = "410E5E1C-5FD0-457E-A79B-7BF13808BDAC";
paths = (
{
closed = 1;
nodes = (
"843 -11 OFFCURVE",
"891 -8 QCURVE SMOOTH",
"947 -4 OFFCURVE",
"1001 0 QCURVE",
"1876 0 LINE",
"1876 223 LINE",
"1241 223 LINE",
"1241 610 LINE",
"1759 610 LINE",
"1759 829 LINE",
"1241 829 LINE",
"1241 1204 LINE",
"1860 1204 LINE",
"1860 1427 LINE",
"1008 1427 LINE",
"952 1432 OFFCURVE",
"894 1436 QCURVE SMOOTH",
"844 1440 OFFCURVE",
"726 1446 OFFCURVE",
"672 1446 QCURVE SMOOTH",
"610 1446 OFFCURVE",
"479 1422 OFFCURVE",
"355 1360 OFFCURVE",
"246 1256 OFFCURVE",
"163 1096 OFFCURVE",
"115 873 OFFCURVE",
"115 725 QCURVE SMOOTH",
"115 571 OFFCURVE",
"161 342 OFFCURVE",
"240 178 OFFCURVE",
"347 71 OFFCURVE",
"471 8 OFFCURVE",
"606 -16 OFFCURVE",
"672 -16 QCURVE SMOOTH",
"726 -16 OFFCURVE"
);
},
{
closed = 1;
nodes = (
"735 205 OFFCURVE",
"633 213 OFFCURVE",
"539 246 OFFCURVE",
"459 312 OFFCURVE",
"399 428 OFFCURVE",
"365 602 OFFCURVE",
"365 727 QCURVE SMOOTH",
"365 845 OFFCURVE",
"398 1010 OFFCURVE",
"457 1120 OFFCURVE",
"537 1183 OFFCURVE",
"630 1214 OFFCURVE",
"731 1221 OFFCURVE",
"782 1221 QCURVE SMOOTH",
"847 1221 OFFCURVE",
"959 1220 OFFCURVE",
"1001 1217 QCURVE",
"1001 205 LINE",
"786 205 LINE SMOOTH"
);
}
);
userData = {
assembly = "PUSHB[ ]	/* 1 value pushed */\01254 \012MDAP[1]	/* MoveDirectAbsPt */\012PUSHB[ ]	/* 1 value pushed */\01235 \012MDAP[1]	/* MoveDirectAbsPt */\012PUSHB[ ]	/* 1 value pushed */\01254 \012SRP0[ ]	/* SetRefPoint0 */\012PUSHB[ ]	/* 1 value pushed */\0127 \012MDRP[10000]	/* MoveDirectRelPt */\012PUSHB[ ]	/* 1 value pushed */\0127 \012MDAP[1]	/* MoveDirectAbsPt */\012PUSHB[ ]	/* 1 value pushed */\01235 \012SRP0[ ]	/* SetRefPoint0 */\012PUSHB[ ]	/* 1 value pushed */\01219 \012MDRP[10000]	/* MoveDirectRelPt */\012PUSHB[ ]	/* 1 value pushed */\01219 \012MDAP[1]	/* MoveDirectAbsPt */\012PUSHB[ ]	/* 1 value pushed */\01235 \012SRP0[ ]	/* SetRefPoint0 */\012PUSHB[ ]	/* 2 values pushed */\01227 12 \012MIRP[10100]	/* MoveIndirectRelPt */\012PUSHB[ ]	/* 1 value pushed */\01222 \012MDRP[10000]	/* MoveDirectRelPt */\012PUSHB[ ]	/* 1 value pushed */\01235 \012SRP0[ ]	/* SetRefPoint0 */\012PUSHB[ ]	/* 1 value pushed */\01230 \012MDRP[10000]	/* MoveDirectRelPt */\012PUSHB[ ]	/* 1 value pushed */\0127 \012SRP0[ ]	/* SetRefPoint0 */\012PUSHB[ ]	/* 2 values pushed */\01246 11 \012MIRP[10100]	/* MoveIndirectRelPt */\012NPUSHB[ ]	/* 11 values pushed */\0126 46 22 46 38 46 54 46 70 46 5 \012DELTAP1[ ]	/* DeltaExceptionP1 */\012SVTCA[0]	/* SetFreedomAndProjectionVectorToAxis */\012PUSHB[ ]	/* 1 value pushed */\0120 \012RCVT[ ]	/* ReadCVT */\012IF[ ]	/* If */\012PUSHB[ ]	/* 1 value pushed */\01217 \012MDAP[1]	/* MoveDirectAbsPt */\012ELSE[ ]	/* Else */\012PUSHB[ ]	/* 2 values pushed */\01217 23 \012MIAP[0]	/* MoveIndirectAbsPt */\012EIF[ ]	/* EndIf */\012PUSHB[ ]	/* 1 value pushed */\0120 \012RCVT[ ]	/* ReadCVT */\012IF[ ]	/* If */\012PUSHB[ ]	/* 1 value pushed */\01219 \012MDAP[1]	/* MoveDirectAbsPt */\012ELSE[ ]	/* Else */\012PUSHB[ ]	/* 2 values pushed */\01219 23 \012MIAP[0]	/* MoveIndirectAbsPt */\012EIF[ ]	/* EndIf */\012PUSHB[ ]	/* 1 value pushed */\0120 \012RCVT[ ]	/* ReadCVT */\012IF[ ]	/* If */\012PUSHB[ ]	/* 1 value pushed */\01214 \012MDAP[1]	/* MoveDirectAbsPt */\012ELSE[ ]	/* Else */\012PUSHB[ ]	/* 2 values pushed */\01214 23 \012MIAP[0]	/* MoveIndirectAbsPt */\012EIF[ ]	/* EndIf */\012PUSHB[ ]	/* 1 value pushed */\0120 \012RCVT[ ]	/* ReadCVT */\012IF[ ]	/* If */\012PUSHB[ ]	/* 1 value pushed */\0120 \012MDAP[1]	/* MoveDirectAbsPt */\012ELSE[ ]	/* Else */\012PUSHB[ ]	/* 2 values pushed */\0120 17 \012MIAP[0]	/* MoveIndirectAbsPt */\012EIF[ ]	/* EndIf */\012PUSHB[ ]	/* 1 value pushed */\0120 \012RCVT[ ]	/* ReadCVT */\012IF[ ]	/* If */\012PUSHB[ ]	/* 1 value pushed */\01232 \012MDAP[1]	/* MoveDirectAbsPt */\012ELSE[ ]	/* Else */\012PUSHB[ ]	/* 2 values pushed */\01232 17 \012MIAP[0]	/* MoveIndirectAbsPt */\012EIF[ ]	/* EndIf */\012PUSHB[ ]	/* 1 value pushed */\0120 \012RCVT[ ]	/* ReadCVT */\012IF[ ]	/* If */\012PUSHB[ ]	/* 1 value pushed */\01229 \012MDAP[1]	/* MoveDirectAbsPt */\012ELSE[ ]	/* Else */\012PUSHB[ ]	/* 2 values pushed */\01229 17 \012MIAP[0]	/* MoveIndirectAbsPt */\012EIF[ ]	/* EndIf */\012PUSHB[ ]	/* 4 values pushed */\01224 3 25 4 \012CALL[ ]	/* CallFunction */\012PUSHB[ ]	/* 1 value pushed */\01219 \012SRP0[ ]	/* SetRefPoint0 */\012PUSHB[ ]	/* 2 values pushed */\01221 3 \012MIRP[10100]	/* MoveIndirectRelPt */\012PUSHB[ ]	/* 1 value pushed */\01232 \012SRP0[ ]	/* SetRefPoint0 */\012PUSHB[ ]	/* 2 values pushed */\01227 3 \012MIRP[10100]	/* MoveIndirectRelPt */\012PUSHB[ ]	/* 1 value pushed */\01228 \012MDRP[10000]	/* MoveDirectRelPt */\012PUSHB[ ]	/* 1 value pushed */\01232 \012SRP0[ ]	/* SetRefPoint0 */\012PUSHB[ ]	/* 2 values pushed */\01235 3 \012MIRP[10100]	/* MoveIndirectRelPt */\012PUSHB[ ]	/* 1 value pushed */\01219 \012SRP0[ ]	/* SetRefPoint0 */\012PUSHB[ ]	/* 2 values pushed */\01236 5 \012MIRP[10100]	/* MoveIndirectRelPt */\012PUSHB[ ]	/* 1 value pushed */\01239 \012MDRP[10000]	/* MoveDirectRelPt */\012IUP[0]	/* InterpolateUntPts */\012IUP[1]	/* InterpolateUntPts */";
};
width = 1968;
}
);
note = OE;
unicode = 0152;
},
{
glyphname = P;
layers = (
{
layerId = "410E5E1C-5FD0-457E-A79B-7BF13808BDAC";
paths = (
{
closed = 1;
nodes = (
"422 0 LINE",
"422 502 LINE",
"739 502 LINE SMOOTH",
"784 502 OFFCURVE",
"877 515 OFFCURVE",
"965 552 OFFCURVE",
"1043 616 OFFCURVE",
"1101 718 OFFCURVE",
"1135 863 OFFCURVE",
"1135 961 QCURVE SMOOTH",
"1135 1059 OFFCURVE",
"1104 1205 OFFCURVE",
"1048 1308 OFFCURVE",
"974 1374 OFFCURVE",
"888 1413 OFFCURVE",
"794 1427 OFFCURVE",
"748 1427 QCURVE SMOOTH",
"182 1427 LINE",
"182 0 LINE"
);
},
{
closed = 1;
nodes = (
"422 1204 LINE",
"711 1204 LINE SMOOTH",
"765 1204 OFFCURVE",
"832 1165 OFFCURVE",
"871 1098 OFFCURVE",
"885 1010 OFFCURVE",
"885 961 QCURVE SMOOTH",
"885 911 OFFCURVE",
"871 825 OFFCURVE",
"832 761 OFFCURVE",
"765 725 OFFCURVE",
"711 725 QCURVE SMOOTH",
"422 725 LINE"
);
}
);
userData = {
assembly = "PUSHB[ ]	/* 1 value pushed */\01232 \012MDAP[1]	/* MoveDirectAbsPt */\012PUSHB[ ]	/* 1 value pushed */\01224 \012MDAP[1]	/* MoveDirectAbsPt */\012PUSHB[ ]	/* 1 value pushed */\01232 \012SRP0[ ]	/* SetRefPoint0 */\012PUSHB[ ]	/* 1 value pushed */\0120 \012MDRP[10000]	/* MoveDirectRelPt */\012PUSHB[ ]	/* 1 value pushed */\0120 \012MDAP[1]	/* MoveDirectAbsPt */\012NPUSHB[ ]	/* 11 values pushed */\0129 24 25 24 41 24 57 24 73 24 5 \012DELTAP1[ ]	/* DeltaExceptionP1 */\012PUSHB[ ]	/* 1 value pushed */\01224 \012SRP0[ ]	/* SetRefPoint0 */\012PUSHB[ ]	/* 2 values pushed */\0128 11 \012MIRP[10100]	/* MoveIndirectRelPt */\012PUSHB[ ]	/* 1 value pushed */\0120 \012SRP0[ ]	/* SetRefPoint0 */\012PUSHB[ ]	/* 2 values pushed */\01230 12 \012MIRP[10100]	/* MoveIndirectRelPt */\012PUSHB[ ]	/* 1 value pushed */\01216 \012MDRP[10000]	/* MoveDirectRelPt */\012PUSHB[ ]	/* 1 value pushed */\0128 \012SRP0[ ]	/* SetRefPoint0 */\012PUSHB[ ]	/* 1 value pushed */\01233 \012MDRP[11100]	/* MoveDirectRelPt */\012SVTCA[0]	/* SetFreedomAndProjectionVectorToAxis */\012PUSHB[ ]	/* 1 value pushed */\0120 \012RCVT[ ]	/* ReadCVT */\012IF[ ]	/* If */\012PUSHB[ ]	/* 1 value pushed */\0120 \012MDAP[1]	/* MoveDirectAbsPt */\012ELSE[ ]	/* Else */\012PUSHB[ ]	/* 2 values pushed */\0120 23 \012MIAP[0]	/* MoveIndirectAbsPt */\012EIF[ ]	/* EndIf */\012PUSHB[ ]	/* 1 value pushed */\0120 \012RCVT[ ]	/* ReadCVT */\012IF[ ]	/* If */\012PUSHB[ ]	/* 1 value pushed */\01217 \012MDAP[1]	/* MoveDirectAbsPt */\012ELSE[ ]	/* Else */\012PUSHB[ ]	/* 2 values pushed */\01217 17 \012MIAP[0]	/* MoveIndirectAbsPt */\012EIF[ ]	/* EndIf */\012PUSHB[ ]	/* 4 values pushed */\01219 3 15 4 \012CALL[ ]	/* CallFunction */\012PUSHB[ ]	/* 1 value pushed */\0120 \012SRP0[ ]	/* SetRefPoint0 */\012PUSHB[ ]	/* 2 values pushed */\01229 3 \012MIRP[10100]	/* MoveIndirectRelPt */\012IUP[0]	/* InterpolateUntPts */\012IUP[1]	/* InterpolateUntPts */";
};
width = 1215;
}
);
note = P;
unicode = 0050;
},
{
glyphname = Thorn;
layers = (
{
layerId = "410E5E1C-5FD0-457E-A79B-7BF13808BDAC";
paths = (
{
closed = 1;
nodes = (
"422 0 LINE",
"422 266 LINE",
"443 259 OFFCURVE",
"509 241 OFFCURVE",
"589 225 OFFCURVE",
"678 214 OFFCURVE",
"723 214 QCURVE SMOOTH",
"820 214 OFFCURVE",
"987 256 OFFCURVE",
"1109 367 OFFCURVE",
"1178 560 OFFCURVE",
"1178 711 QCURVE SMOOTH",
"1178 859 OFFCURVE",
"1108 1051 OFFCURVE",
"987 1162 OFFCURVE",
"824 1205 OFFCURVE",
"731 1205 QCURVE SMOOTH",
"682 1205 OFFCURVE",
"588 1194 OFFCURVE",
"506 1177 OFFCURVE",
"441 1160 OFFCURVE",
"422 1154 QCURVE",
"422 1427 LINE",
"182 1427 LINE",
"182 0 LINE"
);
},
{
closed = 1;
nodes = (
"430 983 OFFCURVE",
"475 988 OFFCURVE",
"539 992 OFFCURVE",
"617 996 OFFCURVE",
"659 996 QCURVE SMOOTH",
"729 996 OFFCURVE",
"833 974 OFFCURVE",
"901 912 OFFCURVE",
"934 801 OFFCURVE",
"934 713 QCURVE SMOOTH",
"934 624 OFFCURVE",
"894 512 OFFCURVE",
"817 449 OFFCURVE",
"707 425 OFFCURVE",
"637 425 QCURVE SMOOTH",
"556 425 OFFCURVE",
"442 438 OFFCURVE",
"422 442 QCURVE",
"422 982 LINE"
);
}
);
userData = {
assembly = "PUSHB[ ]	/* 1 value pushed */\01244 \012MDAP[1]	/* MoveDirectAbsPt */\012PUSHB[ ]	/* 1 value pushed */\01233 \012MDAP[1]	/* MoveDirectAbsPt */\012PUSHB[ ]	/* 1 value pushed */\01244 \012SRP0[ ]	/* SetRefPoint0 */\012PUSHB[ ]	/* 1 value pushed */\0120 \012MDRP[10000]	/* MoveDirectRelPt */\012PUSHB[ ]	/* 1 value pushed */\0120 \012MDAP[1]	/* MoveDirectAbsPt */\012PUSHB[ ]	/* 2 values pushed */\0121 12 \012MIRP[10100]	/* MoveIndirectRelPt */\012NPUSHB[ ]	/* 11 values pushed */\0129 33 25 33 41 33 57 33 73 33 5 \012DELTAP1[ ]	/* DeltaExceptionP1 */\012PUSHB[ ]	/* 1 value pushed */\01233 \012SRP0[ ]	/* SetRefPoint0 */\012PUSHB[ ]	/* 2 values pushed */\01212 12 \012MIRP[10100]	/* MoveIndirectRelPt */\012PUSHB[ ]	/* 1 value pushed */\0121 \012SRP0[ ]	/* SetRefPoint0 */\012PUSHB[ ]	/* 1 value pushed */\01222 \012MDRP[10000]	/* MoveDirectRelPt */\012PUSHB[ ]	/* 1 value pushed */\0121 \012SRP0[ ]	/* SetRefPoint0 */\012PUSHB[ ]	/* 1 value pushed */\01225 \012MDRP[10000]	/* MoveDirectRelPt */\012PUSHB[ ]	/* 1 value pushed */\01212 \012SRP0[ ]	/* SetRefPoint0 */\012PUSHB[ ]	/* 1 value pushed */\01245 \012MDRP[11100]	/* MoveDirectRelPt */\012SVTCA[0]	/* SetFreedomAndProjectionVectorToAxis */\012PUSHB[ ]	/* 1 value pushed */\0120 \012RCVT[ ]	/* ReadCVT */\012IF[ ]	/* If */\012PUSHB[ ]	/* 1 value pushed */\0120 \012MDAP[1]	/* MoveDirectAbsPt */\012ELSE[ ]	/* Else */\012PUSHB[ ]	/* 2 values pushed */\0120 23 \012MIAP[0]	/* MoveIndirectAbsPt */\012EIF[ ]	/* EndIf */\012PUSHB[ ]	/* 1 value pushed */\0120 \012RCVT[ ]	/* ReadCVT */\012IF[ ]	/* If */\012PUSHB[ ]	/* 1 value pushed */\01223 \012MDAP[1]	/* MoveDirectAbsPt */\012ELSE[ ]	/* Else */\012PUSHB[ ]	/* 2 values pushed */\01223 17 \012MIAP[0]	/* MoveIndirectAbsPt */\012EIF[ ]	/* EndIf */\012PUSHB[ ]	/* 4 values pushed */\01228 5 17 4 \012CALL[ ]	/* CallFunction */\012PUSHB[ ]	/* 4 values pushed */\0127 5 38 4 \012CALL[ ]	/* CallFunction */\012PUSHB[ ]	/* 3 values pushed */\0122 38 7 \012SRP1[ ]	/* SetRefPoint1 */\012SRP2[ ]	/* SetRefPoint2 */\012IP[ ]	/* InterpolatePts */\012PUSHB[ ]	/* 3 values pushed */\01222 17 28 \012SRP1[ ]	/* SetRefPoint1 */\012SRP2[ ]	/* SetRefPoint2 */\012IP[ ]	/* InterpolatePts */\012PUSHB[ ]	/* 1 value pushed */\01238 \012SRP0[ ]	/* SetRefPoint0 */\012PUSHB[ ]	/* 1 value pushed */\01243 \012MDRP[10000]	/* MoveDirectRelPt */\012PUSHB[ ]	/* 1 value pushed */\01243 \012MDAP[1]	/* MoveDirectAbsPt */\012IUP[0]	/* InterpolateUntPts */\012IUP[1]	/* InterpolateUntPts */";
};
width = 1228;
}
);
note = Thorn;
unicode = 00DE;
},
{
glyphname = Q;
layers = (
{
layerId = "410E5E1C-5FD0-457E-A79B-7BF13808BDAC";
paths = (
{
closed = 1;
nodes = (
"896 -15 OFFCURVE",
"951 2 QCURVE",
"1034 -115 LINE",
"1252 -115 LINE",
"1106 90 LINE",
"1149 130 OFFCURVE",
"1217 242 OFFCURVE",
"1262 394 OFFCURVE",
"1286 588 OFFCURVE",
"1286 709 QCURVE SMOOTH",
"1286 858 OFFCURVE",
"1250 1085 OFFCURVE",
"1181 1251 OFFCURVE",
"1081 1362 OFFCURVE",
"951 1428 OFFCURVE",
"793 1456 OFFCURVE",
"702 1456 QCURVE SMOOTH",
"565 1456 OFFCURVE",
"347 1391 OFFCURVE",
"195 1224 OFFCURVE",
"115 934 OFFCURVE",
"115 709 QCURVE SMOOTH",
"115 559 OFFCURVE",
"151 333 OFFCURVE",
"221 168 OFFCURVE",
"322 60 OFFCURVE",
"452 -5 OFFCURVE",
"610 -31 OFFCURVE",
"702 -31 QCURVE SMOOTH",
"772 -31 OFFCURVE"
);
},
{
closed = 1;
nodes = (
"474 236 OFFCURVE",
"398 353 OFFCURVE",
"367 554 OFFCURVE",
"367 709 QCURVE SMOOTH",
"367 865 OFFCURVE",
"398 1067 OFFCURVE",
"474 1186 OFFCURVE",
"604 1233 OFFCURVE",
"702 1233 QCURVE SMOOTH",
"800 1233 OFFCURVE",
"929 1186 OFFCURVE",
"1005 1067 OFFCURVE",
"1036 865 OFFCURVE",
"1036 709 QCURVE SMOOTH",
"1036 548 OFFCURVE",
"1003 344 OFFCURVE",
"961 286 QCURVE",
"862 430 LINE",
"647 430 LINE",
"809 198 LINE",
"786 194 OFFCURVE",
"732 190 OFFCURVE",
"702 190 QCURVE SMOOTH",
"604 190 OFFCURVE"
);
}
);
userData = {
assembly = "PUSHB[ ]	/* 1 value pushed */\01254 \012MDAP[1]	/* MoveDirectAbsPt */\012PUSHB[ ]	/* 1 value pushed */\01239 \012MDAP[1]	/* MoveDirectAbsPt */\012PUSHB[ ]	/* 1 value pushed */\01254 \012SRP0[ ]	/* SetRefPoint0 */\012PUSHB[ ]	/* 1 value pushed */\0127 \012MDRP[10000]	/* MoveDirectRelPt */\012PUSHB[ ]	/* 1 value pushed */\0127 \012MDAP[1]	/* MoveDirectAbsPt */\012NPUSHB[ ]	/* 11 values pushed */\0129 39 25 39 41 39 57 39 73 39 5 \012DELTAP1[ ]	/* DeltaExceptionP1 */\012PUSHB[ ]	/* 1 value pushed */\01239 \012SRP0[ ]	/* SetRefPoint0 */\012PUSHB[ ]	/* 2 values pushed */\01219 11 \012MIRP[10100]	/* MoveIndirectRelPt */\012PUSHB[ ]	/* 3 values pushed */\01225 39 19 \012SRP1[ ]	/* SetRefPoint1 */\012SRP2[ ]	/* SetRefPoint2 */\012IP[ ]	/* InterpolatePts */\012PUSHB[ ]	/* 1 value pushed */\01239 \012SRP0[ ]	/* SetRefPoint0 */\012PUSHB[ ]	/* 1 value pushed */\01226 \012MDRP[10000]	/* MoveDirectRelPt */\012PUSHB[ ]	/* 1 value pushed */\01226 \012MDAP[1]	/* MoveDirectAbsPt */\012PUSHB[ ]	/* 3 values pushed */\01233 7 19 \012SRP1[ ]	/* SetRefPoint1 */\012SRP2[ ]	/* SetRefPoint2 */\012IP[ ]	/* InterpolatePts */\012PUSHB[ ]	/* 3 values pushed */\01234 7 19 \012SRP1[ ]	/* SetRefPoint1 */\012SRP2[ ]	/* SetRefPoint2 */\012IP[ ]	/* InterpolatePts */\012PUSHB[ ]	/* 3 values pushed */\01236 7 19 \012SRP1[ ]	/* SetRefPoint1 */\012SRP2[ ]	/* SetRefPoint2 */\012IP[ ]	/* InterpolatePts */\012PUSHB[ ]	/* 1 value pushed */\0127 \012SRP0[ ]	/* SetRefPoint0 */\012PUSHB[ ]	/* 2 values pushed */\01249 11 \012MIRP[10100]	/* MoveIndirectRelPt */\012NPUSHB[ ]	/* 11 values pushed */\0126 49 22 49 38 49 54 49 70 49 5 \012DELTAP1[ ]	/* DeltaExceptionP1 */\012PUSHB[ ]	/* 1 value pushed */\01219 \012SRP0[ ]	/* SetRefPoint0 */\012PUSHB[ ]	/* 1 value pushed */\01255 \012MDRP[11100]	/* MoveDirectRelPt */\012SVTCA[0]	/* SetFreedomAndProjectionVectorToAxis */\012PUSHB[ ]	/* 1 value pushed */\0120 \012RCVT[ ]	/* ReadCVT */\012IF[ ]	/* If */\012PUSHB[ ]	/* 1 value pushed */\01212 \012MDAP[1]	/* MoveDirectAbsPt */\012ELSE[ ]	/* Else */\012PUSHB[ ]	/* 2 values pushed */\01212 23 \012MIAP[0]	/* MoveIndirectAbsPt */\012EIF[ ]	/* EndIf */\012PUSHB[ ]	/* 1 value pushed */\0120 \012RCVT[ ]	/* ReadCVT */\012IF[ ]	/* If */\012PUSHB[ ]	/* 1 value pushed */\0120 \012MDAP[1]	/* MoveDirectAbsPt */\012ELSE[ ]	/* Else */\012PUSHB[ ]	/* 2 values pushed */\0120 17 \012MIAP[0]	/* MoveIndirectAbsPt */\012EIF[ ]	/* EndIf */\012PUSHB[ ]	/* 2 values pushed */\01230 3 \012MIRP[10100]	/* MoveIndirectRelPt */\012NPUSHB[ ]	/* 11 values pushed */\0127 30 23 30 39 30 55 30 71 30 5 \012DELTAP1[ ]	/* DeltaExceptionP1 */\012PUSHB[ ]	/* 1 value pushed */\01233 \012MDRP[10000]	/* MoveDirectRelPt */\012PUSHB[ ]	/* 1 value pushed */\01233 \012MDAP[1]	/* MoveDirectAbsPt */\012PUSHB[ ]	/* 3 values pushed */\01236 0 12 \012SRP1[ ]	/* SetRefPoint1 */\012SRP2[ ]	/* SetRefPoint2 */\012IP[ ]	/* InterpolatePts */\012PUSHB[ ]	/* 1 value pushed */\01212 \012SRP0[ ]	/* SetRefPoint0 */\012PUSHB[ ]	/* 2 values pushed */\01244 3 \012MIRP[10100]	/* MoveIndirectRelPt */\012NPUSHB[ ]	/* 11 values pushed */\0128 44 24 44 40 44 56 44 72 44 5 \012DELTAP1[ ]	/* DeltaExceptionP1 */\012IUP[0]	/* InterpolateUntPts */\012IUP[1]	/* InterpolateUntPts */";
};
width = 1403;
}
);
note = Q;
unicode = 0051;
},
{
glyphname = R;
layers = (
{
layerId = "410E5E1C-5FD0-457E-A79B-7BF13808BDAC";
paths = (
{
closed = 1;
nodes = (
"422 0 LINE",
"422 524 LINE",
"659 524 LINE",
"926 0 LINE",
"1200 0 LINE",
"899 578 LINE",
"899 580 LINE",
"968 599 OFFCURVE",
"1023 647 QCURVE SMOOTH",
"1046 668 OFFCURVE",
"1091 726 OFFCURVE",
"1126 804 OFFCURVE",
"1147 905 OFFCURVE",
"1147 969 QCURVE SMOOTH",
"1147 1065 OFFCURVE",
"1115 1207 OFFCURVE",
"1056 1309 OFFCURVE",
"976 1374 OFFCURVE",
"879 1412 OFFCURVE",
"770 1427 OFFCURVE",
"713 1427 QCURVE SMOOTH",
"182 1427 LINE",
"182 0 LINE"
);
},
{
closed = 1;
nodes = (
"422 1204 LINE",
"705 1204 LINE SMOOTH",
"749 1204 OFFCURVE",
"821 1181 OFFCURVE",
"872 1129 OFFCURVE",
"899 1044 OFFCURVE",
"899 983 QCURVE SMOOTH",
"899 750 OFFCURVE",
"711 750 QCURVE SMOOTH",
"422 750 LINE"
);
}
);
userData = {
assembly = "PUSHB[ ]	/* 1 value pushed */\01233 \012MDAP[1]	/* MoveDirectAbsPt */\012PUSHB[ ]	/* 1 value pushed */\01225 \012MDAP[1]	/* MoveDirectAbsPt */\012PUSHB[ ]	/* 1 value pushed */\01233 \012SRP0[ ]	/* SetRefPoint0 */\012PUSHB[ ]	/* 1 value pushed */\0120 \012MDRP[10000]	/* MoveDirectRelPt */\012PUSHB[ ]	/* 1 value pushed */\0120 \012MDAP[1]	/* MoveDirectAbsPt */\012NPUSHB[ ]	/* 11 values pushed */\0129 25 25 25 41 25 57 25 73 25 5 \012DELTAP1[ ]	/* DeltaExceptionP1 */\012PUSHB[ ]	/* 1 value pushed */\01225 \012SRP0[ ]	/* SetRefPoint0 */\012PUSHB[ ]	/* 2 values pushed */\0128 12 \012MIRP[10100]	/* MoveIndirectRelPt */\012PUSHB[ ]	/* 1 value pushed */\01225 \012SRP0[ ]	/* SetRefPoint0 */\012PUSHB[ ]	/* 1 value pushed */\01215 \012MDRP[10000]	/* MoveDirectRelPt */\012PUSHB[ ]	/* 1 value pushed */\0120 \012SRP0[ ]	/* SetRefPoint0 */\012PUSHB[ ]	/* 2 values pushed */\01231 12 \012MIRP[10100]	/* MoveIndirectRelPt */\012PUSHB[ ]	/* 1 value pushed */\01220 \012MDRP[10000]	/* MoveDirectRelPt */\012PUSHB[ ]	/* 1 value pushed */\0128 \012SRP0[ ]	/* SetRefPoint0 */\012PUSHB[ ]	/* 1 value pushed */\01234 \012MDRP[11100]	/* MoveDirectRelPt */\012SVTCA[0]	/* SetFreedomAndProjectionVectorToAxis */\012PUSHB[ ]	/* 1 value pushed */\0120 \012RCVT[ ]	/* ReadCVT */\012IF[ ]	/* If */\012PUSHB[ ]	/* 1 value pushed */\0120 \012MDAP[1]	/* MoveDirectAbsPt */\012ELSE[ ]	/* Else */\012PUSHB[ ]	/* 2 values pushed */\0120 23 \012MIAP[0]	/* MoveIndirectAbsPt */\012EIF[ ]	/* EndIf */\012PUSHB[ ]	/* 1 value pushed */\0120 \012RCVT[ ]	/* ReadCVT */\012IF[ ]	/* If */\012PUSHB[ ]	/* 1 value pushed */\01217 \012MDAP[1]	/* MoveDirectAbsPt */\012ELSE[ ]	/* Else */\012PUSHB[ ]	/* 2 values pushed */\01217 17 \012MIAP[0]	/* MoveIndirectAbsPt */\012EIF[ ]	/* EndIf */\012PUSHB[ ]	/* 1 value pushed */\0120 \012RCVT[ ]	/* ReadCVT */\012IF[ ]	/* If */\012PUSHB[ ]	/* 1 value pushed */\01221 \012MDAP[1]	/* MoveDirectAbsPt */\012ELSE[ ]	/* Else */\012PUSHB[ ]	/* 2 values pushed */\01221 17 \012MIAP[0]	/* MoveIndirectAbsPt */\012EIF[ ]	/* EndIf */\012PUSHB[ ]	/* 4 values pushed */\01223 3 19 4 \012CALL[ ]	/* CallFunction */\012PUSHB[ ]	/* 1 value pushed */\0120 \012SRP0[ ]	/* SetRefPoint0 */\012PUSHB[ ]	/* 2 values pushed */\01230 3 \012MIRP[10100]	/* MoveIndirectRelPt */\012IUP[0]	/* InterpolateUntPts */\012IUP[1]	/* InterpolateUntPts */";
};
width = 1285;
}
);
note = R;
unicode = 0052;
},
{
glyphname = S;
layers = (
{
layerId = "410E5E1C-5FD0-457E-A79B-7BF13808BDAC";
paths = (
{
closed = 1;
nodes = (
"152 18 OFFCURVE",
"207 3 QCURVE SMOOTH",
"255 -10 OFFCURVE",
"408 -31 OFFCURVE",
"524 -31 QCURVE SMOOTH",
"674 -31 OFFCURVE",
"863 18 OFFCURVE",
"971 121 OFFCURVE",
"1010 284 OFFCURVE",
"1010 398 QCURVE SMOOTH",
"1010 471 OFFCURVE",
"998 583 OFFCURVE",
"972 666 OFFCURVE",
"929 726 OFFCURVE",
"869 771 OFFCURVE",
"788 804 OFFCURVE",
"736 819 QCURVE SMOOTH",
"465 897 LINE SMOOTH",
"425 909 OFFCURVE",
"378 937 OFFCURVE",
"353 975 OFFCURVE",
"346 1025 OFFCURVE",
"346 1057 QCURVE SMOOTH",
"346 1115 OFFCURVE",
"372 1185 OFFCURVE",
"438 1223 OFFCURVE",
"552 1235 OFFCURVE",
"641 1235 QCURVE SMOOTH",
"698 1235 OFFCURVE",
"805 1228 OFFCURVE",
"848 1223 QCURVE SMOOTH",
"898 1218 OFFCURVE",
"943 1212 QCURVE",
"943 1397 LINE",
"894 1413 OFFCURVE",
"834 1426 QCURVE SMOOTH",
"783 1437 OFFCURVE",
"642 1456 OFFCURVE",
"557 1456 QCURVE SMOOTH",
"455 1456 OFFCURVE",
"289 1408 OFFCURVE",
"172 1308 OFFCURVE",
"108 1153 OFFCURVE",
"108 1047 QCURVE SMOOTH",
"108 957 OFFCURVE",
"135 824 OFFCURVE",
"194 730 OFFCURVE",
"290 669 OFFCURVE",
"359 651 QCURVE SMOOTH",
"650 575 LINE SMOOTH",
"692 564 OFFCURVE",
"740 529 OFFCURVE",
"766 481 OFFCURVE",
"773 420 OFFCURVE",
"773 383 QCURVE SMOOTH",
"773 336 OFFCURVE",
"756 264 OFFCURVE",
"696 215 OFFCURVE",
"582 190 OFFCURVE",
"485 190 QCURVE SMOOTH",
"412 190 OFFCURVE",
"281 196 OFFCURVE",
"230 201 QCURVE SMOOTH",
"171 206 OFFCURVE",
"120 213 QCURVE",
"120 37 LINE"
);
}
);
userData = {
assembly = "PUSHB[ ]	/* 1 value pushed */\01266 \012MDAP[1]	/* MoveDirectAbsPt */\012PUSHB[ ]	/* 1 value pushed */\01210 \012MDAP[1]	/* MoveDirectAbsPt */\012PUSHB[ ]	/* 1 value pushed */\01266 \012SRP0[ ]	/* SetRefPoint0 */\012PUSHB[ ]	/* 1 value pushed */\01221 \012MDRP[10000]	/* MoveDirectRelPt */\012PUSHB[ ]	/* 1 value pushed */\01221 \012MDAP[1]	/* MoveDirectAbsPt */\012PUSHB[ ]	/* 1 value pushed */\0120 \012MDRP[10000]	/* MoveDirectRelPt */\012PUSHB[ ]	/* 1 value pushed */\0120 \012MDAP[1]	/* MoveDirectAbsPt */\012NPUSHB[ ]	/* 11 values pushed */\0129 10 25 10 41 10 57 10 73 10 5 \012DELTAP1[ ]	/* DeltaExceptionP1 */\012PUSHB[ ]	/* 1 value pushed */\01221 \012SRP0[ ]	/* SetRefPoint0 */\012PUSHB[ ]	/* 2 values pushed */\01242 13 \012MIRP[10100]	/* MoveIndirectRelPt */\012PUSHB[ ]	/* 7 values pushed */\0126 42 22 42 38 42 3 \012DELTAP1[ ]	/* DeltaExceptionP1 */\012PUSHB[ ]	/* 5 values pushed */\01254 42 70 42 2 \012DELTAP1[ ]	/* DeltaExceptionP1 */\012PUSHB[ ]	/* 1 value pushed */\01216 \012MDRP[10000]	/* MoveDirectRelPt */\012PUSHB[ ]	/* 1 value pushed */\01216 \012MDAP[1]	/* MoveDirectAbsPt */\012PUSHB[ ]	/* 1 value pushed */\01210 \012SRP0[ ]	/* SetRefPoint0 */\012PUSHB[ ]	/* 2 values pushed */\01255 13 \012MIRP[10100]	/* MoveIndirectRelPt */\012PUSHB[ ]	/* 1 value pushed */\01267 \012MDRP[11100]	/* MoveDirectRelPt */\012SVTCA[0]	/* SetFreedomAndProjectionVectorToAxis */\012PUSHB[ ]	/* 1 value pushed */\0120 \012RCVT[ ]	/* ReadCVT */\012IF[ ]	/* If */\012PUSHB[ ]	/* 1 value pushed */\01226 \012MDAP[1]	/* MoveDirectAbsPt */\012ELSE[ ]	/* Else */\012PUSHB[ ]	/* 2 values pushed */\01226 23 \012MIAP[0]	/* MoveIndirectAbsPt */\012EIF[ ]	/* EndIf */\012PUSHB[ ]	/* 1 value pushed */\0120 \012RCVT[ ]	/* ReadCVT */\012IF[ ]	/* If */\012PUSHB[ ]	/* 1 value pushed */\01260 \012MDAP[1]	/* MoveDirectAbsPt */\012ELSE[ ]	/* Else */\012PUSHB[ ]	/* 2 values pushed */\01260 17 \012MIAP[0]	/* MoveIndirectAbsPt */\012EIF[ ]	/* EndIf */\012PUSHB[ ]	/* 2 values pushed */\0122 3 \012MIRP[10100]	/* MoveIndirectRelPt */\012NPUSHB[ ]	/* 11 values pushed */\0127 2 23 2 39 2 55 2 71 2 5 \012DELTAP1[ ]	/* DeltaExceptionP1 */\012PUSHB[ ]	/* 1 value pushed */\0125 \012MDRP[10000]	/* MoveDirectRelPt */\012PUSHB[ ]	/* 1 value pushed */\01226 \012SRP0[ ]	/* SetRefPoint0 */\012PUSHB[ ]	/* 2 values pushed */\01234 3 \012MIRP[10100]	/* MoveIndirectRelPt */\012NPUSHB[ ]	/* 11 values pushed */\0128 34 24 34 40 34 56 34 72 34 5 \012DELTAP1[ ]	/* DeltaExceptionP1 */\012PUSHB[ ]	/* 1 value pushed */\01237 \012MDRP[10000]	/* MoveDirectRelPt */\012IUP[0]	/* InterpolateUntPts */\012IUP[1]	/* InterpolateUntPts */";
};
width = 1110;
}
);
note = S;
unicode = 0053;
},
{
glyphname = T;
layers = (
{
layerId = "410E5E1C-5FD0-457E-A79B-7BF13808BDAC";
paths = (
{
closed = 1;
nodes = (
"678 0 LINE",
"678 1206 LINE",
"1110 1206 LINE",
"1110 1427 LINE",
"12 1427 LINE",
"12 1206 LINE",
"440 1206 LINE",
"440 0 LINE"
);
}
);
userData = {
assembly = "PUSHB[ ]	/* 4 values pushed */\0125 13 0 4 \012CALL[ ]	/* CallFunction */\012SVTCA[0]	/* SetFreedomAndProjectionVectorToAxis */\012PUSHB[ ]	/* 1 value pushed */\0120 \012RCVT[ ]	/* ReadCVT */\012IF[ ]	/* If */\012PUSHB[ ]	/* 1 value pushed */\0122 \012MDAP[1]	/* MoveDirectAbsPt */\012ELSE[ ]	/* Else */\012PUSHB[ ]	/* 2 values pushed */\0122 23 \012MIAP[0]	/* MoveIndirectAbsPt */\012EIF[ ]	/* EndIf */\012PUSHB[ ]	/* 1 value pushed */\0120 \012RCVT[ ]	/* ReadCVT */\012IF[ ]	/* If */\012PUSHB[ ]	/* 1 value pushed */\0126 \012MDAP[1]	/* MoveDirectAbsPt */\012ELSE[ ]	/* Else */\012PUSHB[ ]	/* 2 values pushed */\0126 17 \012MIAP[0]	/* MoveIndirectAbsPt */\012EIF[ ]	/* EndIf */\012PUSHB[ ]	/* 1 value pushed */\0122 \012SRP0[ ]	/* SetRefPoint0 */\012PUSHB[ ]	/* 2 values pushed */\0120 3 \012MIRP[10100]	/* MoveIndirectRelPt */\012PUSHB[ ]	/* 1 value pushed */\0124 \012MDRP[10000]	/* MoveDirectRelPt */\012PUSHB[ ]	/* 1 value pushed */\0125 \012MDRP[10000]	/* MoveDirectRelPt */\012IUP[0]	/* InterpolateUntPts */\012IUP[1]	/* InterpolateUntPts */";
};
width = 1122;
}
);
note = T;
unicode = 0054;
},
{
glyphname = Tbar;
layers = (
{
layerId = "410E5E1C-5FD0-457E-A79B-7BF13808BDAC";
paths = (
{
closed = 1;
nodes = (
"707 0 LINE",
"707 603 LINE",
"996 603 LINE",
"996 797 LINE",
"707 797 LINE",
"707 1206 LINE",
"1139 1206 LINE",
"1139 1427 LINE",
"41 1427 LINE",
"41 1206 LINE",
"469 1206 LINE",
"469 797 LINE",
"185 797 LINE",
"185 603 LINE",
"469 603 LINE",
"469 0 LINE"
);
}
);
userData = {
assembly = "PUSHB[ ]	/* 3 values pushed */\01212 1 3 \012CALL[ ]	/* CallFunction */\012PUSHB[ ]	/* 3 values pushed */\0120 1 12 \012SRP1[ ]	/* SetRefPoint1 */\012SRP2[ ]	/* SetRefPoint2 */\012IP[ ]	/* InterpolatePts */\012PUSHB[ ]	/* 1 value pushed */\0120 \012MDAP[1]	/* MoveDirectAbsPt */\012PUSHB[ ]	/* 1 value pushed */\0123 \012MDRP[10000]	/* MoveDirectRelPt */\012PUSHB[ ]	/* 1 value pushed */\0120 \012SRP0[ ]	/* SetRefPoint0 */\012PUSHB[ ]	/* 2 values pushed */\01213 13 \012MIRP[10100]	/* MoveIndirectRelPt */\012PUSHB[ ]	/* 1 value pushed */\0129 \012MDRP[10000]	/* MoveDirectRelPt */\012PUSHB[ ]	/* 1 value pushed */\01212 \012SRP0[ ]	/* SetRefPoint0 */\012PUSHB[ ]	/* 1 value pushed */\01217 \012MDRP[11100]	/* MoveDirectRelPt */\012SVTCA[0]	/* SetFreedomAndProjectionVectorToAxis */\012PUSHB[ ]	/* 1 value pushed */\0120 \012RCVT[ ]	/* ReadCVT */\012IF[ ]	/* If */\012PUSHB[ ]	/* 1 value pushed */\0126 \012MDAP[1]	/* MoveDirectAbsPt */\012ELSE[ ]	/* Else */\012PUSHB[ ]	/* 2 values pushed */\0126 23 \012MIAP[0]	/* MoveIndirectAbsPt */\012EIF[ ]	/* EndIf */\012PUSHB[ ]	/* 1 value pushed */\0120 \012RCVT[ ]	/* ReadCVT */\012IF[ ]	/* If */\012PUSHB[ ]	/* 1 value pushed */\01214 \012MDAP[1]	/* MoveDirectAbsPt */\012ELSE[ ]	/* Else */\012PUSHB[ ]	/* 2 values pushed */\01214 17 \012MIAP[0]	/* MoveIndirectAbsPt */\012EIF[ ]	/* EndIf */\012PUSHB[ ]	/* 4 values pushed */\0123 8 0 4 \012CALL[ ]	/* CallFunction */\012PUSHB[ ]	/* 1 value pushed */\0126 \012SRP0[ ]	/* SetRefPoint0 */\012PUSHB[ ]	/* 2 values pushed */\0124 3 \012MIRP[10100]	/* MoveIndirectRelPt */\012PUSHB[ ]	/* 1 value pushed */\0128 \012MDRP[10000]	/* MoveDirectRelPt */\012PUSHB[ ]	/* 1 value pushed */\0129 \012MDRP[10000]	/* MoveDirectRelPt */\012PUSHB[ ]	/* 1 value pushed */\0123 \012SRP0[ ]	/* SetRefPoint0 */\012PUSHB[ ]	/* 1 value pushed */\01210 \012MDRP[10000]	/* MoveDirectRelPt */\012PUSHB[ ]	/* 1 value pushed */\0120 \012SRP0[ ]	/* SetRefPoint0 */\012PUSHB[ ]	/* 1 value pushed */\01212 \012MDRP[10000]	/* MoveDirectRelPt */\012IUP[0]	/* InterpolateUntPts */\012IUP[1]	/* InterpolateUntPts */";
};
width = 1180;
}
);
note = Tbar;
unicode = 0166;
},
{
glyphname = U;
layers = (
{
layerId = "410E5E1C-5FD0-457E-A79B-7BF13808BDAC";
paths = (
{
closed = 1;
nodes = (
"177 331 OFFCURVE",
"235 148 OFFCURVE",
"362 28 OFFCURVE",
"562 -31 OFFCURVE",
"704 -31 QCURVE SMOOTH",
"846 -31 OFFCURVE",
"1045 29 OFFCURVE",
"1171 150 OFFCURVE",
"1228 334 OFFCURVE",
"1228 459 QCURVE SMOOTH",
"1228 1427 LINE",
"990 1427 LINE",
"990 473 LINE SMOOTH",
"990 388 OFFCURVE",
"955 278 OFFCURVE",
"883 215 OFFCURVE",
"776 190 OFFCURVE",
"704 190 QCURVE SMOOTH",
"624 190 OFFCURVE",
"514 215 OFFCURVE",
"445 278 OFFCURVE",
"415 388 OFFCURVE",
"415 473 QCURVE SMOOTH",
"415 1427 LINE",
"177 1427 LINE",
"177 455 LINE SMOOTH"
);
}
);
userData = {
assembly = "PUSHB[ ]	/* 1 value pushed */\01226 \012MDAP[1]	/* MoveDirectAbsPt */\012PUSHB[ ]	/* 1 value pushed */\01212 \012MDAP[1]	/* MoveDirectAbsPt */\012PUSHB[ ]	/* 1 value pushed */\01226 \012SRP0[ ]	/* SetRefPoint0 */\012PUSHB[ ]	/* 1 value pushed */\0120 \012MDRP[10000]	/* MoveDirectRelPt */\012PUSHB[ ]	/* 1 value pushed */\0120 \012MDAP[1]	/* MoveDirectAbsPt */\012PUSHB[ ]	/* 2 values pushed */\0121 13 \012MIRP[10100]	/* MoveIndirectRelPt */\012PUSHB[ ]	/* 1 value pushed */\01212 \012SRP0[ ]	/* SetRefPoint0 */\012PUSHB[ ]	/* 2 values pushed */\01215 13 \012MIRP[10100]	/* MoveIndirectRelPt */\012PUSHB[ ]	/* 1 value pushed */\01227 \012MDRP[11100]	/* MoveDirectRelPt */\012SVTCA[0]	/* SetFreedomAndProjectionVectorToAxis */\012PUSHB[ ]	/* 1 value pushed */\0120 \012RCVT[ ]	/* ReadCVT */\012IF[ ]	/* If */\012PUSHB[ ]	/* 1 value pushed */\0120 \012MDAP[1]	/* MoveDirectAbsPt */\012ELSE[ ]	/* Else */\012PUSHB[ ]	/* 2 values pushed */\0120 23 \012MIAP[0]	/* MoveIndirectAbsPt */\012EIF[ ]	/* EndIf */\012PUSHB[ ]	/* 1 value pushed */\0120 \012RCVT[ ]	/* ReadCVT */\012IF[ ]	/* If */\012PUSHB[ ]	/* 1 value pushed */\01213 \012MDAP[1]	/* MoveDirectAbsPt */\012ELSE[ ]	/* Else */\012PUSHB[ ]	/* 2 values pushed */\01213 23 \012MIAP[0]	/* MoveIndirectAbsPt */\012EIF[ ]	/* EndIf */\012PUSHB[ ]	/* 1 value pushed */\0120 \012RCVT[ ]	/* ReadCVT */\012IF[ ]	/* If */\012PUSHB[ ]	/* 1 value pushed */\01220 \012MDAP[1]	/* MoveDirectAbsPt */\012ELSE[ ]	/* Else */\012PUSHB[ ]	/* 2 values pushed */\01220 17 \012MIAP[0]	/* MoveIndirectAbsPt */\012EIF[ ]	/* EndIf */\012PUSHB[ ]	/* 2 values pushed */\0127 3 \012MIRP[10100]	/* MoveIndirectRelPt */\012NPUSHB[ ]	/* 11 values pushed */\0127 7 23 7 39 7 55 7 71 7 5 \012DELTAP1[ ]	/* DeltaExceptionP1 */\012IUP[0]	/* InterpolateUntPts */\012IUP[1]	/* InterpolateUntPts */";
};
width = 1405;
}
);
note = U;
unicode = 0055;
},
{
glyphname = Uogonek;
layers = (
{
layerId = "410E5E1C-5FD0-457E-A79B-7BF13808BDAC";
paths = (
{
closed = 1;
nodes = (
"177 336 OFFCURVE",
"230 158 OFFCURVE",
"346 38 OFFCURVE",
"529 -26 OFFCURVE",
"659 -30 QCURVE",
"639 -54 OFFCURVE",
"601 -109 OFFCURVE",
"572 -172 OFFCURVE",
"554 -241 OFFCURVE",
"554 -279 QCURVE SMOOTH",
"554 -334 OFFCURVE",
"593 -417 OFFCURVE",
"661 -472 OFFCURVE",
"753 -500 OFFCURVE",
"806 -500 QCURVE SMOOTH",
"835 -500 OFFCURVE",
"884 -494 OFFCURVE",
"904 -490 QCURVE SMOOTH",
"926 -486 OFFCURVE",
"946 -479 QCURVE",
"946 -311 LINE",
"936 -313 OFFCURVE",
"925 -314 QCURVE SMOOTH",
"905 -317 OFFCURVE",
"876 -317 QCURVE SMOOTH",
"825 -317 OFFCURVE",
"776 -267 OFFCURVE",
"776 -225 QCURVE SMOOTH",
"776 -175 OFFCURVE",
"854 -60 OFFCURVE",
"947 0 QCURVE",
"1096 45 OFFCURVE",
"1228 273 OFFCURVE",
"1228 459 QCURVE SMOOTH",
"1228 1427 LINE",
"990 1427 LINE",
"990 473 LINE SMOOTH",
"990 388 OFFCURVE",
"955 278 OFFCURVE",
"883 215 OFFCURVE",
"776 190 OFFCURVE",
"704 190 QCURVE SMOOTH",
"624 190 OFFCURVE",
"514 215 OFFCURVE",
"445 278 OFFCURVE",
"415 388 OFFCURVE",
"415 473 QCURVE SMOOTH",
"415 1427 LINE",
"177 1427 LINE",
"177 455 LINE SMOOTH"
);
}
);
userData = {
assembly = "PUSHB[ ]	/* 4 values pushed */\0121 13 0 4 \012CALL[ ]	/* CallFunction */\012PUSHB[ ]	/* 4 values pushed */\01215 13 12 4 \012CALL[ ]	/* CallFunction */\012PUSHB[ ]	/* 4 values pushed */\01221 10 39 4 \012CALL[ ]	/* CallFunction */\012NPUSHB[ ]	/* 11 values pushed */\0126 21 22 21 38 21 54 21 70 21 5 \012DELTAP1[ ]	/* DeltaExceptionP1 */\012PUSHB[ ]	/* 3 values pushed */\01244 39 21 \012SRP1[ ]	/* SetRefPoint1 */\012SRP2[ ]	/* SetRefPoint2 */\012IP[ ]	/* InterpolatePts */\012PUSHB[ ]	/* 1 value pushed */\01215 \012SRP0[ ]	/* SetRefPoint0 */\012PUSHB[ ]	/* 1 value pushed */\01251 \012MDRP[11100]	/* MoveDirectRelPt */\012SVTCA[0]	/* SetFreedomAndProjectionVectorToAxis */\012PUSHB[ ]	/* 1 value pushed */\0120 \012RCVT[ ]	/* ReadCVT */\012IF[ ]	/* If */\012PUSHB[ ]	/* 1 value pushed */\0120 \012MDAP[1]	/* MoveDirectAbsPt */\012ELSE[ ]	/* Else */\012PUSHB[ ]	/* 2 values pushed */\0120 23 \012MIAP[0]	/* MoveIndirectAbsPt */\012EIF[ ]	/* EndIf */\012PUSHB[ ]	/* 1 value pushed */\0120 \012RCVT[ ]	/* ReadCVT */\012IF[ ]	/* If */\012PUSHB[ ]	/* 1 value pushed */\01213 \012MDAP[1]	/* MoveDirectAbsPt */\012ELSE[ ]	/* Else */\012PUSHB[ ]	/* 2 values pushed */\01213 23 \012MIAP[0]	/* MoveIndirectAbsPt */\012EIF[ ]	/* EndIf */\012PUSHB[ ]	/* 1 value pushed */\0120 \012RCVT[ ]	/* ReadCVT */\012IF[ ]	/* If */\012PUSHB[ ]	/* 1 value pushed */\01218 \012MDAP[1]	/* MoveDirectAbsPt */\012ELSE[ ]	/* Else */\012PUSHB[ ]	/* 2 values pushed */\01218 17 \012MIAP[0]	/* MoveIndirectAbsPt */\012EIF[ ]	/* EndIf */\012PUSHB[ ]	/* 1 value pushed */\0120 \012RCVT[ ]	/* ReadCVT */\012IF[ ]	/* If */\012PUSHB[ ]	/* 1 value pushed */\01231 \012MDAP[1]	/* MoveDirectAbsPt */\012ELSE[ ]	/* Else */\012PUSHB[ ]	/* 2 values pushed */\01231 19 \012MIAP[0]	/* MoveIndirectAbsPt */\012EIF[ ]	/* EndIf */\012PUSHB[ ]	/* 1 value pushed */\0120 \012RCVT[ ]	/* ReadCVT */\012IF[ ]	/* If */\012PUSHB[ ]	/* 1 value pushed */\01234 \012MDAP[1]	/* MoveDirectAbsPt */\012ELSE[ ]	/* Else */\012PUSHB[ ]	/* 2 values pushed */\01234 19 \012MIAP[0]	/* MoveIndirectAbsPt */\012EIF[ ]	/* EndIf */\012PUSHB[ ]	/* 1 value pushed */\0120 \012RCVT[ ]	/* ReadCVT */\012IF[ ]	/* If */\012PUSHB[ ]	/* 1 value pushed */\01244 \012MDAP[1]	/* MoveDirectAbsPt */\012ELSE[ ]	/* Else */\012PUSHB[ ]	/* 2 values pushed */\01244 17 \012MIAP[0]	/* MoveIndirectAbsPt */\012EIF[ ]	/* EndIf */\012PUSHB[ ]	/* 2 values pushed */\0127 3 \012MIRP[10100]	/* MoveIndirectRelPt */\012NPUSHB[ ]	/* 11 values pushed */\0127 7 23 7 39 7 55 7 71 7 5 \012DELTAP1[ ]	/* DeltaExceptionP1 */\012PUSHB[ ]	/* 1 value pushed */\01231 \012SRP0[ ]	/* SetRefPoint0 */\012PUSHB[ ]	/* 2 values pushed */\01224 4 \012MIRP[10100]	/* MoveIndirectRelPt */\012NPUSHB[ ]	/* 11 values pushed */\0127 24 23 24 39 24 55 24 71 24 5 \012DELTAP1[ ]	/* DeltaExceptionP1 */\012IUP[0]	/* InterpolateUntPts */\012IUP[1]	/* InterpolateUntPts */";
};
width = 1405;
}
);
note = Uogonek;
unicode = 0172;
},
{
glyphname = V;
layers = (
{
layerId = "410E5E1C-5FD0-457E-A79B-7BF13808BDAC";
paths = (
{
closed = 1;
nodes = (
"1343 1427 LINE",
"1069 1427 LINE",
"680 223 LINE",
"664 223 LINE",
"274 1427 LINE",
"0 1427 LINE",
"483 0 LINE",
"860 0 LINE"
);
}
);
userData = {
assembly = "SVTCA[0]	/* SetFreedomAndProjectionVectorToAxis */\012PUSHB[ ]	/* 1 value pushed */\0120 \012RCVT[ ]	/* ReadCVT */\012IF[ ]	/* If */\012PUSHB[ ]	/* 1 value pushed */\0120 \012MDAP[1]	/* MoveDirectAbsPt */\012ELSE[ ]	/* Else */\012PUSHB[ ]	/* 2 values pushed */\0120 17 \012MIAP[0]	/* MoveIndirectAbsPt */\012EIF[ ]	/* EndIf */\012PUSHB[ ]	/* 1 value pushed */\0121 \012MDRP[11100]	/* MoveDirectRelPt */\012PUSHB[ ]	/* 1 value pushed */\0125 \012MDRP[10000]	/* MoveDirectRelPt */\012PUSHB[ ]	/* 1 value pushed */\0126 \012MDRP[10000]	/* MoveDirectRelPt */\012IUP[0]	/* InterpolateUntPts */\012IUP[1]	/* InterpolateUntPts */";
};
width = 1343;
}
);
note = V;
unicode = 0056;
},
{
glyphname = W;
layers = (
{
layerId = "410E5E1C-5FD0-457E-A79B-7BF13808BDAC";
paths = (
{
closed = 1;
nodes = (
"736 0 LINE",
"973 1225 LINE",
"976 1225 LINE",
"1229 0 LINE",
"1604 0 LINE",
"1907 1427 LINE",
"1664 1427 LINE",
"1430 223 LINE",
"1426 223 LINE",
"1176 1427 LINE",
"777 1427 LINE",
"541 223 LINE",
"537 223 LINE",
"289 1427 LINE",
"35 1427 LINE",
"357 0 LINE"
);
}
);
userData = {
assembly = "SVTCA[0]	/* SetFreedomAndProjectionVectorToAxis */\012PUSHB[ ]	/* 1 value pushed */\0120 \012RCVT[ ]	/* ReadCVT */\012IF[ ]	/* If */\012PUSHB[ ]	/* 1 value pushed */\0120 \012MDAP[1]	/* MoveDirectAbsPt */\012ELSE[ ]	/* Else */\012PUSHB[ ]	/* 2 values pushed */\0120 23 \012MIAP[0]	/* MoveIndirectAbsPt */\012EIF[ ]	/* EndIf */\012PUSHB[ ]	/* 1 value pushed */\0120 \012RCVT[ ]	/* ReadCVT */\012IF[ ]	/* If */\012PUSHB[ ]	/* 1 value pushed */\0124 \012MDAP[1]	/* MoveDirectAbsPt */\012ELSE[ ]	/* Else */\012PUSHB[ ]	/* 2 values pushed */\0124 23 \012MIAP[0]	/* MoveIndirectAbsPt */\012EIF[ ]	/* EndIf */\012PUSHB[ ]	/* 1 value pushed */\0120 \012RCVT[ ]	/* ReadCVT */\012IF[ ]	/* If */\012PUSHB[ ]	/* 1 value pushed */\0128 \012MDAP[1]	/* MoveDirectAbsPt */\012ELSE[ ]	/* Else */\012PUSHB[ ]	/* 2 values pushed */\0128 23 \012MIAP[0]	/* MoveIndirectAbsPt */\012EIF[ ]	/* EndIf */\012PUSHB[ ]	/* 1 value pushed */\0120 \012RCVT[ ]	/* ReadCVT */\012IF[ ]	/* If */\012PUSHB[ ]	/* 1 value pushed */\01210 \012MDAP[1]	/* MoveDirectAbsPt */\012ELSE[ ]	/* Else */\012PUSHB[ ]	/* 2 values pushed */\01210 17 \012MIAP[0]	/* MoveIndirectAbsPt */\012EIF[ ]	/* EndIf */\012PUSHB[ ]	/* 1 value pushed */\0120 \012RCVT[ ]	/* ReadCVT */\012IF[ ]	/* If */\012PUSHB[ ]	/* 1 value pushed */\01214 \012MDAP[1]	/* MoveDirectAbsPt */\012ELSE[ ]	/* Else */\012PUSHB[ ]	/* 2 values pushed */\01214 17 \012MIAP[0]	/* MoveIndirectAbsPt */\012EIF[ ]	/* EndIf */\012PUSHB[ ]	/* 2 values pushed */\0122 3 \012MIRP[10100]	/* MoveIndirectRelPt */\012PUSHB[ ]	/* 1 value pushed */\0126 \012MDRP[10000]	/* MoveDirectRelPt */\012PUSHB[ ]	/* 1 value pushed */\0127 \012MDRP[10000]	/* MoveDirectRelPt */\012IUP[0]	/* InterpolateUntPts */\012IUP[1]	/* InterpolateUntPts */";
};
width = 1942;
}
);
note = W;
unicode = 0057;
},
{
glyphname = X;
layers = (
{
layerId = "410E5E1C-5FD0-457E-A79B-7BF13808BDAC";
paths = (
{
closed = 1;
nodes = (
"296 0 LINE",
"625 518 LINE",
"961 0 LINE",
"1250 0 LINE",
"773 739 LINE",
"1211 1427 LINE",
"930 1427 LINE",
"636 951 LINE",
"330 1427 LINE",
"38 1427 LINE",
"486 734 LINE",
"15 0 LINE"
);
}
);
userData = {
assembly = "SVTCA[0]	/* SetFreedomAndProjectionVectorToAxis */\012PUSHB[ ]	/* 1 value pushed */\0120 \012RCVT[ ]	/* ReadCVT */\012IF[ ]	/* If */\012PUSHB[ ]	/* 1 value pushed */\0121 \012MDAP[1]	/* MoveDirectAbsPt */\012ELSE[ ]	/* Else */\012PUSHB[ ]	/* 2 values pushed */\0121 23 \012MIAP[0]	/* MoveIndirectAbsPt */\012EIF[ ]	/* EndIf */\012PUSHB[ ]	/* 1 value pushed */\0120 \012RCVT[ ]	/* ReadCVT */\012IF[ ]	/* If */\012PUSHB[ ]	/* 1 value pushed */\0124 \012MDAP[1]	/* MoveDirectAbsPt */\012ELSE[ ]	/* Else */\012PUSHB[ ]	/* 2 values pushed */\0124 23 \012MIAP[0]	/* MoveIndirectAbsPt */\012EIF[ ]	/* EndIf */\012PUSHB[ ]	/* 1 value pushed */\0120 \012RCVT[ ]	/* ReadCVT */\012IF[ ]	/* If */\012PUSHB[ ]	/* 1 value pushed */\0127 \012MDAP[1]	/* MoveDirectAbsPt */\012ELSE[ ]	/* Else */\012PUSHB[ ]	/* 2 values pushed */\0127 17 \012MIAP[0]	/* MoveIndirectAbsPt */\012EIF[ ]	/* EndIf */\012PUSHB[ ]	/* 1 value pushed */\0120 \012RCVT[ ]	/* ReadCVT */\012IF[ ]	/* If */\012PUSHB[ ]	/* 1 value pushed */\01210 \012MDAP[1]	/* MoveDirectAbsPt */\012ELSE[ ]	/* Else */\012PUSHB[ ]	/* 2 values pushed */\01210 17 \012MIAP[0]	/* MoveIndirectAbsPt */\012EIF[ ]	/* EndIf */\012PUSHB[ ]	/* 3 values pushed */\0123 7 1 \012SRP1[ ]	/* SetRefPoint1 */\012SRP2[ ]	/* SetRefPoint2 */\012IP[ ]	/* InterpolatePts */\012PUSHB[ ]	/* 3 values pushed */\0129 7 1 \012SRP1[ ]	/* SetRefPoint1 */\012SRP2[ ]	/* SetRefPoint2 */\012IP[ ]	/* InterpolatePts */\012IUP[0]	/* InterpolateUntPts */\012IUP[1]	/* InterpolateUntPts */";
};
width = 1265;
}
);
note = X;
unicode = 0058;
},
{
glyphname = Y;
layers = (
{
layerId = "410E5E1C-5FD0-457E-A79B-7BF13808BDAC";
paths = (
{
closed = 1;
nodes = (
"729 0 LINE",
"729 551 LINE",
"1221 1427 LINE",
"940 1427 LINE",
"612 805 LINE",
"608 805 LINE",
"281 1427 LINE",
"0 1427 LINE",
"492 551 LINE",
"492 0 LINE"
);
}
);
userData = {
assembly = "PUSHB[ ]	/* 4 values pushed */\0127 13 0 4 \012CALL[ ]	/* CallFunction */\012PUSHB[ ]	/* 3 values pushed */\0124 0 7 \012SRP1[ ]	/* SetRefPoint1 */\012SRP2[ ]	/* SetRefPoint2 */\012IP[ ]	/* InterpolatePts */\012SVTCA[0]	/* SetFreedomAndProjectionVectorToAxis */\012PUSHB[ ]	/* 1 value pushed */\0120 \012RCVT[ ]	/* ReadCVT */\012IF[ ]	/* If */\012PUSHB[ ]	/* 1 value pushed */\0121 \012MDAP[1]	/* MoveDirectAbsPt */\012ELSE[ ]	/* Else */\012PUSHB[ ]	/* 2 values pushed */\0121 23 \012MIAP[0]	/* MoveIndirectAbsPt */\012EIF[ ]	/* EndIf */\012PUSHB[ ]	/* 1 value pushed */\0120 \012RCVT[ ]	/* ReadCVT */\012IF[ ]	/* If */\012PUSHB[ ]	/* 1 value pushed */\0125 \012MDAP[1]	/* MoveDirectAbsPt */\012ELSE[ ]	/* Else */\012PUSHB[ ]	/* 2 values pushed */\0125 23 \012MIAP[0]	/* MoveIndirectAbsPt */\012EIF[ ]	/* EndIf */\012PUSHB[ ]	/* 1 value pushed */\0120 \012RCVT[ ]	/* ReadCVT */\012IF[ ]	/* If */\012PUSHB[ ]	/* 1 value pushed */\0128 \012MDAP[1]	/* MoveDirectAbsPt */\012ELSE[ ]	/* Else */\012PUSHB[ ]	/* 2 values pushed */\0128 17 \012MIAP[0]	/* MoveIndirectAbsPt */\012EIF[ ]	/* EndIf */\012PUSHB[ ]	/* 3 values pushed */\0124 8 1 \012SRP1[ ]	/* SetRefPoint1 */\012SRP2[ ]	/* SetRefPoint2 */\012IP[ ]	/* InterpolatePts */\012IUP[0]	/* InterpolateUntPts */\012IUP[1]	/* InterpolateUntPts */";
};
width = 1221;
}
);
note = Y;
unicode = 0059;
},
{
glyphname = Z;
layers = (
{
layerId = "410E5E1C-5FD0-457E-A79B-7BF13808BDAC";
paths = (
{
closed = 1;
nodes = (
"1196 0 LINE",
"1196 223 LINE",
"446 223 LINE",
"446 225 LINE",
"1188 1268 LINE",
"1188 1427 LINE",
"131 1427 LINE",
"131 1204 LINE",
"834 1204 LINE",
"834 1202 LINE",
"90 156 LINE",
"90 0 LINE"
);
}
);
userData = {
assembly = "SVTCA[0]	/* SetFreedomAndProjectionVectorToAxis */\012PUSHB[ ]	/* 1 value pushed */\0120 \012RCVT[ ]	/* ReadCVT */\012IF[ ]	/* If */\012PUSHB[ ]	/* 1 value pushed */\0124 \012MDAP[1]	/* MoveDirectAbsPt */\012ELSE[ ]	/* Else */\012PUSHB[ ]	/* 2 values pushed */\0124 23 \012MIAP[0]	/* MoveIndirectAbsPt */\012EIF[ ]	/* EndIf */\012PUSHB[ ]	/* 1 value pushed */\0120 \012RCVT[ ]	/* ReadCVT */\012IF[ ]	/* If */\012PUSHB[ ]	/* 1 value pushed */\01210 \012MDAP[1]	/* MoveDirectAbsPt */\012ELSE[ ]	/* Else */\012PUSHB[ ]	/* 2 values pushed */\01210 17 \012MIAP[0]	/* MoveIndirectAbsPt */\012EIF[ ]	/* EndIf */\012PUSHB[ ]	/* 1 value pushed */\0124 \012SRP0[ ]	/* SetRefPoint0 */\012PUSHB[ ]	/* 2 values pushed */\0122 3 \012MIRP[10100]	/* MoveIndirectRelPt */\012PUSHB[ ]	/* 1 value pushed */\01210 \012SRP0[ ]	/* SetRefPoint0 */\012PUSHB[ ]	/* 2 values pushed */\0128 3 \012MIRP[10100]	/* MoveIndirectRelPt */\012IUP[0]	/* InterpolateUntPts */\012IUP[1]	/* InterpolateUntPts */";
};
width = 1276;
}
);
note = Z;
unicode = 005A;
},
{
glyphname = a;
layers = (
{
layerId = "410E5E1C-5FD0-457E-A79B-7BF13808BDAC";
paths = (
{
closed = 1;
nodes = (
"164 83 OFFCURVE",
"245 5 OFFCURVE",
"373 -31 OFFCURVE",
"463 -31 QCURVE SMOOTH",
"537 -31 OFFCURVE",
"660 3 OFFCURVE",
"706 23 QCURVE SMOOTH",
"759 47 OFFCURVE",
"803 78 QCURVE",
"821 0 LINE",
"1022 0 LINE",
"1022 639 LINE SMOOTH",
"1022 706 OFFCURVE",
"1015 807 OFFCURVE",
"997 885 OFFCURVE",
"969 943 OFFCURVE",
"948 969 QCURVE SMOOTH",
"923 1000 OFFCURVE",
"860 1042 OFFCURVE",
"778 1068 OFFCURVE",
"671 1079 OFFCURVE",
"602 1079 QCURVE SMOOTH",
"499 1079 OFFCURVE",
"349 1060 OFFCURVE",
"299 1049 QCURVE SMOOTH",
"240 1036 OFFCURVE",
"200 1020 QCURVE",
"200 854 LINE",
"244 860 OFFCURVE",
"293 865 QCURVE SMOOTH",
"335 870 OFFCURVE",
"442 877 OFFCURVE",
"499 877 QCURVE SMOOTH",
"589 877 OFFCURVE",
"701 857 OFFCURVE",
"733 834 QCURVE SMOOTH",
"748 822 OFFCURVE",
"769 796 OFFCURVE",
"781 758 OFFCURVE",
"786 707 OFFCURVE",
"786 670 QCURVE SMOOTH",
"786 572 LINE",
"746 586 OFFCURVE",
"697 597 QCURVE SMOOTH",
"654 607 OFFCURVE",
"537 623 OFFCURVE",
"465 623 QCURVE SMOOTH",
"394 623 OFFCURVE",
"271 589 OFFCURVE",
"180 513 OFFCURVE",
"127 389 OFFCURVE",
"127 299 QCURVE SMOOTH",
"127 209 OFFCURVE"
);
},
{
closed = 1;
nodes = (
"392 396 OFFCURVE",
"438 425 OFFCURVE",
"509 434 OFFCURVE",
"559 434 QCURVE SMOOTH",
"604 434 OFFCURVE",
"685 427 OFFCURVE",
"717 422 QCURVE SMOOTH",
"754 417 OFFCURVE",
"786 411 QCURVE",
"786 228 LINE",
"751 211 OFFCURVE",
"711 198 QCURVE SMOOTH",
"676 187 OFFCURVE",
"585 168 OFFCURVE",
"534 168 QCURVE SMOOTH",
"495 168 OFFCURVE",
"434 176 OFFCURVE",
"392 203 OFFCURVE",
"370 255 OFFCURVE",
"370 299 QCURVE SMOOTH",
"370 343 OFFCURVE"
);
}
);
userData = {
assembly = "PUSHB[ ]	/* 1 value pushed */\01274 \012MDAP[1]	/* MoveDirectAbsPt */\012PUSHB[ ]	/* 1 value pushed */\01211 \012MDAP[1]	/* MoveDirectAbsPt */\012PUSHB[ ]	/* 1 value pushed */\01274 \012SRP0[ ]	/* SetRefPoint0 */\012PUSHB[ ]	/* 1 value pushed */\0120 \012MDRP[10000]	/* MoveDirectRelPt */\012PUSHB[ ]	/* 1 value pushed */\0120 \012MDAP[1]	/* MoveDirectAbsPt */\012PUSHB[ ]	/* 1 value pushed */\01211 \012SRP0[ ]	/* SetRefPoint0 */\012PUSHB[ ]	/* 2 values pushed */\01240 13 \012MIRP[10100]	/* MoveIndirectRelPt */\012PUSHB[ ]	/* 3 values pushed */\01243 11 40 \012SRP1[ ]	/* SetRefPoint1 */\012SRP2[ ]	/* SetRefPoint2 */\012IP[ ]	/* InterpolatePts */\012PUSHB[ ]	/* 1 value pushed */\0120 \012SRP0[ ]	/* SetRefPoint0 */\012PUSHB[ ]	/* 2 values pushed */\01253 12 \012MIRP[10100]	/* MoveIndirectRelPt */\012NPUSHB[ ]	/* 11 values pushed */\0126 53 22 53 38 53 54 53 70 53 5 \012DELTAP1[ ]	/* DeltaExceptionP1 */\012PUSHB[ ]	/* 1 value pushed */\01211 \012SRP0[ ]	/* SetRefPoint0 */\012PUSHB[ ]	/* 1 value pushed */\01263 \012MDRP[10000]	/* MoveDirectRelPt */\012PUSHB[ ]	/* 1 value pushed */\01240 \012SRP0[ ]	/* SetRefPoint0 */\012PUSHB[ ]	/* 1 value pushed */\01275 \012MDRP[11100]	/* MoveDirectRelPt */\012SVTCA[0]	/* SetFreedomAndProjectionVectorToAxis */\012PUSHB[ ]	/* 1 value pushed */\0120 \012RCVT[ ]	/* ReadCVT */\012IF[ ]	/* If */\012PUSHB[ ]	/* 1 value pushed */\01230 \012MDAP[1]	/* MoveDirectAbsPt */\012ELSE[ ]	/* Else */\012PUSHB[ ]	/* 2 values pushed */\01230 21 \012MIAP[0]	/* MoveIndirectAbsPt */\012EIF[ ]	/* EndIf */\012PUSHB[ ]	/* 1 value pushed */\0120 \012RCVT[ ]	/* ReadCVT */\012IF[ ]	/* If */\012PUSHB[ ]	/* 1 value pushed */\01241 \012MDAP[1]	/* MoveDirectAbsPt */\012ELSE[ ]	/* Else */\012PUSHB[ ]	/* 2 values pushed */\01241 17 \012MIAP[0]	/* MoveIndirectAbsPt */\012EIF[ ]	/* EndIf */\012PUSHB[ ]	/* 1 value pushed */\0120 \012RCVT[ ]	/* ReadCVT */\012IF[ ]	/* If */\012PUSHB[ ]	/* 1 value pushed */\01248 \012MDAP[1]	/* MoveDirectAbsPt */\012ELSE[ ]	/* Else */\012PUSHB[ ]	/* 2 values pushed */\01248 17 \012MIAP[0]	/* MoveIndirectAbsPt */\012EIF[ ]	/* EndIf */\012PUSHB[ ]	/* 4 values pushed */\0125 4 69 4 \012CALL[ ]	/* CallFunction */\012PUSHB[ ]	/* 3 values pushed */\01210 69 5 \012SRP1[ ]	/* SetRefPoint1 */\012SRP2[ ]	/* SetRefPoint2 */\012IP[ ]	/* InterpolatePts */\012PUSHB[ ]	/* 1 value pushed */\01230 \012SRP0[ ]	/* SetRefPoint0 */\012PUSHB[ ]	/* 2 values pushed */\01219 5 \012MIRP[10100]	/* MoveIndirectRelPt */\012NPUSHB[ ]	/* 11 values pushed */\0128 19 24 19 40 19 56 19 72 19 5 \012DELTAP1[ ]	/* DeltaExceptionP1 */\012PUSHB[ ]	/* 1 value pushed */\01222 \012MDRP[10000]	/* MoveDirectRelPt */\012PUSHB[ ]	/* 1 value pushed */\01222 \012MDAP[1]	/* MoveDirectAbsPt */\012PUSHB[ ]	/* 1 value pushed */\01248 \012SRP0[ ]	/* SetRefPoint0 */\012PUSHB[ ]	/* 2 values pushed */\01258 1 \012MIRP[10100]	/* MoveIndirectRelPt */\012NPUSHB[ ]	/* 11 values pushed */\0127 58 23 58 39 58 55 58 71 58 5 \012DELTAP1[ ]	/* DeltaExceptionP1 */\012PUSHB[ ]	/* 3 values pushed */\01243 48 58 \012SRP1[ ]	/* SetRefPoint1 */\012SRP2[ ]	/* SetRefPoint2 */\012IP[ ]	/* InterpolatePts */\012PUSHB[ ]	/* 1 value pushed */\01269 \012SRP0[ ]	/* SetRefPoint0 */\012PUSHB[ ]	/* 1 value pushed */\01266 \012MDRP[10000]	/* MoveDirectRelPt */\012PUSHB[ ]	/* 1 value pushed */\01266 \012MDAP[1]	/* MoveDirectAbsPt */\012IUP[0]	/* InterpolateUntPts */\012IUP[1]	/* InterpolateUntPts */";
};
width = 1193;
}
);
note = a;
unicode = 0061;
},
{
glyphname = aogonek;
layers = (
{
layerId = "410E5E1C-5FD0-457E-A79B-7BF13808BDAC";
paths = (
{
closed = 1;
nodes = (
"164 83 OFFCURVE",
"245 5 OFFCURVE",
"373 -31 OFFCURVE",
"463 -31 QCURVE SMOOTH",
"537 -31 OFFCURVE",
"660 3 OFFCURVE",
"706 23 QCURVE SMOOTH",
"759 47 OFFCURVE",
"803 78 QCURVE",
"818 11 LINE",
"787 -11 OFFCURVE",
"720 -71 OFFCURVE",
"664 -147 OFFCURVE",
"628 -237 OFFCURVE",
"628 -289 QCURVE SMOOTH",
"628 -340 OFFCURVE",
"663 -419 OFFCURVE",
"725 -473 OFFCURVE",
"810 -500 OFFCURVE",
"861 -500 QCURVE SMOOTH",
"896 -500 OFFCURVE",
"955 -494 OFFCURVE",
"976 -490 QCURVE SMOOTH",
"1001 -486 OFFCURVE",
"1020 -479 QCURVE",
"1020 -311 LINE",
"1010 -313 OFFCURVE",
"999 -314 QCURVE SMOOTH",
"979 -317 OFFCURVE",
"950 -317 QCURVE SMOOTH",
"899 -317 OFFCURVE",
"850 -267 OFFCURVE",
"850 -225 QCURVE SMOOTH",
"850 -174 OFFCURVE",
"928 -60 OFFCURVE",
"1022 0 QCURVE",
"1022 639 LINE SMOOTH",
"1022 706 OFFCURVE",
"1015 807 OFFCURVE",
"997 885 OFFCURVE",
"969 943 OFFCURVE",
"948 969 QCURVE SMOOTH",
"923 1000 OFFCURVE",
"860 1042 OFFCURVE",
"778 1068 OFFCURVE",
"671 1079 OFFCURVE",
"602 1079 QCURVE SMOOTH",
"499 1079 OFFCURVE",
"349 1060 OFFCURVE",
"299 1049 QCURVE SMOOTH",
"240 1036 OFFCURVE",
"200 1020 QCURVE",
"200 854 LINE",
"244 860 OFFCURVE",
"293 865 QCURVE SMOOTH",
"335 870 OFFCURVE",
"442 877 OFFCURVE",
"499 877 QCURVE SMOOTH",
"589 877 OFFCURVE",
"701 857 OFFCURVE",
"733 834 QCURVE SMOOTH",
"748 822 OFFCURVE",
"769 796 OFFCURVE",
"781 758 OFFCURVE",
"786 707 OFFCURVE",
"786 670 QCURVE SMOOTH",
"786 572 LINE",
"746 586 OFFCURVE",
"697 597 QCURVE SMOOTH",
"654 607 OFFCURVE",
"537 623 OFFCURVE",
"465 623 QCURVE SMOOTH",
"394 623 OFFCURVE",
"271 589 OFFCURVE",
"180 513 OFFCURVE",
"127 389 OFFCURVE",
"127 299 QCURVE SMOOTH",
"127 209 OFFCURVE"
);
},
{
closed = 1;
nodes = (
"392 396 OFFCURVE",
"438 425 OFFCURVE",
"509 434 OFFCURVE",
"559 434 QCURVE SMOOTH",
"604 434 OFFCURVE",
"685 427 OFFCURVE",
"717 422 QCURVE SMOOTH",
"754 417 OFFCURVE",
"786 411 QCURVE",
"786 228 LINE",
"751 211 OFFCURVE",
"711 198 QCURVE SMOOTH",
"676 187 OFFCURVE",
"585 168 OFFCURVE",
"534 168 QCURVE SMOOTH",
"495 168 OFFCURVE",
"434 176 OFFCURVE",
"392 203 OFFCURVE",
"370 255 OFFCURVE",
"370 299 QCURVE SMOOTH",
"370 343 OFFCURVE"
);
}
);
userData = {
assembly = "PUSHB[ ]	/* 4 values pushed */\01244 10 62 4 \012CALL[ ]	/* CallFunction */\012PUSHB[ ]	/* 4 values pushed */\01278 12 0 4 \012CALL[ ]	/* CallFunction */\012NPUSHB[ ]	/* 11 values pushed */\0129 62 25 62 41 62 57 62 73 62 5 \012DELTAP1[ ]	/* DeltaExceptionP1 */\012PUSHB[ ]	/* 3 values pushed */\01210 62 44 \012SRP1[ ]	/* SetRefPoint1 */\012SRP2[ ]	/* SetRefPoint2 */\012IP[ ]	/* InterpolatePts */\012PUSHB[ ]	/* 3 values pushed */\01211 62 44 \012SRP1[ ]	/* SetRefPoint1 */\012SRP2[ ]	/* SetRefPoint2 */\012IP[ ]	/* InterpolatePts */\012PUSHB[ ]	/* 1 value pushed */\01211 \012MDAP[1]	/* MoveDirectAbsPt */\012PUSHB[ ]	/* 2 values pushed */\01240 13 \012MIRP[10100]	/* MoveIndirectRelPt */\012PUSHB[ ]	/* 1 value pushed */\01251 \012MDRP[10000]	/* MoveDirectRelPt */\012PUSHB[ ]	/* 1 value pushed */\01251 \012MDAP[1]	/* MoveDirectAbsPt */\012PUSHB[ ]	/* 3 values pushed */\01268 62 44 \012SRP1[ ]	/* SetRefPoint1 */\012SRP2[ ]	/* SetRefPoint2 */\012IP[ ]	/* InterpolatePts */\012NPUSHB[ ]	/* 11 values pushed */\0126 78 22 78 38 78 54 78 70 78 5 \012DELTAP1[ ]	/* DeltaExceptionP1 */\012PUSHB[ ]	/* 1 value pushed */\01211 \012SRP0[ ]	/* SetRefPoint0 */\012PUSHB[ ]	/* 1 value pushed */\01288 \012MDRP[10000]	/* MoveDirectRelPt */\012PUSHB[ ]	/* 1 value pushed */\01240 \012SRP0[ ]	/* SetRefPoint0 */\012PUSHB[ ]	/* 1 value pushed */\012100 \012MDRP[11100]	/* MoveDirectRelPt */\012SVTCA[0]	/* SetFreedomAndProjectionVectorToAxis */\012PUSHB[ ]	/* 1 value pushed */\0120 \012RCVT[ ]	/* ReadCVT */\012IF[ ]	/* If */\012PUSHB[ ]	/* 1 value pushed */\01230 \012MDAP[1]	/* MoveDirectAbsPt */\012ELSE[ ]	/* Else */\012PUSHB[ ]	/* 2 values pushed */\01230 21 \012MIAP[0]	/* MoveIndirectAbsPt */\012EIF[ ]	/* EndIf */\012PUSHB[ ]	/* 1 value pushed */\0120 \012RCVT[ ]	/* ReadCVT */\012IF[ ]	/* If */\012PUSHB[ ]	/* 1 value pushed */\01241 \012MDAP[1]	/* MoveDirectAbsPt */\012ELSE[ ]	/* Else */\012PUSHB[ ]	/* 2 values pushed */\01241 17 \012MIAP[0]	/* MoveIndirectAbsPt */\012EIF[ ]	/* EndIf */\012PUSHB[ ]	/* 1 value pushed */\0120 \012RCVT[ ]	/* ReadCVT */\012IF[ ]	/* If */\012PUSHB[ ]	/* 1 value pushed */\01267 \012MDAP[1]	/* MoveDirectAbsPt */\012ELSE[ ]	/* Else */\012PUSHB[ ]	/* 2 values pushed */\01267 17 \012MIAP[0]	/* MoveIndirectAbsPt */\012EIF[ ]	/* EndIf */\012PUSHB[ ]	/* 1 value pushed */\0120 \012RCVT[ ]	/* ReadCVT */\012IF[ ]	/* If */\012PUSHB[ ]	/* 1 value pushed */\01254 \012MDAP[1]	/* MoveDirectAbsPt */\012ELSE[ ]	/* Else */\012PUSHB[ ]	/* 2 values pushed */\01254 19 \012MIAP[0]	/* MoveIndirectAbsPt */\012EIF[ ]	/* EndIf */\012PUSHB[ ]	/* 1 value pushed */\0120 \012RCVT[ ]	/* ReadCVT */\012IF[ ]	/* If */\012PUSHB[ ]	/* 1 value pushed */\01257 \012MDAP[1]	/* MoveDirectAbsPt */\012ELSE[ ]	/* Else */\012PUSHB[ ]	/* 2 values pushed */\01257 19 \012MIAP[0]	/* MoveIndirectAbsPt */\012EIF[ ]	/* EndIf */\012PUSHB[ ]	/* 1 value pushed */\0120 \012RCVT[ ]	/* ReadCVT */\012IF[ ]	/* If */\012PUSHB[ ]	/* 1 value pushed */\01273 \012MDAP[1]	/* MoveDirectAbsPt */\012ELSE[ ]	/* Else */\012PUSHB[ ]	/* 2 values pushed */\01273 17 \012MIAP[0]	/* MoveIndirectAbsPt */\012EIF[ ]	/* EndIf */\012PUSHB[ ]	/* 4 values pushed */\0125 4 94 4 \012CALL[ ]	/* CallFunction */\012PUSHB[ ]	/* 3 values pushed */\01210 94 5 \012SRP1[ ]	/* SetRefPoint1 */\012SRP2[ ]	/* SetRefPoint2 */\012IP[ ]	/* InterpolatePts */\012PUSHB[ ]	/* 1 value pushed */\01230 \012SRP0[ ]	/* SetRefPoint0 */\012PUSHB[ ]	/* 2 values pushed */\01219 5 \012MIRP[10100]	/* MoveIndirectRelPt */\012NPUSHB[ ]	/* 11 values pushed */\0128 19 24 19 40 19 56 19 72 19 5 \012DELTAP1[ ]	/* DeltaExceptionP1 */\012PUSHB[ ]	/* 1 value pushed */\01222 \012MDRP[10000]	/* MoveDirectRelPt */\012PUSHB[ ]	/* 1 value pushed */\01222 \012MDAP[1]	/* MoveDirectAbsPt */\012PUSHB[ ]	/* 1 value pushed */\01254 \012SRP0[ ]	/* SetRefPoint0 */\012PUSHB[ ]	/* 2 values pushed */\01247 4 \012MIRP[10100]	/* MoveIndirectRelPt */\012NPUSHB[ ]	/* 11 values pushed */\0127 47 23 47 39 47 55 47 71 47 5 \012DELTAP1[ ]	/* DeltaExceptionP1 */\012PUSHB[ ]	/* 1 value pushed */\01273 \012SRP0[ ]	/* SetRefPoint0 */\012PUSHB[ ]	/* 2 values pushed */\01283 1 \012MIRP[10100]	/* MoveIndirectRelPt */\012NPUSHB[ ]	/* 11 values pushed */\0127 83 23 83 39 83 55 83 71 83 5 \012DELTAP1[ ]	/* DeltaExceptionP1 */\012PUSHB[ ]	/* 3 values pushed */\01268 73 83 \012SRP1[ ]	/* SetRefPoint1 */\012SRP2[ ]	/* SetRefPoint2 */\012IP[ ]	/* InterpolatePts */\012PUSHB[ ]	/* 1 value pushed */\01294 \012SRP0[ ]	/* SetRefPoint0 */\012PUSHB[ ]	/* 1 value pushed */\01291 \012MDRP[10000]	/* MoveDirectRelPt */\012PUSHB[ ]	/* 1 value pushed */\01291 \012MDAP[1]	/* MoveDirectAbsPt */\012IUP[0]	/* InterpolateUntPts */\012IUP[1]	/* InterpolateUntPts */";
};
width = 1180;
}
);
note = aogonek;
unicode = 0105;
},
{
glyphname = ae;
layers = (
{
layerId = "410E5E1C-5FD0-457E-A79B-7BF13808BDAC";
paths = (
{
closed = 1;
nodes = (
"165 102 OFFCURVE",
"255 16 OFFCURVE",
"402 -31 OFFCURVE",
"510 -31 QCURVE SMOOTH",
"631 -31 OFFCURVE",
"815 55 OFFCURVE",
"877 125 QCURVE",
"917 78 OFFCURVE",
"999 18 OFFCURVE",
"1095 -17 OFFCURVE",
"1212 -31 OFFCURVE",
"1286 -31 QCURVE SMOOTH",
"1363 -31 OFFCURVE",
"1499 -10 OFFCURVE",
"1550 3 QCURVE SMOOTH",
"1610 18 OFFCURVE",
"1661 37 QCURVE",
"1661 207 LINE",
"1616 199 OFFCURVE",
"1563 194 QCURVE SMOOTH",
"1517 189 OFFCURVE",
"1396 182 OFFCURVE",
"1327 182 QCURVE SMOOTH",
"1237 182 OFFCURVE",
"1125 212 OFFCURVE",
"1061 276 OFFCURVE",
"1036 375 OFFCURVE",
"1034 444 QCURVE",
"1695 440 LINE",
"1701 494 OFFCURVE",
"1708 593 OFFCURVE",
"1708 640 QCURVE SMOOTH",
"1708 740 OFFCURVE",
"1670 904 OFFCURVE",
"1576 1021 OFFCURVE",
"1417 1085 OFFCURVE",
"1296 1085 QCURVE SMOOTH",
"1156 1085 OFFCURVE",
"975 1007 OFFCURVE",
"931 938 QCURVE",
"889 1010 OFFCURVE",
"710 1085 OFFCURVE",
"579 1085 QCURVE SMOOTH",
"507 1085 OFFCURVE",
"375 1064 OFFCURVE",
"324 1052 QCURVE SMOOTH",
"264 1038 OFFCURVE",
"211 1020 QCURVE",
"211 854 LINE",
"250 860 OFFCURVE",
"297 865 QCURVE SMOOTH",
"337 870 OFFCURVE",
"440 877 OFFCURVE",
"499 877 QCURVE SMOOTH",
"589 877 OFFCURVE",
"711 857 OFFCURVE",
"743 834 QCURVE SMOOTH",
"758 822 OFFCURVE",
"779 796 OFFCURVE",
"791 759 OFFCURVE",
"796 707 OFFCURVE",
"796 670 QCURVE SMOOTH",
"796 635 LINE",
"524 635 LINE SMOOTH",
"326 635 OFFCURVE",
"127 468 OFFCURVE",
"127 301 QCURVE SMOOTH",
"127 225 OFFCURVE"
);
},
{
closed = 1;
nodes = (
"1034 689 OFFCURVE",
"1050 780 OFFCURVE",
"1100 847 OFFCURVE",
"1194 885 OFFCURVE",
"1273 885 QCURVE SMOOTH",
"1343 885 OFFCURVE",
"1428 858 OFFCURVE",
"1474 803 OFFCURVE",
"1489 721 OFFCURVE",
"1489 667 QCURVE SMOOTH",
"1489 635 LINE",
"1034 635 LINE"
);
},
{
closed = 1;
nodes = (
"382 396 OFFCURVE",
"432 428 OFFCURVE",
"511 444 OFFCURVE",
"567 444 QCURVE SMOOTH",
"794 444 LINE",
"796 393 LINE SMOOTH",
"798 358 OFFCURVE",
"806 296 OFFCURVE",
"813 267 QCURVE",
"764 225 OFFCURVE",
"620 168 OFFCURVE",
"530 168 QCURVE SMOOTH",
"485 168 OFFCURVE",
"421 178 OFFCURVE",
"380 208 OFFCURVE",
"360 264 OFFCURVE",
"360 311 QCURVE SMOOTH",
"360 345 OFFCURVE"
);
}
);
userData = {
assembly = "PUSHB[ ]	/* 4 values pushed */\01280 13 0 4 \012CALL[ ]	/* CallFunction */\012PUSHB[ ]	/* 4 values pushed */\01279 13 4 4 \012CALL[ ]	/* CallFunction */\012PUSHB[ ]	/* 3 values pushed */\01235 38 3 \012CALL[ ]	/* CallFunction */\012PUSHB[ ]	/* 3 values pushed */\01227 4 79 \012SRP1[ ]	/* SetRefPoint1 */\012SRP2[ ]	/* SetRefPoint2 */\012IP[ ]	/* InterpolatePts */\012PUSHB[ ]	/* 1 value pushed */\01279 \012SRP0[ ]	/* SetRefPoint0 */\012PUSHB[ ]	/* 1 value pushed */\01239 \012MDRP[10000]	/* MoveDirectRelPt */\012NPUSHB[ ]	/* 11 values pushed */\0126 80 22 80 38 80 54 80 70 80 5 \012DELTAP1[ ]	/* DeltaExceptionP1 */\012PUSHB[ ]	/* 1 value pushed */\0124 \012SRP0[ ]	/* SetRefPoint0 */\012PUSHB[ ]	/* 1 value pushed */\01291 \012MDRP[10000]	/* MoveDirectRelPt */\012PUSHB[ ]	/* 1 value pushed */\01235 \012SRP0[ ]	/* SetRefPoint0 */\012PUSHB[ ]	/* 1 value pushed */\01299 \012MDRP[11100]	/* MoveDirectRelPt */\012SVTCA[0]	/* SetFreedomAndProjectionVectorToAxis */\012PUSHB[ ]	/* 1 value pushed */\0120 \012RCVT[ ]	/* ReadCVT */\012IF[ ]	/* If */\012PUSHB[ ]	/* 1 value pushed */\01230 \012MDAP[1]	/* MoveDirectAbsPt */\012ELSE[ ]	/* Else */\012PUSHB[ ]	/* 2 values pushed */\01230 21 \012MIAP[0]	/* MoveIndirectAbsPt */\012EIF[ ]	/* EndIf */\012PUSHB[ ]	/* 1 value pushed */\0120 \012RCVT[ ]	/* ReadCVT */\012IF[ ]	/* If */\012PUSHB[ ]	/* 1 value pushed */\01224 \012MDAP[1]	/* MoveDirectAbsPt */\012ELSE[ ]	/* Else */\012PUSHB[ ]	/* 2 values pushed */\01224 21 \012MIAP[0]	/* MoveIndirectAbsPt */\012EIF[ ]	/* EndIf */\012PUSHB[ ]	/* 1 value pushed */\0120 \012RCVT[ ]	/* ReadCVT */\012IF[ ]	/* If */\012PUSHB[ ]	/* 1 value pushed */\01255 \012MDAP[1]	/* MoveDirectAbsPt */\012ELSE[ ]	/* Else */\012PUSHB[ ]	/* 2 values pushed */\01255 17 \012MIAP[0]	/* MoveIndirectAbsPt */\012EIF[ ]	/* EndIf */\012PUSHB[ ]	/* 1 value pushed */\0120 \012RCVT[ ]	/* ReadCVT */\012IF[ ]	/* If */\012PUSHB[ ]	/* 1 value pushed */\01263 \012MDAP[1]	/* MoveDirectAbsPt */\012ELSE[ ]	/* Else */\012PUSHB[ ]	/* 2 values pushed */\01263 17 \012MIAP[0]	/* MoveIndirectAbsPt */\012EIF[ ]	/* EndIf */\012PUSHB[ ]	/* 4 values pushed */\01268 8 38 4 \012CALL[ ]	/* CallFunction */\012PUSHB[ ]	/* 1 value pushed */\01268 \012SRP0[ ]	/* SetRefPoint0 */\012PUSHB[ ]	/* 1 value pushed */\0123 \012MDRP[10000]	/* MoveDirectRelPt */\012PUSHB[ ]	/* 1 value pushed */\01224 \012SRP0[ ]	/* SetRefPoint0 */\012PUSHB[ ]	/* 2 values pushed */\01213 1 \012MIRP[10100]	/* MoveIndirectRelPt */\012NPUSHB[ ]	/* 11 values pushed */\0128 13 24 13 40 13 56 13 72 13 5 \012DELTAP1[ ]	/* DeltaExceptionP1 */\012PUSHB[ ]	/* 1 value pushed */\01224 \012SRP0[ ]	/* SetRefPoint0 */\012PUSHB[ ]	/* 2 values pushed */\01216 5 \012MIRP[10100]	/* MoveIndirectRelPt */\012NPUSHB[ ]	/* 11 values pushed */\0128 16 24 16 40 16 56 16 72 16 5 \012DELTAP1[ ]	/* DeltaExceptionP1 */\012PUSHB[ ]	/* 3 values pushed */\01227 24 13 \012SRP1[ ]	/* SetRefPoint1 */\012SRP2[ ]	/* SetRefPoint2 */\012IP[ ]	/* InterpolatePts */\012PUSHB[ ]	/* 1 value pushed */\01255 \012SRP0[ ]	/* SetRefPoint0 */\012PUSHB[ ]	/* 2 values pushed */\01244 1 \012MIRP[10100]	/* MoveIndirectRelPt */\012NPUSHB[ ]	/* 11 values pushed */\0127 44 23 44 39 44 55 44 71 44 5 \012DELTAP1[ ]	/* DeltaExceptionP1 */\012PUSHB[ ]	/* 1 value pushed */\01255 \012SRP0[ ]	/* SetRefPoint0 */\012PUSHB[ ]	/* 2 values pushed */\01247 3 \012MIRP[10100]	/* MoveIndirectRelPt */\012NPUSHB[ ]	/* 11 values pushed */\0127 47 23 47 39 47 55 47 71 47 5 \012DELTAP1[ ]	/* DeltaExceptionP1 */\012PUSHB[ ]	/* 1 value pushed */\01213 \012SRP0[ ]	/* SetRefPoint0 */\012PUSHB[ ]	/* 1 value pushed */\01274 \012MDRP[10000]	/* MoveDirectRelPt */\012PUSHB[ ]	/* 1 value pushed */\01244 \012SRP0[ ]	/* SetRefPoint0 */\012PUSHB[ ]	/* 1 value pushed */\01285 \012MDRP[10000]	/* MoveDirectRelPt */\012PUSHB[ ]	/* 1 value pushed */\01238 \012SRP0[ ]	/* SetRefPoint0 */\012PUSHB[ ]	/* 1 value pushed */\01292 \012MDRP[10000]	/* MoveDirectRelPt */\012PUSHB[ ]	/* 1 value pushed */\01292 \012MDAP[1]	/* MoveDirectAbsPt */\012IUP[0]	/* InterpolateUntPts */\012IUP[1]	/* InterpolateUntPts */";
};
width = 1781;
}
);
note = ae;
unicode = 00E6;
},
{
glyphname = b;
layers = (
{
layerId = "410E5E1C-5FD0-457E-A79B-7BF13808BDAC";
paths = (
{
closed = 1;
nodes = (
"371 0 LINE",
"385 84 LINE",
"432 52 OFFCURVE",
"489 26 QCURVE SMOOTH",
"538 4 OFFCURVE",
"669 -31 OFFCURVE",
"745 -31 QCURVE SMOOTH",
"833 -31 OFFCURVE",
"972 28 OFFCURVE",
"1066 162 OFFCURVE",
"1116 376 OFFCURVE",
"1116 532 QCURVE SMOOTH",
"1116 662 OFFCURVE",
"1083 867 OFFCURVE",
"1001 1010 OFFCURVE",
"862 1085 OFFCURVE",
"756 1085 QCURVE SMOOTH",
"681 1085 OFFCURVE",
"553 1061 OFFCURVE",
"505 1047 QCURVE SMOOTH",
"450 1030 OFFCURVE",
"403 1010 QCURVE",
"403 1554 LINE",
"166 1554 LINE",
"166 0 LINE"
);
},
{
closed = 1;
nodes = (
"440 846 OFFCURVE",
"480 855 QCURVE SMOOTH",
"515 862 OFFCURVE",
"601 874 OFFCURVE",
"647 874 QCURVE SMOOTH",
"720 874 OFFCURVE",
"807 843 OFFCURVE",
"852 763 OFFCURVE",
"866 626 OFFCURVE",
"866 520 QCURVE SMOOTH",
"866 425 OFFCURVE",
"849 296 OFFCURVE",
"806 217 OFFCURVE",
"730 182 OFFCURVE",
"670 182 QCURVE SMOOTH",
"609 182 OFFCURVE",
"511 199 OFFCURVE",
"476 210 QCURVE SMOOTH",
"435 222 OFFCURVE",
"403 238 QCURVE",
"403 836 LINE"
);
}
);
userData = {
assembly = "PUSHB[ ]	/* 1 value pushed */\01246 \012MDAP[1]	/* MoveDirectAbsPt */\012PUSHB[ ]	/* 1 value pushed */\01235 \012MDAP[1]	/* MoveDirectAbsPt */\012PUSHB[ ]	/* 1 value pushed */\01246 \012SRP0[ ]	/* SetRefPoint0 */\012PUSHB[ ]	/* 1 value pushed */\0120 \012MDRP[10000]	/* MoveDirectRelPt */\012PUSHB[ ]	/* 1 value pushed */\0120 \012MDAP[1]	/* MoveDirectAbsPt */\012PUSHB[ ]	/* 2 values pushed */\0121 13 \012MIRP[10100]	/* MoveIndirectRelPt */\012NPUSHB[ ]	/* 11 values pushed */\0129 35 25 35 41 35 57 35 73 35 5 \012DELTAP1[ ]	/* DeltaExceptionP1 */\012PUSHB[ ]	/* 1 value pushed */\01235 \012SRP0[ ]	/* SetRefPoint0 */\012PUSHB[ ]	/* 2 values pushed */\01212 11 \012MIRP[10100]	/* MoveIndirectRelPt */\012PUSHB[ ]	/* 3 values pushed */\01222 0 1 \012SRP1[ ]	/* SetRefPoint1 */\012SRP2[ ]	/* SetRefPoint2 */\012IP[ ]	/* InterpolatePts */\012PUSHB[ ]	/* 1 value pushed */\0121 \012SRP0[ ]	/* SetRefPoint0 */\012PUSHB[ ]	/* 1 value pushed */\01225 \012MDRP[10000]	/* MoveDirectRelPt */\012PUSHB[ ]	/* 1 value pushed */\01212 \012SRP0[ ]	/* SetRefPoint0 */\012PUSHB[ ]	/* 1 value pushed */\01247 \012MDRP[11100]	/* MoveDirectRelPt */\012SVTCA[0]	/* SetFreedomAndProjectionVectorToAxis */\012PUSHB[ ]	/* 1 value pushed */\0120 \012RCVT[ ]	/* ReadCVT */\012IF[ ]	/* If */\012PUSHB[ ]	/* 1 value pushed */\0127 \012MDAP[1]	/* MoveDirectAbsPt */\012ELSE[ ]	/* Else */\012PUSHB[ ]	/* 2 values pushed */\0127 21 \012MIAP[0]	/* MoveIndirectAbsPt */\012EIF[ ]	/* EndIf */\012PUSHB[ ]	/* 1 value pushed */\0120 \012RCVT[ ]	/* ReadCVT */\012IF[ ]	/* If */\012PUSHB[ ]	/* 1 value pushed */\01223 \012MDAP[1]	/* MoveDirectAbsPt */\012ELSE[ ]	/* Else */\012PUSHB[ ]	/* 2 values pushed */\01223 17 \012MIAP[0]	/* MoveIndirectAbsPt */\012EIF[ ]	/* EndIf */\012PUSHB[ ]	/* 1 value pushed */\0120 \012RCVT[ ]	/* ReadCVT */\012IF[ ]	/* If */\012PUSHB[ ]	/* 1 value pushed */\01217 \012MDAP[1]	/* MoveDirectAbsPt */\012ELSE[ ]	/* Else */\012PUSHB[ ]	/* 2 values pushed */\01217 17 \012MIAP[0]	/* MoveIndirectAbsPt */\012EIF[ ]	/* EndIf */\012PUSHB[ ]	/* 1 value pushed */\0127 \012SRP0[ ]	/* SetRefPoint0 */\012PUSHB[ ]	/* 2 values pushed */\01240 5 \012MIRP[10100]	/* MoveIndirectRelPt */\012NPUSHB[ ]	/* 11 values pushed */\0128 40 24 40 40 40 56 40 72 40 5 \012DELTAP1[ ]	/* DeltaExceptionP1 */\012PUSHB[ ]	/* 3 values pushed */\0122 7 40 \012SRP1[ ]	/* SetRefPoint1 */\012SRP2[ ]	/* SetRefPoint2 */\012IP[ ]	/* InterpolatePts */\012PUSHB[ ]	/* 1 value pushed */\01217 \012SRP0[ ]	/* SetRefPoint0 */\012PUSHB[ ]	/* 2 values pushed */\01230 3 \012MIRP[10100]	/* MoveIndirectRelPt */\012NPUSHB[ ]	/* 11 values pushed */\0127 30 23 30 39 30 55 30 71 30 5 \012DELTAP1[ ]	/* DeltaExceptionP1 */\012PUSHB[ ]	/* 3 values pushed */\01222 17 30 \012SRP1[ ]	/* SetRefPoint1 */\012SRP2[ ]	/* SetRefPoint2 */\012IP[ ]	/* InterpolatePts */\012IUP[0]	/* InterpolateUntPts */\012IUP[1]	/* InterpolateUntPts */";
};
width = 1228;
}
);
note = b;
unicode = 0062;
},
{
glyphname = c;
layers = (
{
layerId = "410E5E1C-5FD0-457E-A79B-7BF13808BDAC";
paths = (
{
closed = 1;
nodes = (
"168 154 OFFCURVE",
"295 26 OFFCURVE",
"466 -27 OFFCURVE",
"563 -27 QCURVE SMOOTH",
"642 -27 OFFCURVE",
"760 -7 OFFCURVE",
"799 5 QCURVE SMOOTH",
"845 19 OFFCURVE",
"877 37 QCURVE",
"877 203 LINE",
"848 197 OFFCURVE",
"812 193 QCURVE SMOOTH",
"781 189 OFFCURVE",
"698 184 OFFCURVE",
"649 184 QCURVE SMOOTH",
"571 184 OFFCURVE",
"457 209 OFFCURVE",
"381 284 OFFCURVE",
"344 420 OFFCURVE",
"344 530 QCURVE SMOOTH",
"344 638 OFFCURVE",
"376 771 OFFCURVE",
"444 844 OFFCURVE",
"552 870 OFFCURVE",
"627 870 QCURVE SMOOTH",
"674 870 OFFCURVE",
"760 865 OFFCURVE",
"794 863 QCURVE SMOOTH",
"834 859 OFFCURVE",
"868 856 QCURVE",
"868 1020 LINE",
"833 1036 OFFCURVE",
"785 1049 QCURVE SMOOTH",
"744 1060 OFFCURVE",
"628 1079 OFFCURVE",
"555 1079 QCURVE SMOOTH",
"460 1079 OFFCURVE",
"292 1019 OFFCURVE",
"167 888 OFFCURVE",
"94 678 OFFCURVE",
"94 528 QCURVE SMOOTH",
"94 367 OFFCURVE"
);
}
);
userData = {
assembly = "PUSHB[ ]	/* 4 values pushed */\01221 11 0 4 \012CALL[ ]	/* CallFunction */\012NPUSHB[ ]	/* 11 values pushed */\0126 21 22 21 38 21 54 21 70 21 5 \012DELTAP1[ ]	/* DeltaExceptionP1 */\012SVTCA[0]	/* SetFreedomAndProjectionVectorToAxis */\012PUSHB[ ]	/* 1 value pushed */\0120 \012RCVT[ ]	/* ReadCVT */\012IF[ ]	/* If */\012PUSHB[ ]	/* 1 value pushed */\0125 \012MDAP[1]	/* MoveDirectAbsPt */\012ELSE[ ]	/* Else */\012PUSHB[ ]	/* 2 values pushed */\0125 21 \012MIAP[0]	/* MoveIndirectAbsPt */\012EIF[ ]	/* EndIf */\012PUSHB[ ]	/* 1 value pushed */\0120 \012RCVT[ ]	/* ReadCVT */\012IF[ ]	/* If */\012PUSHB[ ]	/* 1 value pushed */\01237 \012MDAP[1]	/* MoveDirectAbsPt */\012ELSE[ ]	/* Else */\012PUSHB[ ]	/* 2 values pushed */\01237 17 \012MIAP[0]	/* MoveIndirectAbsPt */\012EIF[ ]	/* EndIf */\012PUSHB[ ]	/* 1 value pushed */\0125 \012SRP0[ ]	/* SetRefPoint0 */\012PUSHB[ ]	/* 2 values pushed */\01211 5 \012MIRP[10100]	/* MoveIndirectRelPt */\012PUSHB[ ]	/* 1 value pushed */\01213 \012MDRP[10000]	/* MoveDirectRelPt */\012PUSHB[ ]	/* 1 value pushed */\01213 \012MDAP[1]	/* MoveDirectAbsPt */\012PUSHB[ ]	/* 1 value pushed */\01216 \012MDRP[10000]	/* MoveDirectRelPt */\012PUSHB[ ]	/* 1 value pushed */\01237 \012SRP0[ ]	/* SetRefPoint0 */\012PUSHB[ ]	/* 2 values pushed */\01226 5 \012MIRP[10100]	/* MoveIndirectRelPt */\012NPUSHB[ ]	/* 11 values pushed */\0127 26 23 26 39 26 55 26 71 26 5 \012DELTAP1[ ]	/* DeltaExceptionP1 */\012PUSHB[ ]	/* 1 value pushed */\01229 \012MDRP[10000]	/* MoveDirectRelPt */\012PUSHB[ ]	/* 1 value pushed */\01229 \012MDAP[1]	/* MoveDirectAbsPt */\012IUP[0]	/* InterpolateUntPts */\012IUP[1]	/* InterpolateUntPts */";
};
width = 965;
}
);
note = c;
unicode = 0063;
},
{
glyphname = d;
layers = (
{
layerId = "410E5E1C-5FD0-457E-A79B-7BF13808BDAC";
paths = (
{
closed = 1;
nodes = (
"682 4 OFFCURVE",
"731 26 QCURVE SMOOTH",
"788 52 OFFCURVE",
"833 84 QCURVE",
"847 0 LINE",
"1052 0 LINE",
"1052 1554 LINE",
"814 1554 LINE",
"814 1010 LINE",
"772 1030 OFFCURVE",
"717 1047 QCURVE SMOOTH",
"670 1061 OFFCURVE",
"542 1085 OFFCURVE",
"464 1085 QCURVE SMOOTH",
"379 1085 OFFCURVE",
"244 1024 OFFCURVE",
"151 889 OFFCURVE",
"102 675 OFFCURVE",
"104 523 QCURVE SMOOTH",
"105 370 OFFCURVE",
"152 158 OFFCURVE",
"242 27 OFFCURVE",
"377 -31 OFFCURVE",
"466 -31 QCURVE SMOOTH",
"547 -31 OFFCURVE"
);
},
{
closed = 1;
nodes = (
"410 217 OFFCURVE",
"368 295 OFFCURVE",
"354 419 OFFCURVE",
"354 508 QCURVE SMOOTH",
"354 611 OFFCURVE",
"369 751 OFFCURVE",
"409 837 OFFCURVE",
"479 874 OFFCURVE",
"534 874 QCURVE SMOOTH",
"587 874 OFFCURVE",
"688 862 OFFCURVE",
"727 855 QCURVE SMOOTH",
"773 846 OFFCURVE",
"814 836 QCURVE",
"814 233 LINE",
"777 218 OFFCURVE",
"734 207 QCURVE SMOOTH",
"697 197 OFFCURVE",
"602 182 OFFCURVE",
"550 182 QCURVE SMOOTH",
"487 182 OFFCURVE"
);
}
);
userData = {
assembly = "PUSHB[ ]	/* 1 value pushed */\01246 \012MDAP[1]	/* MoveDirectAbsPt */\012PUSHB[ ]	/* 1 value pushed */\01216 \012MDAP[1]	/* MoveDirectAbsPt */\012PUSHB[ ]	/* 1 value pushed */\01246 \012SRP0[ ]	/* SetRefPoint0 */\012PUSHB[ ]	/* 1 value pushed */\0125 \012MDRP[10000]	/* MoveDirectRelPt */\012PUSHB[ ]	/* 1 value pushed */\0125 \012MDAP[1]	/* MoveDirectAbsPt */\012PUSHB[ ]	/* 1 value pushed */\01216 \012SRP0[ ]	/* SetRefPoint0 */\012PUSHB[ ]	/* 2 values pushed */\01217 13 \012MIRP[10100]	/* MoveIndirectRelPt */\012PUSHB[ ]	/* 3 values pushed */\01220 16 17 \012SRP1[ ]	/* SetRefPoint1 */\012SRP2[ ]	/* SetRefPoint2 */\012IP[ ]	/* InterpolatePts */\012PUSHB[ ]	/* 1 value pushed */\01216 \012SRP0[ ]	/* SetRefPoint0 */\012PUSHB[ ]	/* 1 value pushed */\01230 \012MDRP[10000]	/* MoveDirectRelPt */\012PUSHB[ ]	/* 1 value pushed */\0125 \012SRP0[ ]	/* SetRefPoint0 */\012PUSHB[ ]	/* 2 values pushed */\01241 11 \012MIRP[10100]	/* MoveIndirectRelPt */\012NPUSHB[ ]	/* 11 values pushed */\0126 41 22 41 38 41 54 41 70 41 5 \012DELTAP1[ ]	/* DeltaExceptionP1 */\012PUSHB[ ]	/* 1 value pushed */\01217 \012SRP0[ ]	/* SetRefPoint0 */\012PUSHB[ ]	/* 1 value pushed */\01247 \012MDRP[11100]	/* MoveDirectRelPt */\012SVTCA[0]	/* SetFreedomAndProjectionVectorToAxis */\012PUSHB[ ]	/* 1 value pushed */\0120 \012RCVT[ ]	/* ReadCVT */\012IF[ ]	/* If */\012PUSHB[ ]	/* 1 value pushed */\01210 \012MDAP[1]	/* MoveDirectAbsPt */\012ELSE[ ]	/* Else */\012PUSHB[ ]	/* 2 values pushed */\01210 21 \012MIAP[0]	/* MoveIndirectAbsPt */\012EIF[ ]	/* EndIf */\012PUSHB[ ]	/* 1 value pushed */\0120 \012RCVT[ ]	/* ReadCVT */\012IF[ ]	/* If */\012PUSHB[ ]	/* 1 value pushed */\01218 \012MDAP[1]	/* MoveDirectAbsPt */\012ELSE[ ]	/* Else */\012PUSHB[ ]	/* 2 values pushed */\01218 17 \012MIAP[0]	/* MoveIndirectAbsPt */\012EIF[ ]	/* EndIf */\012PUSHB[ ]	/* 1 value pushed */\0120 \012RCVT[ ]	/* ReadCVT */\012IF[ ]	/* If */\012PUSHB[ ]	/* 1 value pushed */\0120 \012MDAP[1]	/* MoveDirectAbsPt */\012ELSE[ ]	/* Else */\012PUSHB[ ]	/* 2 values pushed */\0120 17 \012MIAP[0]	/* MoveIndirectAbsPt */\012EIF[ ]	/* EndIf */\012PUSHB[ ]	/* 1 value pushed */\01210 \012SRP0[ ]	/* SetRefPoint0 */\012PUSHB[ ]	/* 2 values pushed */\01236 5 \012MIRP[10100]	/* MoveIndirectRelPt */\012NPUSHB[ ]	/* 11 values pushed */\0128 36 24 36 40 36 56 36 72 36 5 \012DELTAP1[ ]	/* DeltaExceptionP1 */\012PUSHB[ ]	/* 3 values pushed */\01215 10 36 \012SRP1[ ]	/* SetRefPoint1 */\012SRP2[ ]	/* SetRefPoint2 */\012IP[ ]	/* InterpolatePts */\012PUSHB[ ]	/* 1 value pushed */\0120 \012SRP0[ ]	/* SetRefPoint0 */\012PUSHB[ ]	/* 2 values pushed */\01225 3 \012MIRP[10100]	/* MoveIndirectRelPt */\012NPUSHB[ ]	/* 11 values pushed */\0127 25 23 25 39 25 55 25 71 25 5 \012DELTAP1[ ]	/* DeltaExceptionP1 */\012PUSHB[ ]	/* 3 values pushed */\01220 0 25 \012SRP1[ ]	/* SetRefPoint1 */\012SRP2[ ]	/* SetRefPoint2 */\012IP[ ]	/* InterpolatePts */\012IUP[0]	/* InterpolateUntPts */\012IUP[1]	/* InterpolateUntPts */";
};
width = 1218;
}
);
note = d;
unicode = 0064;
},
{
glyphname = eth;
layers = (
{
layerId = "410E5E1C-5FD0-457E-A79B-7BF13808BDAC";
paths = (
{
closed = 1;
nodes = (
"165 153 OFFCURVE",
"280 29 OFFCURVE",
"459 -31 OFFCURVE",
"584 -31 QCURVE SMOOTH",
"687 -31 OFFCURVE",
"855 17 OFFCURVE",
"974 124 OFFCURVE",
"1038 293 OFFCURVE",
"1038 414 QCURVE SMOOTH",
"1038 764 LINE SMOOTH",
"1038 844 OFFCURVE",
"1013 1002 OFFCURVE",
"960 1150 OFFCURVE",
"878 1286 OFFCURVE",
"821 1344 QCURVE",
"974 1479 LINE",
"877 1622 LINE",
"681 1451 LINE",
"600 1499 OFFCURVE",
"399 1557 OFFCURVE",
"274 1564 QCURVE",
"250 1391 LINE",
"316 1386 OFFCURVE",
"452 1344 OFFCURVE",
"516 1306 QCURVE",
"358 1168 LINE",
"457 1023 LINE",
"655 1197 LINE",
"721 1128 OFFCURVE",
"801 951 OFFCURVE",
"801 845 QCURVE",
"759 865 OFFCURVE",
"670 895 OFFCURVE",
"580 915 OFFCURVE",
"493 925 OFFCURVE",
"455 925 QCURVE SMOOTH",
"378 925 OFFCURVE",
"251 885 OFFCURVE",
"161 784 OFFCURVE",
"111 610 OFFCURVE",
"111 476 QCURVE SMOOTH",
"111 345 OFFCURVE"
);
},
{
closed = 1;
nodes = (
"382 652 OFFCURVE",
"436 698 OFFCURVE",
"522 710 OFFCURVE",
"584 710 QCURVE SMOOTH",
"626 710 OFFCURVE",
"705 698 OFFCURVE",
"766 683 OFFCURVE",
"802 671 OFFCURVE",
"801 671 QCURVE",
"801 453 LINE SMOOTH",
"801 385 OFFCURVE",
"784 288 OFFCURVE",
"737 225 OFFCURVE",
"652 195 OFFCURVE",
"584 195 QCURVE SMOOTH",
"517 195 OFFCURVE",
"430 232 OFFCURVE",
"379 305 OFFCURVE",
"358 413 OFFCURVE",
"358 485 QCURVE SMOOTH",
"358 563 OFFCURVE"
);
}
);
userData = {
assembly = "PUSHB[ ]	/* 4 values pushed */\01210 15 15 4 \012CALL[ ]	/* CallFunction */\012PUSHB[ ]	/* 1 value pushed */\01215 \012SRP0[ ]	/* SetRefPoint0 */\012PUSHB[ ]	/* 1 value pushed */\01242 \012MDRP[10000]	/* MoveDirectRelPt */\012PUSHB[ ]	/* 1 value pushed */\01210 \012SRP0[ ]	/* SetRefPoint0 */\012PUSHB[ ]	/* 1 value pushed */\01252 \012MDRP[10000]	/* MoveDirectRelPt */\012SVTCA[0]	/* SetFreedomAndProjectionVectorToAxis */\012PUSHB[ ]	/* 1 value pushed */\0120 \012RCVT[ ]	/* ReadCVT */\012IF[ ]	/* If */\012PUSHB[ ]	/* 1 value pushed */\01237 \012MDAP[1]	/* MoveDirectAbsPt */\012ELSE[ ]	/* Else */\012PUSHB[ ]	/* 2 values pushed */\01237 17 \012MIAP[0]	/* MoveIndirectAbsPt */\012EIF[ ]	/* EndIf */\012IUP[0]	/* InterpolateUntPts */\012IUP[1]	/* InterpolateUntPts */";
};
width = 1173;
}
);
note = eth;
unicode = 00F0;
},
{
glyphname = dcaron;
layers = (
{
layerId = "410E5E1C-5FD0-457E-A79B-7BF13808BDAC";
paths = (
{
closed = 1;
nodes = (
"1228 1036 LINE",
"1261 1103 OFFCURVE",
"1290 1163 QCURVE SMOOTH",
"1302 1188 OFFCURVE",
"1328 1242 OFFCURVE",
"1351 1291 OFFCURVE",
"1371 1333 OFFCURVE",
"1377 1348 QCURVE SMOOTH",
"1412 1421 OFFCURVE",
"1412 1460 QCURVE SMOOTH",
"1412 1490 OFFCURVE",
"1372 1522 OFFCURVE",
"1332 1536 QCURVE SMOOTH",
"1310 1543 OFFCURVE",
"1266 1551 OFFCURVE",
"1247 1554 QCURVE SMOOTH",
"1225 1557 OFFCURVE",
"1205 1559 QCURVE",
"1080 1085 LINE"
);
},
{
closed = 1;
nodes = (
"682 4 OFFCURVE",
"731 26 QCURVE SMOOTH",
"788 52 OFFCURVE",
"833 84 QCURVE",
"847 0 LINE",
"1052 0 LINE",
"1052 1554 LINE",
"814 1554 LINE",
"814 1010 LINE",
"772 1030 OFFCURVE",
"717 1047 QCURVE SMOOTH",
"670 1061 OFFCURVE",
"542 1085 OFFCURVE",
"464 1085 QCURVE SMOOTH",
"379 1085 OFFCURVE",
"244 1024 OFFCURVE",
"151 889 OFFCURVE",
"102 675 OFFCURVE",
"104 523 QCURVE SMOOTH",
"105 370 OFFCURVE",
"152 158 OFFCURVE",
"242 27 OFFCURVE",
"377 -31 OFFCURVE",
"466 -31 QCURVE SMOOTH",
"547 -31 OFFCURVE"
);
},
{
closed = 1;
nodes = (
"410 217 OFFCURVE",
"368 295 OFFCURVE",
"354 419 OFFCURVE",
"354 508 QCURVE SMOOTH",
"354 611 OFFCURVE",
"369 751 OFFCURVE",
"409 837 OFFCURVE",
"479 874 OFFCURVE",
"534 874 QCURVE SMOOTH",
"587 874 OFFCURVE",
"688 862 OFFCURVE",
"727 855 QCURVE SMOOTH",
"773 846 OFFCURVE",
"814 836 QCURVE",
"814 233 LINE",
"777 218 OFFCURVE",
"734 207 QCURVE SMOOTH",
"697 197 OFFCURVE",
"602 182 OFFCURVE",
"550 182 QCURVE SMOOTH",
"487 182 OFFCURVE"
);
}
);
userData = {
assembly = "PUSHB[ ]	/* 4 values pushed */\0128 15 18 4 \012CALL[ ]	/* CallFunction */\012PUSHB[ ]	/* 4 values pushed */\01260 11 24 4 \012CALL[ ]	/* CallFunction */\012PUSHB[ ]	/* 4 values pushed */\01236 13 35 4 \012CALL[ ]	/* CallFunction */\012PUSHB[ ]	/* 3 values pushed */\01239 35 36 \012SRP1[ ]	/* SetRefPoint1 */\012SRP2[ ]	/* SetRefPoint2 */\012IP[ ]	/* InterpolatePts */\012PUSHB[ ]	/* 1 value pushed */\01235 \012SRP0[ ]	/* SetRefPoint0 */\012PUSHB[ ]	/* 1 value pushed */\01249 \012MDRP[10000]	/* MoveDirectRelPt */\012NPUSHB[ ]	/* 11 values pushed */\0126 60 22 60 38 60 54 60 70 60 5 \012DELTAP1[ ]	/* DeltaExceptionP1 */\012PUSHB[ ]	/* 1 value pushed */\0128 \012SRP0[ ]	/* SetRefPoint0 */\012PUSHB[ ]	/* 1 value pushed */\01266 \012MDRP[11100]	/* MoveDirectRelPt */\012SVTCA[0]	/* SetFreedomAndProjectionVectorToAxis */\012PUSHB[ ]	/* 1 value pushed */\0120 \012RCVT[ ]	/* ReadCVT */\012IF[ ]	/* If */\012PUSHB[ ]	/* 1 value pushed */\01218 \012MDAP[1]	/* MoveDirectAbsPt */\012ELSE[ ]	/* Else */\012PUSHB[ ]	/* 2 values pushed */\01218 21 \012MIAP[0]	/* MoveIndirectAbsPt */\012EIF[ ]	/* EndIf */\012PUSHB[ ]	/* 1 value pushed */\0120 \012RCVT[ ]	/* ReadCVT */\012IF[ ]	/* If */\012PUSHB[ ]	/* 1 value pushed */\01229 \012MDAP[1]	/* MoveDirectAbsPt */\012ELSE[ ]	/* Else */\012PUSHB[ ]	/* 2 values pushed */\01229 21 \012MIAP[0]	/* MoveIndirectAbsPt */\012EIF[ ]	/* EndIf */\012PUSHB[ ]	/* 1 value pushed */\0120 \012RCVT[ ]	/* ReadCVT */\012IF[ ]	/* If */\012PUSHB[ ]	/* 1 value pushed */\01237 \012MDAP[1]	/* MoveDirectAbsPt */\012ELSE[ ]	/* Else */\012PUSHB[ ]	/* 2 values pushed */\01237 17 \012MIAP[0]	/* MoveIndirectAbsPt */\012EIF[ ]	/* EndIf */\012PUSHB[ ]	/* 1 value pushed */\0120 \012RCVT[ ]	/* ReadCVT */\012IF[ ]	/* If */\012PUSHB[ ]	/* 1 value pushed */\01219 \012MDAP[1]	/* MoveDirectAbsPt */\012ELSE[ ]	/* Else */\012PUSHB[ ]	/* 2 values pushed */\01219 17 \012MIAP[0]	/* MoveIndirectAbsPt */\012EIF[ ]	/* EndIf */\012PUSHB[ ]	/* 1 value pushed */\01229 \012SRP0[ ]	/* SetRefPoint0 */\012PUSHB[ ]	/* 2 values pushed */\01255 5 \012MIRP[10100]	/* MoveIndirectRelPt */\012NPUSHB[ ]	/* 11 values pushed */\0128 55 24 55 40 55 56 55 72 55 5 \012DELTAP1[ ]	/* DeltaExceptionP1 */\012PUSHB[ ]	/* 3 values pushed */\01234 29 55 \012SRP1[ ]	/* SetRefPoint1 */\012SRP2[ ]	/* SetRefPoint2 */\012IP[ ]	/* InterpolatePts */\012PUSHB[ ]	/* 1 value pushed */\01219 \012SRP0[ ]	/* SetRefPoint0 */\012PUSHB[ ]	/* 2 values pushed */\01244 3 \012MIRP[10100]	/* MoveIndirectRelPt */\012NPUSHB[ ]	/* 11 values pushed */\0127 44 23 44 39 44 55 44 71 44 5 \012DELTAP1[ ]	/* DeltaExceptionP1 */\012PUSHB[ ]	/* 3 values pushed */\01239 19 44 \012SRP1[ ]	/* SetRefPoint1 */\012SRP2[ ]	/* SetRefPoint2 */\012IP[ ]	/* InterpolatePts */\012IUP[0]	/* InterpolateUntPts */\012IUP[1]	/* InterpolateUntPts */";
};
width = 1333;
}
);
note = dcaron;
unicode = 010F;
},
{
glyphname = dcroat;
layers = (
{
layerId = "410E5E1C-5FD0-457E-A79B-7BF13808BDAC";
paths = (
{
closed = 1;
nodes = (
"682 4 OFFCURVE",
"731 26 QCURVE SMOOTH",
"788 52 OFFCURVE",
"833 84 QCURVE",
"847 0 LINE",
"1052 0 LINE",
"1052 1204 LINE",
"1197 1204 LINE",
"1197 1384 LINE",
"1052 1384 LINE",
"1052 1554 LINE",
"814 1554 LINE",
"814 1384 LINE",
"529 1384 LINE",
"529 1204 LINE",
"814 1204 LINE",
"814 1010 LINE",
"772 1030 OFFCURVE",
"717 1047 QCURVE SMOOTH",
"670 1061 OFFCURVE",
"542 1085 OFFCURVE",
"464 1085 QCURVE SMOOTH",
"379 1085 OFFCURVE",
"244 1024 OFFCURVE",
"151 889 OFFCURVE",
"102 675 OFFCURVE",
"104 523 QCURVE SMOOTH",
"105 370 OFFCURVE",
"152 158 OFFCURVE",
"242 27 OFFCURVE",
"377 -31 OFFCURVE",
"466 -31 QCURVE SMOOTH",
"547 -31 OFFCURVE"
);
},
{
closed = 1;
nodes = (
"410 217 OFFCURVE",
"368 295 OFFCURVE",
"354 419 OFFCURVE",
"354 508 QCURVE SMOOTH",
"354 611 OFFCURVE",
"369 751 OFFCURVE",
"409 837 OFFCURVE",
"479 874 OFFCURVE",
"534 874 QCURVE SMOOTH",
"587 874 OFFCURVE",
"688 862 OFFCURVE",
"727 855 QCURVE SMOOTH",
"773 846 OFFCURVE",
"814 836 QCURVE",
"814 233 LINE",
"777 218 OFFCURVE",
"734 207 QCURVE SMOOTH",
"697 197 OFFCURVE",
"602 182 OFFCURVE",
"550 182 QCURVE SMOOTH",
"487 182 OFFCURVE"
);
}
);
userData = {
assembly = "PUSHB[ ]	/* 4 values pushed */\01249 11 5 4 \012CALL[ ]	/* CallFunction */\012PUSHB[ ]	/* 3 values pushed */\01224 17 3 \012CALL[ ]	/* CallFunction */\012PUSHB[ ]	/* 3 values pushed */\01215 17 24 \012SRP1[ ]	/* SetRefPoint1 */\012SRP2[ ]	/* SetRefPoint2 */\012IP[ ]	/* InterpolatePts */\012PUSHB[ ]	/* 3 values pushed */\01216 17 24 \012SRP1[ ]	/* SetRefPoint1 */\012SRP2[ ]	/* SetRefPoint2 */\012IP[ ]	/* InterpolatePts */\012PUSHB[ ]	/* 1 value pushed */\01216 \012MDAP[1]	/* MoveDirectAbsPt */\012PUSHB[ ]	/* 1 value pushed */\01219 \012MDRP[10000]	/* MoveDirectRelPt */\012PUSHB[ ]	/* 1 value pushed */\01216 \012SRP0[ ]	/* SetRefPoint0 */\012PUSHB[ ]	/* 2 values pushed */\01225 13 \012MIRP[10100]	/* MoveIndirectRelPt */\012PUSHB[ ]	/* 1 value pushed */\01221 \012MDRP[10000]	/* MoveDirectRelPt */\012PUSHB[ ]	/* 3 values pushed */\01228 17 24 \012SRP1[ ]	/* SetRefPoint1 */\012SRP2[ ]	/* SetRefPoint2 */\012IP[ ]	/* InterpolatePts */\012PUSHB[ ]	/* 1 value pushed */\01216 \012SRP0[ ]	/* SetRefPoint0 */\012PUSHB[ ]	/* 1 value pushed */\01238 \012MDRP[10000]	/* MoveDirectRelPt */\012NPUSHB[ ]	/* 11 values pushed */\0126 49 22 49 38 49 54 49 70 49 5 \012DELTAP1[ ]	/* DeltaExceptionP1 */\012PUSHB[ ]	/* 1 value pushed */\01224 \012SRP0[ ]	/* SetRefPoint0 */\012PUSHB[ ]	/* 1 value pushed */\01255 \012MDRP[11100]	/* MoveDirectRelPt */\012SVTCA[0]	/* SetFreedomAndProjectionVectorToAxis */\012PUSHB[ ]	/* 1 value pushed */\0120 \012RCVT[ ]	/* ReadCVT */\012IF[ ]	/* If */\012PUSHB[ ]	/* 1 value pushed */\01210 \012MDAP[1]	/* MoveDirectAbsPt */\012ELSE[ ]	/* Else */\012PUSHB[ ]	/* 2 values pushed */\01210 21 \012MIAP[0]	/* MoveIndirectAbsPt */\012EIF[ ]	/* EndIf */\012PUSHB[ ]	/* 1 value pushed */\0120 \012RCVT[ ]	/* ReadCVT */\012IF[ ]	/* If */\012PUSHB[ ]	/* 1 value pushed */\01226 \012MDAP[1]	/* MoveDirectAbsPt */\012ELSE[ ]	/* Else */\012PUSHB[ ]	/* 2 values pushed */\01226 17 \012MIAP[0]	/* MoveIndirectAbsPt */\012EIF[ ]	/* EndIf */\012PUSHB[ ]	/* 1 value pushed */\0120 \012RCVT[ ]	/* ReadCVT */\012IF[ ]	/* If */\012PUSHB[ ]	/* 1 value pushed */\0120 \012MDAP[1]	/* MoveDirectAbsPt */\012ELSE[ ]	/* Else */\012PUSHB[ ]	/* 2 values pushed */\0120 17 \012MIAP[0]	/* MoveIndirectAbsPt */\012EIF[ ]	/* EndIf */\012PUSHB[ ]	/* 4 values pushed */\01219 4 16 4 \012CALL[ ]	/* CallFunction */\012PUSHB[ ]	/* 1 value pushed */\01210 \012SRP0[ ]	/* SetRefPoint0 */\012PUSHB[ ]	/* 2 values pushed */\01244 5 \012MIRP[10100]	/* MoveIndirectRelPt */\012NPUSHB[ ]	/* 11 values pushed */\0128 44 24 44 40 44 56 44 72 44 5 \012DELTAP1[ ]	/* DeltaExceptionP1 */\012PUSHB[ ]	/* 3 values pushed */\01215 10 44 \012SRP1[ ]	/* SetRefPoint1 */\012SRP2[ ]	/* SetRefPoint2 */\012IP[ ]	/* InterpolatePts */\012PUSHB[ ]	/* 1 value pushed */\01219 \012SRP0[ ]	/* SetRefPoint0 */\012PUSHB[ ]	/* 1 value pushed */\01222 \012MDRP[10000]	/* MoveDirectRelPt */\012PUSHB[ ]	/* 1 value pushed */\01216 \012SRP0[ ]	/* SetRefPoint0 */\012PUSHB[ ]	/* 1 value pushed */\01224 \012MDRP[10000]	/* MoveDirectRelPt */\012PUSHB[ ]	/* 1 value pushed */\0120 \012SRP0[ ]	/* SetRefPoint0 */\012PUSHB[ ]	/* 2 values pushed */\01233 3 \012MIRP[10100]	/* MoveIndirectRelPt */\012NPUSHB[ ]	/* 11 values pushed */\0127 33 23 33 39 33 55 33 71 33 5 \012DELTAP1[ ]	/* DeltaExceptionP1 */\012PUSHB[ ]	/* 3 values pushed */\01228 0 33 \012SRP1[ ]	/* SetRefPoint1 */\012SRP2[ ]	/* SetRefPoint2 */\012IP[ ]	/* InterpolatePts */\012IUP[0]	/* InterpolateUntPts */\012IUP[1]	/* InterpolateUntPts */";
};
width = 1197;
}
);
note = dcroat;
unicode = 0111;
},
{
glyphname = e;
layers = (
{
layerId = "410E5E1C-5FD0-457E-A79B-7BF13808BDAC";
paths = (
{
closed = 1;
nodes = (
"161 163 OFFCURVE",
"288 28 OFFCURVE",
"472 -31 OFFCURVE",
"590 -31 QCURVE SMOOTH",
"667 -31 OFFCURVE",
"803 -10 OFFCURVE",
"854 3 QCURVE SMOOTH",
"914 18 OFFCURVE",
"965 37 QCURVE",
"965 203 LINE",
"921 195 OFFCURVE",
"867 190 QCURVE SMOOTH",
"821 185 OFFCURVE",
"699 178 OFFCURVE",
"629 178 QCURVE SMOOTH",
"546 178 OFFCURVE",
"435 205 OFFCURVE",
"368 266 OFFCURVE",
"339 363 OFFCURVE",
"338 434 QCURVE",
"999 434 LINE",
"1005 487 OFFCURVE",
"1012 587 OFFCURVE",
"1012 634 QCURVE SMOOTH",
"1012 734 OFFCURVE",
"974 900 OFFCURVE",
"880 1019 OFFCURVE",
"721 1085 OFFCURVE",
"600 1085 QCURVE SMOOTH",
"504 1085 OFFCURVE",
"322 1038 OFFCURVE",
"180 916 OFFCURVE",
"94 704 OFFCURVE",
"94 539 QCURVE SMOOTH",
"94 381 OFFCURVE"
);
},
{
closed = 1;
nodes = (
"336 679 OFFCURVE",
"355 781 OFFCURVE",
"408 850 OFFCURVE",
"503 885 OFFCURVE",
"578 885 QCURVE SMOOTH",
"648 885 OFFCURVE",
"732 857 OFFCURVE",
"778 799 OFFCURVE",
"793 710 OFFCURVE",
"793 650 QCURVE SMOOTH",
"793 612 LINE",
"336 612 LINE"
);
}
);
userData = {
assembly = "PUSHB[ ]	/* 1 value pushed */\01247 \012MDAP[1]	/* MoveDirectAbsPt */\012PUSHB[ ]	/* 1 value pushed */\01236 \012MDAP[1]	/* MoveDirectAbsPt */\012PUSHB[ ]	/* 1 value pushed */\01247 \012SRP0[ ]	/* SetRefPoint0 */\012PUSHB[ ]	/* 1 value pushed */\0120 \012MDRP[10000]	/* MoveDirectRelPt */\012PUSHB[ ]	/* 1 value pushed */\0120 \012MDAP[1]	/* MoveDirectAbsPt */\012PUSHB[ ]	/* 1 value pushed */\01236 \012SRP0[ ]	/* SetRefPoint0 */\012PUSHB[ ]	/* 2 values pushed */\01210 10 \012MIRP[10100]	/* MoveIndirectRelPt */\012PUSHB[ ]	/* 1 value pushed */\01213 \012MDRP[10000]	/* MoveDirectRelPt */\012PUSHB[ ]	/* 1 value pushed */\01213 \012MDAP[1]	/* MoveDirectAbsPt */\012PUSHB[ ]	/* 1 value pushed */\0120 \012SRP0[ ]	/* SetRefPoint0 */\012PUSHB[ ]	/* 2 values pushed */\01246 12 \012MIRP[10100]	/* MoveIndirectRelPt */\012PUSHB[ ]	/* 1 value pushed */\01214 \012MDRP[10000]	/* MoveDirectRelPt */\012PUSHB[ ]	/* 1 value pushed */\01214 \012MDAP[1]	/* MoveDirectAbsPt */\012PUSHB[ ]	/* 1 value pushed */\01210 \012SRP0[ ]	/* SetRefPoint0 */\012PUSHB[ ]	/* 1 value pushed */\01248 \012MDRP[11100]	/* MoveDirectRelPt */\012SVTCA[0]	/* SetFreedomAndProjectionVectorToAxis */\012PUSHB[ ]	/* 1 value pushed */\0120 \012RCVT[ ]	/* ReadCVT */\012IF[ ]	/* If */\012PUSHB[ ]	/* 1 value pushed */\0125 \012MDAP[1]	/* MoveDirectAbsPt */\012ELSE[ ]	/* Else */\012PUSHB[ ]	/* 2 values pushed */\0125 21 \012MIAP[0]	/* MoveIndirectAbsPt */\012EIF[ ]	/* EndIf */\012PUSHB[ ]	/* 1 value pushed */\0120 \012RCVT[ ]	/* ReadCVT */\012IF[ ]	/* If */\012PUSHB[ ]	/* 1 value pushed */\01230 \012MDAP[1]	/* MoveDirectAbsPt */\012ELSE[ ]	/* Else */\012PUSHB[ ]	/* 2 values pushed */\01230 17 \012MIAP[0]	/* MoveIndirectAbsPt */\012EIF[ ]	/* EndIf */\012PUSHB[ ]	/* 4 values pushed */\01235 4 13 4 \012CALL[ ]	/* CallFunction */\012PUSHB[ ]	/* 1 value pushed */\01230 \012SRP0[ ]	/* SetRefPoint0 */\012PUSHB[ ]	/* 2 values pushed */\01219 5 \012MIRP[10100]	/* MoveIndirectRelPt */\012NPUSHB[ ]	/* 11 values pushed */\0127 19 23 19 39 19 55 19 71 19 5 \012DELTAP1[ ]	/* DeltaExceptionP1 */\012PUSHB[ ]	/* 1 value pushed */\01222 \012MDRP[10000]	/* MoveDirectRelPt */\012PUSHB[ ]	/* 1 value pushed */\01222 \012MDAP[1]	/* MoveDirectAbsPt */\012PUSHB[ ]	/* 1 value pushed */\0125 \012SRP0[ ]	/* SetRefPoint0 */\012PUSHB[ ]	/* 2 values pushed */\01241 1 \012MIRP[10100]	/* MoveIndirectRelPt */\012NPUSHB[ ]	/* 11 values pushed */\0128 41 24 41 40 41 56 41 72 41 5 \012DELTAP1[ ]	/* DeltaExceptionP1 */\012IUP[0]	/* InterpolateUntPts */\012IUP[1]	/* InterpolateUntPts */";
};
width = 1085;
}
);
note = e;
unicode = 0065;
},
{
glyphname = eogonek;
layers = (
{
layerId = "410E5E1C-5FD0-457E-A79B-7BF13808BDAC";
paths = (
{
closed = 1;
nodes = (
"161 163 OFFCURVE",
"288 28 OFFCURVE",
"472 -31 OFFCURVE",
"590 -31 QCURVE SMOOTH",
"594 -31 LINE",
"573 -53 OFFCURVE",
"532 -107 OFFCURVE",
"500 -169 OFFCURVE",
"481 -240 OFFCURVE",
"481 -279 QCURVE SMOOTH",
"481 -334 OFFCURVE",
"520 -417 OFFCURVE",
"588 -472 OFFCURVE",
"680 -500 OFFCURVE",
"733 -500 QCURVE SMOOTH",
"762 -500 OFFCURVE",
"812 -494 OFFCURVE",
"831 -490 QCURVE SMOOTH",
"853 -486 OFFCURVE",
"872 -479 QCURVE",
"872 -311 LINE",
"862 -313 OFFCURVE",
"851 -314 QCURVE SMOOTH",
"831 -317 OFFCURVE",
"803 -317 QCURVE SMOOTH",
"752 -317 OFFCURVE",
"702 -267 OFFCURVE",
"702 -225 QCURVE SMOOTH",
"702 -197 OFFCURVE",
"728 -133 OFFCURVE",
"790 -65 OFFCURVE",
"890 4 OFFCURVE",
"965 37 QCURVE",
"965 203 LINE",
"921 195 OFFCURVE",
"867 190 QCURVE SMOOTH",
"821 185 OFFCURVE",
"699 178 OFFCURVE",
"629 178 QCURVE SMOOTH",
"546 178 OFFCURVE",
"435 205 OFFCURVE",
"368 266 OFFCURVE",
"339 363 OFFCURVE",
"338 434 QCURVE",
"999 434 LINE",
"1005 487 OFFCURVE",
"1012 587 OFFCURVE",
"1012 634 QCURVE SMOOTH",
"1012 734 OFFCURVE",
"974 900 OFFCURVE",
"880 1019 OFFCURVE",
"721 1085 OFFCURVE",
"600 1085 QCURVE SMOOTH",
"504 1085 OFFCURVE",
"322 1038 OFFCURVE",
"180 916 OFFCURVE",
"94 704 OFFCURVE",
"94 539 QCURVE SMOOTH",
"94 381 OFFCURVE"
);
},
{
closed = 1;
nodes = (
"336 679 OFFCURVE",
"355 781 OFFCURVE",
"408 850 OFFCURVE",
"503 885 OFFCURVE",
"578 885 QCURVE SMOOTH",
"648 885 OFFCURVE",
"732 857 OFFCURVE",
"778 799 OFFCURVE",
"793 710 OFFCURVE",
"793 650 QCURVE SMOOTH",
"793 612 LINE",
"336 612 LINE"
);
}
);
userData = {
assembly = "PUSHB[ ]	/* 4 values pushed */\01230 10 48 4 \012CALL[ ]	/* CallFunction */\012PUSHB[ ]	/* 4 values pushed */\01270 12 0 4 \012CALL[ ]	/* CallFunction */\012PUSHB[ ]	/* 4 values pushed */\01210 10 60 4 \012CALL[ ]	/* CallFunction */\012PUSHB[ ]	/* 1 value pushed */\01210 \012SRP0[ ]	/* SetRefPoint0 */\012PUSHB[ ]	/* 1 value pushed */\01213 \012MDRP[10000]	/* MoveDirectRelPt */\012PUSHB[ ]	/* 1 value pushed */\01213 \012MDAP[1]	/* MoveDirectAbsPt */\012PUSHB[ ]	/* 1 value pushed */\01270 \012SRP0[ ]	/* SetRefPoint0 */\012PUSHB[ ]	/* 1 value pushed */\01214 \012MDRP[10000]	/* MoveDirectRelPt */\012PUSHB[ ]	/* 1 value pushed */\01214 \012MDAP[1]	/* MoveDirectAbsPt */\012NPUSHB[ ]	/* 11 values pushed */\0129 48 25 48 41 48 57 48 73 48 5 \012DELTAP1[ ]	/* DeltaExceptionP1 */\012PUSHB[ ]	/* 3 values pushed */\01254 48 30 \012SRP1[ ]	/* SetRefPoint1 */\012SRP2[ ]	/* SetRefPoint2 */\012IP[ ]	/* InterpolatePts */\012PUSHB[ ]	/* 1 value pushed */\01210 \012SRP0[ ]	/* SetRefPoint0 */\012PUSHB[ ]	/* 1 value pushed */\01272 \012MDRP[11100]	/* MoveDirectRelPt */\012SVTCA[0]	/* SetFreedomAndProjectionVectorToAxis */\012PUSHB[ ]	/* 1 value pushed */\0120 \012RCVT[ ]	/* ReadCVT */\012IF[ ]	/* If */\012PUSHB[ ]	/* 1 value pushed */\0125 \012MDAP[1]	/* MoveDirectAbsPt */\012ELSE[ ]	/* Else */\012PUSHB[ ]	/* 2 values pushed */\0125 21 \012MIAP[0]	/* MoveIndirectAbsPt */\012EIF[ ]	/* EndIf */\012PUSHB[ ]	/* 1 value pushed */\0120 \012RCVT[ ]	/* ReadCVT */\012IF[ ]	/* If */\012PUSHB[ ]	/* 1 value pushed */\01240 \012MDAP[1]	/* MoveDirectAbsPt */\012ELSE[ ]	/* Else */\012PUSHB[ ]	/* 2 values pushed */\01240 19 \012MIAP[0]	/* MoveIndirectAbsPt */\012EIF[ ]	/* EndIf */\012PUSHB[ ]	/* 1 value pushed */\0120 \012RCVT[ ]	/* ReadCVT */\012IF[ ]	/* If */\012PUSHB[ ]	/* 1 value pushed */\01243 \012MDAP[1]	/* MoveDirectAbsPt */\012ELSE[ ]	/* Else */\012PUSHB[ ]	/* 2 values pushed */\01243 19 \012MIAP[0]	/* MoveIndirectAbsPt */\012EIF[ ]	/* EndIf */\012PUSHB[ ]	/* 1 value pushed */\0120 \012RCVT[ ]	/* ReadCVT */\012IF[ ]	/* If */\012PUSHB[ ]	/* 1 value pushed */\01253 \012MDAP[1]	/* MoveDirectAbsPt */\012ELSE[ ]	/* Else */\012PUSHB[ ]	/* 2 values pushed */\01253 17 \012MIAP[0]	/* MoveIndirectAbsPt */\012EIF[ ]	/* EndIf */\012PUSHB[ ]	/* 4 values pushed */\01259 4 13 4 \012CALL[ ]	/* CallFunction */\012PUSHB[ ]	/* 1 value pushed */\01253 \012SRP0[ ]	/* SetRefPoint0 */\012PUSHB[ ]	/* 2 values pushed */\01219 5 \012MIRP[10100]	/* MoveIndirectRelPt */\012NPUSHB[ ]	/* 11 values pushed */\0127 19 23 19 39 19 55 19 71 19 5 \012DELTAP1[ ]	/* DeltaExceptionP1 */\012PUSHB[ ]	/* 1 value pushed */\01222 \012MDRP[10000]	/* MoveDirectRelPt */\012PUSHB[ ]	/* 1 value pushed */\01222 \012MDAP[1]	/* MoveDirectAbsPt */\012PUSHB[ ]	/* 1 value pushed */\01240 \012SRP0[ ]	/* SetRefPoint0 */\012PUSHB[ ]	/* 2 values pushed */\01233 4 \012MIRP[10100]	/* MoveIndirectRelPt */\012NPUSHB[ ]	/* 11 values pushed */\0127 33 23 33 39 33 55 33 71 33 5 \012DELTAP1[ ]	/* DeltaExceptionP1 */\012PUSHB[ ]	/* 1 value pushed */\0125 \012SRP0[ ]	/* SetRefPoint0 */\012PUSHB[ ]	/* 2 values pushed */\01265 1 \012MIRP[10100]	/* MoveIndirectRelPt */\012NPUSHB[ ]	/* 11 values pushed */\0128 65 24 65 40 65 56 65 72 65 5 \012DELTAP1[ ]	/* DeltaExceptionP1 */\012IUP[0]	/* InterpolateUntPts */\012IUP[1]	/* InterpolateUntPts */";
};
width = 1085;
}
);
note = eogonek;
unicode = 0119;
},
{
glyphname = f;
layers = (
{
layerId = "410E5E1C-5FD0-457E-A79B-7BF13808BDAC";
paths = (
{
closed = 1;
nodes = (
"475 0 LINE",
"475 858 LINE",
"745 858 LINE",
"745 1055 LINE",
"475 1055 LINE",
"475 1241 LINE SMOOTH",
"475 1274 OFFCURVE",
"488 1320 OFFCURVE",
"521 1349 OFFCURVE",
"577 1362 OFFCURVE",
"621 1362 QCURVE SMOOTH",
"657 1362 OFFCURVE",
"725 1360 OFFCURVE",
"751 1358 QCURVE SMOOTH",
"782 1356 OFFCURVE",
"809 1354 QCURVE",
"809 1530 LINE",
"776 1540 OFFCURVE",
"735 1549 QCURVE SMOOTH",
"700 1557 OFFCURVE",
"599 1569 OFFCURVE",
"537 1569 QCURVE SMOOTH",
"454 1569 OFFCURVE",
"339 1524 OFFCURVE",
"269 1438 OFFCURVE",
"238 1312 OFFCURVE",
"238 1231 QCURVE SMOOTH",
"238 1055 LINE",
"90 1055 LINE",
"90 858 LINE",
"238 858 LINE",
"238 0 LINE"
);
}
);
userData = {
assembly = "PUSHB[ ]	/* 4 values pushed */\01229 13 0 4 \012CALL[ ]	/* CallFunction */\012PUSHB[ ]	/* 1 value pushed */\0120 \012SRP0[ ]	/* SetRefPoint0 */\012PUSHB[ ]	/* 1 value pushed */\0123 \012MDRP[10000]	/* MoveDirectRelPt */\012PUSHB[ ]	/* 1 value pushed */\01229 \012SRP0[ ]	/* SetRefPoint0 */\012PUSHB[ ]	/* 1 value pushed */\01225 \012MDRP[10000]	/* MoveDirectRelPt */\012SVTCA[0]	/* SetFreedomAndProjectionVectorToAxis */\012PUSHB[ ]	/* 1 value pushed */\0120 \012RCVT[ ]	/* ReadCVT */\012IF[ ]	/* If */\012PUSHB[ ]	/* 1 value pushed */\0122 \012MDAP[1]	/* MoveDirectAbsPt */\012ELSE[ ]	/* Else */\012PUSHB[ ]	/* 2 values pushed */\0122 21 \012MIAP[0]	/* MoveIndirectAbsPt */\012EIF[ ]	/* EndIf */\012PUSHB[ ]	/* 1 value pushed */\0120 \012RCVT[ ]	/* ReadCVT */\012IF[ ]	/* If */\012PUSHB[ ]	/* 1 value pushed */\01226 \012MDAP[1]	/* MoveDirectAbsPt */\012ELSE[ ]	/* Else */\012PUSHB[ ]	/* 2 values pushed */\01226 21 \012MIAP[0]	/* MoveIndirectAbsPt */\012EIF[ ]	/* EndIf */\012PUSHB[ ]	/* 1 value pushed */\0120 \012RCVT[ ]	/* ReadCVT */\012IF[ ]	/* If */\012PUSHB[ ]	/* 1 value pushed */\01230 \012MDAP[1]	/* MoveDirectAbsPt */\012ELSE[ ]	/* Else */\012PUSHB[ ]	/* 2 values pushed */\01230 17 \012MIAP[0]	/* MoveIndirectAbsPt */\012EIF[ ]	/* EndIf */\012PUSHB[ ]	/* 4 values pushed */\0129 5 20 4 \012CALL[ ]	/* CallFunction */\012PUSHB[ ]	/* 1 value pushed */\0122 \012SRP0[ ]	/* SetRefPoint0 */\012PUSHB[ ]	/* 2 values pushed */\0120 8 \012MIRP[10100]	/* MoveIndirectRelPt */\012PUSHB[ ]	/* 1 value pushed */\01220 \012SRP0[ ]	/* SetRefPoint0 */\012PUSHB[ ]	/* 1 value pushed */\01215 \012MDRP[10000]	/* MoveDirectRelPt */\012PUSHB[ ]	/* 1 value pushed */\01215 \012MDAP[1]	/* MoveDirectAbsPt */\012PUSHB[ ]	/* 1 value pushed */\01220 \012SRP0[ ]	/* SetRefPoint0 */\012PUSHB[ ]	/* 1 value pushed */\01217 \012MDRP[10000]	/* MoveDirectRelPt */\012PUSHB[ ]	/* 1 value pushed */\01217 \012MDAP[1]	/* MoveDirectAbsPt */\012PUSHB[ ]	/* 1 value pushed */\0120 \012SRP0[ ]	/* SetRefPoint0 */\012PUSHB[ ]	/* 1 value pushed */\01228 \012MDRP[10000]	/* MoveDirectRelPt */\012PUSHB[ ]	/* 1 value pushed */\01229 \012MDRP[10000]	/* MoveDirectRelPt */\012IUP[0]	/* InterpolateUntPts */\012IUP[1]	/* InterpolateUntPts */";
};
width = 775;
}
);
note = f;
unicode = 0066;
},
{
glyphname = g;
layers = (
{
layerId = "410E5E1C-5FD0-457E-A79B-7BF13808BDAC";
paths = (
{
closed = 1;
nodes = (
"303 -456 OFFCURVE",
"365 -469 QCURVE SMOOTH",
"418 -481 OFFCURVE",
"550 -500 OFFCURVE",
"620 -500 QCURVE SMOOTH",
"730 -500 OFFCURVE",
"896 -465 OFFCURVE",
"1007 -384 OFFCURVE",
"1062 -253 OFFCURVE",
"1062 -158 QCURVE SMOOTH",
"1062 1055 LINE",
"882 1055 LINE",
"855 977 LINE",
"810 1005 OFFCURVE",
"755 1028 QCURVE SMOOTH",
"707 1047 OFFCURVE",
"576 1079 OFFCURVE",
"497 1079 QCURVE SMOOTH",
"404 1079 OFFCURVE",
"261 1004 OFFCURVE",
"164 863 OFFCURVE",
"114 660 OFFCURVE",
"114 532 QCURVE SMOOTH",
"114 376 OFFCURVE",
"160 162 OFFCURVE",
"257 30 OFFCURVE",
"408 -27 OFFCURVE",
"513 -27 QCURVE SMOOTH",
"574 -27 OFFCURVE",
"685 -6 OFFCURVE",
"729 7 QCURVE SMOOTH",
"779 22 OFFCURVE",
"824 41 QCURVE",
"824 -143 LINE SMOOTH",
"824 -186 OFFCURVE",
"802 -243 OFFCURVE",
"743 -276 OFFCURVE",
"638 -289 OFFCURVE",
"554 -289 QCURVE SMOOTH",
"485 -289 OFFCURVE",
"372 -282 OFFCURVE",
"332 -277 QCURVE SMOOTH",
"285 -272 OFFCURVE",
"249 -264 QCURVE",
"249 -438 LINE"
);
},
{
closed = 1;
nodes = (
"422 223 OFFCURVE",
"376 304 OFFCURVE",
"364 432 OFFCURVE",
"364 522 QCURVE SMOOTH",
"364 620 OFFCURVE",
"383 752 OFFCURVE",
"427 832 OFFCURVE",
"499 866 OFFCURVE",
"552 866 QCURVE SMOOTH",
"604 866 OFFCURVE",
"702 850 OFFCURVE",
"740 840 QCURVE SMOOTH",
"785 829 OFFCURVE",
"824 815 QCURVE",
"824 211 LINE",
"790 203 OFFCURVE",
"752 198 QCURVE SMOOTH",
"720 193 OFFCURVE",
"639 186 OFFCURVE",
"597 186 QCURVE SMOOTH",
"516 186 OFFCURVE"
);
}
);
userData = {
assembly = "PUSHB[ ]	/* 1 value pushed */\01266 \012MDAP[1]	/* MoveDirectAbsPt */\012PUSHB[ ]	/* 1 value pushed */\01210 \012MDAP[1]	/* MoveDirectAbsPt */\012PUSHB[ ]	/* 1 value pushed */\01266 \012SRP0[ ]	/* SetRefPoint0 */\012PUSHB[ ]	/* 1 value pushed */\01221 \012MDRP[10000]	/* MoveDirectRelPt */\012PUSHB[ ]	/* 1 value pushed */\01221 \012MDAP[1]	/* MoveDirectAbsPt */\012PUSHB[ ]	/* 1 value pushed */\01210 \012SRP0[ ]	/* SetRefPoint0 */\012PUSHB[ ]	/* 2 values pushed */\01234 13 \012MIRP[10100]	/* MoveIndirectRelPt */\012PUSHB[ ]	/* 1 value pushed */\01221 \012SRP0[ ]	/* SetRefPoint0 */\012PUSHB[ ]	/* 2 values pushed */\01261 11 \012MIRP[10100]	/* MoveIndirectRelPt */\012NPUSHB[ ]	/* 11 values pushed */\0126 61 22 61 38 61 54 61 70 61 5 \012DELTAP1[ ]	/* DeltaExceptionP1 */\012PUSHB[ ]	/* 1 value pushed */\01242 \012MDRP[10000]	/* MoveDirectRelPt */\012PUSHB[ ]	/* 1 value pushed */\01242 \012MDAP[1]	/* MoveDirectAbsPt */\012PUSHB[ ]	/* 1 value pushed */\01210 \012SRP0[ ]	/* SetRefPoint0 */\012PUSHB[ ]	/* 1 value pushed */\01250 \012MDRP[10000]	/* MoveDirectRelPt */\012PUSHB[ ]	/* 1 value pushed */\01234 \012SRP0[ ]	/* SetRefPoint0 */\012PUSHB[ ]	/* 1 value pushed */\01267 \012MDRP[11100]	/* MoveDirectRelPt */\012SVTCA[0]	/* SetFreedomAndProjectionVectorToAxis */\012PUSHB[ ]	/* 1 value pushed */\0120 \012RCVT[ ]	/* ReadCVT */\012IF[ ]	/* If */\012PUSHB[ ]	/* 1 value pushed */\01232 \012MDAP[1]	/* MoveDirectAbsPt */\012ELSE[ ]	/* Else */\012PUSHB[ ]	/* 2 values pushed */\01232 21 \012MIAP[0]	/* MoveIndirectAbsPt */\012EIF[ ]	/* EndIf */\012PUSHB[ ]	/* 1 value pushed */\0120 \012RCVT[ ]	/* ReadCVT */\012IF[ ]	/* If */\012PUSHB[ ]	/* 1 value pushed */\01226 \012MDAP[1]	/* MoveDirectAbsPt */\012ELSE[ ]	/* Else */\012PUSHB[ ]	/* 2 values pushed */\01226 21 \012MIAP[0]	/* MoveIndirectAbsPt */\012EIF[ ]	/* EndIf */\012PUSHB[ ]	/* 1 value pushed */\0120 \012RCVT[ ]	/* ReadCVT */\012IF[ ]	/* If */\012PUSHB[ ]	/* 1 value pushed */\01239 \012MDAP[1]	/* MoveDirectAbsPt */\012ELSE[ ]	/* Else */\012PUSHB[ ]	/* 2 values pushed */\01239 19 \012MIAP[0]	/* MoveIndirectAbsPt */\012EIF[ ]	/* EndIf */\012PUSHB[ ]	/* 1 value pushed */\0120 \012RCVT[ ]	/* ReadCVT */\012IF[ ]	/* If */\012PUSHB[ ]	/* 1 value pushed */\01216 \012MDAP[1]	/* MoveDirectAbsPt */\012ELSE[ ]	/* Else */\012PUSHB[ ]	/* 2 values pushed */\01216 17 \012MIAP[0]	/* MoveIndirectAbsPt */\012EIF[ ]	/* EndIf */\012PUSHB[ ]	/* 1 value pushed */\01239 \012SRP0[ ]	/* SetRefPoint0 */\012PUSHB[ ]	/* 2 values pushed */\0122 5 \012MIRP[10100]	/* MoveIndirectRelPt */\012NPUSHB[ ]	/* 11 values pushed */\0127 2 23 2 39 2 55 2 71 2 5 \012DELTAP1[ ]	/* DeltaExceptionP1 */\012PUSHB[ ]	/* 1 value pushed */\0125 \012MDRP[10000]	/* MoveDirectRelPt */\012PUSHB[ ]	/* 1 value pushed */\01216 \012SRP0[ ]	/* SetRefPoint0 */\012PUSHB[ ]	/* 2 values pushed */\01245 3 \012MIRP[10100]	/* MoveIndirectRelPt */\012NPUSHB[ ]	/* 11 values pushed */\0127 45 23 45 39 45 55 45 71 45 5 \012DELTAP1[ ]	/* DeltaExceptionP1 */\012PUSHB[ ]	/* 3 values pushed */\01211 16 45 \012SRP1[ ]	/* SetRefPoint1 */\012SRP2[ ]	/* SetRefPoint2 */\012IP[ ]	/* InterpolatePts */\012PUSHB[ ]	/* 1 value pushed */\01248 \012MDRP[10000]	/* MoveDirectRelPt */\012PUSHB[ ]	/* 1 value pushed */\01248 \012MDAP[1]	/* MoveDirectAbsPt */\012PUSHB[ ]	/* 1 value pushed */\01226 \012SRP0[ ]	/* SetRefPoint0 */\012PUSHB[ ]	/* 2 values pushed */\01256 3 \012MIRP[10100]	/* MoveIndirectRelPt */\012NPUSHB[ ]	/* 11 values pushed */\0128 56 24 56 40 56 56 56 72 56 5 \012DELTAP1[ ]	/* DeltaExceptionP1 */\012IUP[0]	/* InterpolateUntPts */\012IUP[1]	/* InterpolateUntPts */";
};
width = 1228;
}
);
note = g;
unicode = 0067;
},
{
glyphname = h;
layers = (
{
layerId = "410E5E1C-5FD0-457E-A79B-7BF13808BDAC";
paths = (
{
closed = 1;
nodes = (
"403 0 LINE",
"403 829 LINE",
"444 839 OFFCURVE",
"489 847 QCURVE SMOOTH",
"527 854 OFFCURVE",
"620 866 OFFCURVE",
"668 866 QCURVE SMOOTH",
"728 866 OFFCURVE",
"801 846 OFFCURVE",
"840 805 OFFCURVE",
"852 742 OFFCURVE",
"852 700 QCURVE SMOOTH",
"852 0 LINE",
"1090 0 LINE",
"1090 729 LINE SMOOTH",
"1090 834 OFFCURVE",
"1046 969 OFFCURVE",
"965 1048 OFFCURVE",
"848 1079 OFFCURVE",
"776 1079 QCURVE SMOOTH",
"704 1079 OFFCURVE",
"569 1055 OFFCURVE",
"517 1041 QCURVE SMOOTH",
"456 1024 OFFCURVE",
"403 1004 QCURVE",
"403 1554 LINE",
"166 1554 LINE",
"166 0 LINE"
);
}
);
userData = {
assembly = "PUSHB[ ]	/* 1 value pushed */\01228 \012MDAP[1]	/* MoveDirectAbsPt */\012PUSHB[ ]	/* 1 value pushed */\01214 \012MDAP[1]	/* MoveDirectAbsPt */\012PUSHB[ ]	/* 1 value pushed */\01228 \012SRP0[ ]	/* SetRefPoint0 */\012PUSHB[ ]	/* 1 value pushed */\0120 \012MDRP[10000]	/* MoveDirectRelPt */\012PUSHB[ ]	/* 1 value pushed */\0120 \012MDAP[1]	/* MoveDirectAbsPt */\012PUSHB[ ]	/* 2 values pushed */\0121 13 \012MIRP[10100]	/* MoveIndirectRelPt */\012PUSHB[ ]	/* 1 value pushed */\01214 \012SRP0[ ]	/* SetRefPoint0 */\012PUSHB[ ]	/* 2 values pushed */\01213 13 \012MIRP[10100]	/* MoveIndirectRelPt */\012PUSHB[ ]	/* 1 value pushed */\0121 \012SRP0[ ]	/* SetRefPoint0 */\012PUSHB[ ]	/* 1 value pushed */\01225 \012MDRP[10000]	/* MoveDirectRelPt */\012PUSHB[ ]	/* 1 value pushed */\01213 \012SRP0[ ]	/* SetRefPoint0 */\012PUSHB[ ]	/* 1 value pushed */\01229 \012MDRP[11100]	/* MoveDirectRelPt */\012SVTCA[0]	/* SetFreedomAndProjectionVectorToAxis */\012PUSHB[ ]	/* 1 value pushed */\0120 \012RCVT[ ]	/* ReadCVT */\012IF[ ]	/* If */\012PUSHB[ ]	/* 1 value pushed */\0127 \012MDAP[1]	/* MoveDirectAbsPt */\012ELSE[ ]	/* Else */\012PUSHB[ ]	/* 2 values pushed */\0127 21 \012MIAP[0]	/* MoveIndirectAbsPt */\012EIF[ ]	/* EndIf */\012PUSHB[ ]	/* 1 value pushed */\0120 \012RCVT[ ]	/* ReadCVT */\012IF[ ]	/* If */\012PUSHB[ ]	/* 1 value pushed */\01213 \012MDAP[1]	/* MoveDirectAbsPt */\012ELSE[ ]	/* Else */\012PUSHB[ ]	/* 2 values pushed */\01213 17 \012MIAP[0]	/* MoveIndirectAbsPt */\012EIF[ ]	/* EndIf */\012PUSHB[ ]	/* 1 value pushed */\0120 \012RCVT[ ]	/* ReadCVT */\012IF[ ]	/* If */\012PUSHB[ ]	/* 1 value pushed */\01226 \012MDAP[1]	/* MoveDirectAbsPt */\012ELSE[ ]	/* Else */\012PUSHB[ ]	/* 2 values pushed */\01226 17 \012MIAP[0]	/* MoveIndirectAbsPt */\012EIF[ ]	/* EndIf */\012PUSHB[ ]	/* 1 value pushed */\0127 \012SRP0[ ]	/* SetRefPoint0 */\012PUSHB[ ]	/* 2 values pushed */\01220 3 \012MIRP[10100]	/* MoveIndirectRelPt */\012NPUSHB[ ]	/* 11 values pushed */\0128 20 24 20 40 20 56 20 72 20 5 \012DELTAP1[ ]	/* DeltaExceptionP1 */\012PUSHB[ ]	/* 3 values pushed */\0122 7 20 \012SRP1[ ]	/* SetRefPoint1 */\012SRP2[ ]	/* SetRefPoint2 */\012IP[ ]	/* InterpolatePts */\012IUP[0]	/* InterpolateUntPts */\012IUP[1]	/* InterpolateUntPts */";
};
width = 1254;
}
);
note = h;
unicode = 0068;
},
{
glyphname = hbar;
layers = (
{
layerId = "410E5E1C-5FD0-457E-A79B-7BF13808BDAC";
paths = (
{
closed = 1;
nodes = (
"431 0 LINE",
"431 829 LINE",
"472 839 OFFCURVE",
"517 847 QCURVE SMOOTH",
"555 854 OFFCURVE",
"648 866 OFFCURVE",
"696 866 QCURVE SMOOTH",
"756 866 OFFCURVE",
"829 846 OFFCURVE",
"868 805 OFFCURVE",
"880 742 OFFCURVE",
"880 700 QCURVE SMOOTH",
"880 0 LINE",
"1118 0 LINE",
"1118 729 LINE SMOOTH",
"1118 834 OFFCURVE",
"1074 969 OFFCURVE",
"993 1048 OFFCURVE",
"876 1079 OFFCURVE",
"804 1079 QCURVE SMOOTH",
"732 1079 OFFCURVE",
"597 1055 OFFCURVE",
"545 1041 QCURVE SMOOTH",
"484 1024 OFFCURVE",
"431 1004 QCURVE",
"431 1219 LINE",
"712 1219 LINE",
"712 1376 LINE",
"431 1376 LINE",
"431 1554 LINE",
"194 1554 LINE",
"194 1376 LINE",
"60 1376 LINE",
"60 1219 LINE",
"194 1219 LINE",
"194 0 LINE"
);
}
);
userData = {
assembly = "PUSHB[ ]	/* 4 values pushed */\01221 13 22 4 \012CALL[ ]	/* CallFunction */\012PUSHB[ ]	/* 3 values pushed */\0128 1 3 \012CALL[ ]	/* CallFunction */\012PUSHB[ ]	/* 3 values pushed */\0120 1 8 \012SRP1[ ]	/* SetRefPoint1 */\012SRP2[ ]	/* SetRefPoint2 */\012IP[ ]	/* InterpolatePts */\012PUSHB[ ]	/* 1 value pushed */\0120 \012MDAP[1]	/* MoveDirectAbsPt */\012PUSHB[ ]	/* 1 value pushed */\0123 \012MDRP[10000]	/* MoveDirectRelPt */\012PUSHB[ ]	/* 1 value pushed */\0120 \012SRP0[ ]	/* SetRefPoint0 */\012PUSHB[ ]	/* 2 values pushed */\0129 13 \012MIRP[10100]	/* MoveIndirectRelPt */\012PUSHB[ ]	/* 1 value pushed */\0125 \012MDRP[10000]	/* MoveDirectRelPt */\012PUSHB[ ]	/* 3 values pushed */\01210 1 8 \012SRP1[ ]	/* SetRefPoint1 */\012SRP2[ ]	/* SetRefPoint2 */\012IP[ ]	/* InterpolatePts */\012PUSHB[ ]	/* 1 value pushed */\0129 \012SRP0[ ]	/* SetRefPoint0 */\012PUSHB[ ]	/* 1 value pushed */\01233 \012MDRP[10000]	/* MoveDirectRelPt */\012PUSHB[ ]	/* 1 value pushed */\01221 \012SRP0[ ]	/* SetRefPoint0 */\012PUSHB[ ]	/* 1 value pushed */\01237 \012MDRP[11100]	/* MoveDirectRelPt */\012SVTCA[0]	/* SetFreedomAndProjectionVectorToAxis */\012PUSHB[ ]	/* 1 value pushed */\0120 \012RCVT[ ]	/* ReadCVT */\012IF[ ]	/* If */\012PUSHB[ ]	/* 1 value pushed */\01215 \012MDAP[1]	/* MoveDirectAbsPt */\012ELSE[ ]	/* Else */\012PUSHB[ ]	/* 2 values pushed */\01215 21 \012MIAP[0]	/* MoveIndirectAbsPt */\012EIF[ ]	/* EndIf */\012PUSHB[ ]	/* 1 value pushed */\0120 \012RCVT[ ]	/* ReadCVT */\012IF[ ]	/* If */\012PUSHB[ ]	/* 1 value pushed */\01221 \012MDAP[1]	/* MoveDirectAbsPt */\012ELSE[ ]	/* Else */\012PUSHB[ ]	/* 2 values pushed */\01221 17 \012MIAP[0]	/* MoveIndirectAbsPt */\012EIF[ ]	/* EndIf */\012PUSHB[ ]	/* 1 value pushed */\0120 \012RCVT[ ]	/* ReadCVT */\012IF[ ]	/* If */\012PUSHB[ ]	/* 1 value pushed */\01234 \012MDAP[1]	/* MoveDirectAbsPt */\012ELSE[ ]	/* Else */\012PUSHB[ ]	/* 2 values pushed */\01234 17 \012MIAP[0]	/* MoveIndirectAbsPt */\012EIF[ ]	/* EndIf */\012PUSHB[ ]	/* 4 values pushed */\0123 7 0 4 \012CALL[ ]	/* CallFunction */\012PUSHB[ ]	/* 1 value pushed */\0123 \012SRP0[ ]	/* SetRefPoint0 */\012PUSHB[ ]	/* 1 value pushed */\0126 \012MDRP[10000]	/* MoveDirectRelPt */\012PUSHB[ ]	/* 1 value pushed */\0120 \012SRP0[ ]	/* SetRefPoint0 */\012PUSHB[ ]	/* 1 value pushed */\0128 \012MDRP[10000]	/* MoveDirectRelPt */\012PUSHB[ ]	/* 1 value pushed */\01215 \012SRP0[ ]	/* SetRefPoint0 */\012PUSHB[ ]	/* 2 values pushed */\01228 3 \012MIRP[10100]	/* MoveIndirectRelPt */\012NPUSHB[ ]	/* 11 values pushed */\0128 28 24 28 40 28 56 28 72 28 5 \012DELTAP1[ ]	/* DeltaExceptionP1 */\012PUSHB[ ]	/* 3 values pushed */\01210 15 28 \012SRP1[ ]	/* SetRefPoint1 */\012SRP2[ ]	/* SetRefPoint2 */\012IP[ ]	/* InterpolatePts */\012IUP[0]	/* InterpolateUntPts */\012IUP[1]	/* InterpolateUntPts */";
};
width = 1282;
}
);
note = hbar;
unicode = 0127;
},
{
glyphname = i;
layers = (
{
layerId = "410E5E1C-5FD0-457E-A79B-7BF13808BDAC";
paths = (
{
closed = 1;
nodes = (
"397 1246 OFFCURVE",
"429 1276 OFFCURVE",
"441 1328 OFFCURVE",
"441 1369 QCURVE SMOOTH",
"441 1410 OFFCURVE",
"429 1463 OFFCURVE",
"397 1495 OFFCURVE",
"344 1507 OFFCURVE",
"303 1507 QCURVE SMOOTH",
"262 1507 OFFCURVE",
"209 1495 OFFCURVE",
"176 1463 OFFCURVE",
"163 1410 OFFCURVE",
"163 1369 QCURVE SMOOTH",
"163 1328 OFFCURVE",
"176 1276 OFFCURVE",
"209 1246 OFFCURVE",
"262 1234 OFFCURVE",
"303 1234 QCURVE SMOOTH",
"344 1234 OFFCURVE"
);
},
{
closed = 1;
nodes = (
"422 0 LINE",
"422 1055 LINE",
"184 1055 LINE",
"184 0 LINE"
);
}
);
userData = {
assembly = "PUSHB[ ]	/* 4 values pushed */\01215 15 5 4 \012CALL[ ]	/* CallFunction */\012NPUSHB[ ]	/* 11 values pushed */\0126 15 22 15 38 15 54 15 70 15 5 \012DELTAP1[ ]	/* DeltaExceptionP1 */\012PUSHB[ ]	/* 3 values pushed */\01220 5 15 \012SRP1[ ]	/* SetRefPoint1 */\012SRP2[ ]	/* SetRefPoint2 */\012IP[ ]	/* InterpolatePts */\012PUSHB[ ]	/* 1 value pushed */\01220 \012MDAP[1]	/* MoveDirectAbsPt */\012PUSHB[ ]	/* 2 values pushed */\01221 13 \012MIRP[10100]	/* MoveIndirectRelPt */\012SVTCA[0]	/* SetFreedomAndProjectionVectorToAxis */\012PUSHB[ ]	/* 1 value pushed */\0120 \012RCVT[ ]	/* ReadCVT */\012IF[ ]	/* If */\012PUSHB[ ]	/* 1 value pushed */\01220 \012MDAP[1]	/* MoveDirectAbsPt */\012ELSE[ ]	/* Else */\012PUSHB[ ]	/* 2 values pushed */\01220 21 \012MIAP[0]	/* MoveIndirectAbsPt */\012EIF[ ]	/* EndIf */\012PUSHB[ ]	/* 1 value pushed */\0120 \012RCVT[ ]	/* ReadCVT */\012IF[ ]	/* If */\012PUSHB[ ]	/* 1 value pushed */\01222 \012MDAP[1]	/* MoveDirectAbsPt */\012ELSE[ ]	/* Else */\012PUSHB[ ]	/* 2 values pushed */\01222 17 \012MIAP[0]	/* MoveIndirectAbsPt */\012EIF[ ]	/* EndIf */\012PUSHB[ ]	/* 4 values pushed */\01210 9 0 4 \012CALL[ ]	/* CallFunction */\012IUP[0]	/* InterpolateUntPts */\012IUP[1]	/* InterpolateUntPts */";
};
width = 604;
}
);
note = i;
unicode = 0069;
},
{
glyphname = idotless;
lastChange = "2021-07-14 20:20:29 +0000";
layers = (
{
layerId = "410E5E1C-5FD0-457E-A79B-7BF13808BDAC";
paths = (
{
closed = 1;
nodes = (
"401 0 LINE",
"401 1055 LINE",
"163 1055 LINE",
"163 0 LINE"
);
}
);
userData = {
assembly = "PUSHB[ ]	/* 4 values pushed */\0121 13 0 4 \012CALL[ ]	/* CallFunction */\012SVTCA[0]	/* SetFreedomAndProjectionVectorToAxis */\012PUSHB[ ]	/* 1 value pushed */\0120 \012RCVT[ ]	/* ReadCVT */\012IF[ ]	/* If */\012PUSHB[ ]	/* 1 value pushed */\0120 \012MDAP[1]	/* MoveDirectAbsPt */\012ELSE[ ]	/* Else */\012PUSHB[ ]	/* 2 values pushed */\0120 21 \012MIAP[0]	/* MoveIndirectAbsPt */\012EIF[ ]	/* EndIf */\012PUSHB[ ]	/* 1 value pushed */\0120 \012RCVT[ ]	/* ReadCVT */\012IF[ ]	/* If */\012PUSHB[ ]	/* 1 value pushed */\0122 \012MDAP[1]	/* MoveDirectAbsPt */\012ELSE[ ]	/* Else */\012PUSHB[ ]	/* 2 values pushed */\0122 17 \012MIAP[0]	/* MoveIndirectAbsPt */\012EIF[ ]	/* EndIf */\012IUP[0]	/* InterpolateUntPts */\012IUP[1]	/* InterpolateUntPts */";
};
width = 564;
}
);
note = dotlessi;
unicode = 0131;
},
{
glyphname = iacute;
layers = (
{
layerId = "410E5E1C-5FD0-457E-A79B-7BF13808BDAC";
paths = (
{
closed = 1;
nodes = (
"432 0 LINE",
"432 1055 LINE",
"194 1055 LINE",
"194 0 LINE"
);
},
{
closed = 1;
nodes = (
"266 1187 OFFCURVE",
"335 1232 QCURVE SMOOTH",
"364 1251 OFFCURVE",
"424 1290 OFFCURVE",
"478 1326 OFFCURVE",
"522 1356 OFFCURVE",
"536 1366 QCURVE SMOOTH",
"587 1403 OFFCURVE",
"632 1454 OFFCURVE",
"632 1479 QCURVE SMOOTH",
"632 1496 OFFCURVE",
"612 1534 OFFCURVE",
"593 1557 QCURVE SMOOTH",
"571 1583 OFFCURVE",
"536 1617 OFFCURVE",
"522 1628 QCURVE SMOOTH",
"506 1640 OFFCURVE",
"493 1647 QCURVE",
"85 1264 LINE",
"188 1137 LINE"
);
}
);
userData = {
assembly = "PUSHB[ ]	/* 3 values pushed */\01213 4 3 \012CALL[ ]	/* CallFunction */\012PUSHB[ ]	/* 3 values pushed */\0120 4 13 \012SRP1[ ]	/* SetRefPoint1 */\012SRP2[ ]	/* SetRefPoint2 */\012IP[ ]	/* InterpolatePts */\012PUSHB[ ]	/* 1 value pushed */\0120 \012MDAP[1]	/* MoveDirectAbsPt */\012PUSHB[ ]	/* 2 values pushed */\0121 13 \012MIRP[10100]	/* MoveIndirectRelPt */\012PUSHB[ ]	/* 1 value pushed */\01213 \012SRP0[ ]	/* SetRefPoint0 */\012PUSHB[ ]	/* 1 value pushed */\01225 \012MDRP[11100]	/* MoveDirectRelPt */\012SVTCA[0]	/* SetFreedomAndProjectionVectorToAxis */\012PUSHB[ ]	/* 1 value pushed */\0120 \012RCVT[ ]	/* ReadCVT */\012IF[ ]	/* If */\012PUSHB[ ]	/* 1 value pushed */\0120 \012MDAP[1]	/* MoveDirectAbsPt */\012ELSE[ ]	/* Else */\012PUSHB[ ]	/* 2 values pushed */\0120 21 \012MIAP[0]	/* MoveIndirectAbsPt */\012EIF[ ]	/* EndIf */\012PUSHB[ ]	/* 1 value pushed */\0120 \012RCVT[ ]	/* ReadCVT */\012IF[ ]	/* If */\012PUSHB[ ]	/* 1 value pushed */\0122 \012MDAP[1]	/* MoveDirectAbsPt */\012ELSE[ ]	/* Else */\012PUSHB[ ]	/* 2 values pushed */\0122 17 \012MIAP[0]	/* MoveIndirectAbsPt */\012EIF[ ]	/* EndIf */\012PUSHB[ ]	/* 4 values pushed */\0125 9 23 4 \012CALL[ ]	/* CallFunction */\012IUP[0]	/* InterpolateUntPts */\012IUP[1]	/* InterpolateUntPts */";
};
width = 633;
}
);
note = iacute;
unicode = 00ED;
},
{
glyphname = ibreve;
layers = (
{
layerId = "410E5E1C-5FD0-457E-A79B-7BF13808BDAC";
paths = (
{
closed = 1;
nodes = (
"492 1197 OFFCURVE",
"572 1272 OFFCURVE",
"612 1377 OFFCURVE",
"612 1442 QCURVE SMOOTH",
"612 1459 OFFCURVE",
"609 1492 OFFCURVE",
"607 1510 QCURVE",
"489 1510 LINE",
"482 1455 OFFCURVE",
"449 1387 OFFCURVE",
"400 1349 OFFCURVE",
"336 1336 OFFCURVE",
"298 1336 QCURVE SMOOTH",
"259 1336 OFFCURVE",
"194 1350 OFFCURVE",
"145 1388 OFFCURVE",
"112 1456 OFFCURVE",
"106 1510 QCURVE",
"-15 1510 LINE",
"-17 1493 OFFCURVE",
"-19 1462 OFFCURVE",
"-19 1447 QCURVE SMOOTH",
"-19 1381 OFFCURVE",
"22 1274 OFFCURVE",
"101 1197 OFFCURVE",
"220 1156 OFFCURVE",
"298 1156 QCURVE SMOOTH",
"375 1156 OFFCURVE"
);
},
{
closed = 1;
nodes = (
"416 0 LINE",
"416 1055 LINE",
"178 1055 LINE",
"178 0 LINE"
);
}
);
userData = {
assembly = "PUSHB[ ]	/* 4 values pushed */\01229 13 28 4 \012CALL[ ]	/* CallFunction */\012SVTCA[0]	/* SetFreedomAndProjectionVectorToAxis */\012PUSHB[ ]	/* 1 value pushed */\0120 \012RCVT[ ]	/* ReadCVT */\012IF[ ]	/* If */\012PUSHB[ ]	/* 1 value pushed */\01228 \012MDAP[1]	/* MoveDirectAbsPt */\012ELSE[ ]	/* Else */\012PUSHB[ ]	/* 2 values pushed */\01228 21 \012MIAP[0]	/* MoveIndirectAbsPt */\012EIF[ ]	/* EndIf */\012PUSHB[ ]	/* 1 value pushed */\0120 \012RCVT[ ]	/* ReadCVT */\012IF[ ]	/* If */\012PUSHB[ ]	/* 1 value pushed */\01230 \012MDAP[1]	/* MoveDirectAbsPt */\012ELSE[ ]	/* Else */\012PUSHB[ ]	/* 2 values pushed */\01230 17 \012MIAP[0]	/* MoveIndirectAbsPt */\012EIF[ ]	/* EndIf */\012PUSHB[ ]	/* 4 values pushed */\01214 4 0 4 \012CALL[ ]	/* CallFunction */\012IUP[0]	/* InterpolateUntPts */\012IUP[1]	/* InterpolateUntPts */";
};
width = 593;
}
);
note = ibreve;
unicode = 012D;
},
{
glyphname = icircumflex;
layers = (
{
layerId = "410E5E1C-5FD0-457E-A79B-7BF13808BDAC";
paths = (
{
closed = 1;
nodes = (
"518 1107 LINE",
"635 1164 LINE",
"535 1416 LINE SMOOTH",
"518 1458 OFFCURVE",
"474 1511 OFFCURVE",
"419 1540 OFFCURVE",
"349 1551 OFFCURVE",
"305 1551 QCURVE SMOOTH",
"261 1551 OFFCURVE",
"191 1540 OFFCURVE",
"136 1511 OFFCURVE",
"93 1458 OFFCURVE",
"76 1416 QCURVE SMOOTH",
"-25 1164 LINE",
"92 1107 LINE",
"305 1416 LINE"
);
},
{
closed = 1;
nodes = (
"424 0 LINE",
"424 1055 LINE",
"186 1055 LINE",
"186 0 LINE"
);
}
);
userData = {
assembly = "PUSHB[ ]	/* 4 values pushed */\01217 13 16 4 \012CALL[ ]	/* CallFunction */\012PUSHB[ ]	/* 3 values pushed */\01215 16 17 \012SRP1[ ]	/* SetRefPoint1 */\012SRP2[ ]	/* SetRefPoint2 */\012IP[ ]	/* InterpolatePts */\012SVTCA[0]	/* SetFreedomAndProjectionVectorToAxis */\012PUSHB[ ]	/* 1 value pushed */\0120 \012RCVT[ ]	/* ReadCVT */\012IF[ ]	/* If */\012PUSHB[ ]	/* 1 value pushed */\01216 \012MDAP[1]	/* MoveDirectAbsPt */\012ELSE[ ]	/* Else */\012PUSHB[ ]	/* 2 values pushed */\01216 21 \012MIAP[0]	/* MoveIndirectAbsPt */\012EIF[ ]	/* EndIf */\012PUSHB[ ]	/* 1 value pushed */\0120 \012RCVT[ ]	/* ReadCVT */\012IF[ ]	/* If */\012PUSHB[ ]	/* 1 value pushed */\01218 \012MDAP[1]	/* MoveDirectAbsPt */\012ELSE[ ]	/* Else */\012PUSHB[ ]	/* 2 values pushed */\01218 17 \012MIAP[0]	/* MoveIndirectAbsPt */\012EIF[ ]	/* EndIf */\012IUP[0]	/* InterpolateUntPts */\012IUP[1]	/* InterpolateUntPts */";
};
width = 610;
}
);
note = icircumflex;
unicode = 00EE;
},
{
glyphname = idieresis;
layers = (
{
layerId = "410E5E1C-5FD0-457E-A79B-7BF13808BDAC";
paths = (
{
closed = 1;
nodes = (
"426 0 LINE",
"426 1055 LINE",
"188 1055 LINE",
"188 0 LINE"
);
},
{
closed = 1;
nodes = (
"-39 1209 OFFCURVE",
"-7 1177 OFFCURVE",
"46 1165 OFFCURVE",
"86 1165 QCURVE SMOOTH",
"128 1165 OFFCURVE",
"182 1177 OFFCURVE",
"212 1209 OFFCURVE",
"225 1262 OFFCURVE",
"225 1303 QCURVE SMOOTH",
"225 1345 OFFCURVE",
"212 1398 OFFCURVE",
"182 1429 OFFCURVE",
"128 1440 OFFCURVE",
"86 1440 QCURVE SMOOTH",
"46 1440 OFFCURVE",
"-7 1429 OFFCURVE",
"-39 1398 OFFCURVE",
"-50 1345 OFFCURVE",
"-50 1303 QCURVE SMOOTH",
"-50 1262 OFFCURVE"
);
},
{
closed = 1;
nodes = (
"392 1209 OFFCURVE",
"424 1177 OFFCURVE",
"477 1165 OFFCURVE",
"517 1165 QCURVE SMOOTH",
"559 1165 OFFCURVE",
"613 1177 OFFCURVE",
"643 1209 OFFCURVE",
"656 1262 OFFCURVE",
"656 1303 QCURVE SMOOTH",
"656 1345 OFFCURVE",
"643 1398 OFFCURVE",
"613 1429 OFFCURVE",
"559 1440 OFFCURVE",
"517 1440 QCURVE SMOOTH",
"477 1440 OFFCURVE",
"424 1429 OFFCURVE",
"392 1398 OFFCURVE",
"381 1345 OFFCURVE",
"381 1303 QCURVE SMOOTH",
"381 1262 OFFCURVE"
);
}
);
userData = {
assembly = "PUSHB[ ]	/* 4 values pushed */\0121 13 0 4 \012CALL[ ]	/* CallFunction */\012PUSHB[ ]	/* 3 values pushed */\01214 0 1 \012SRP1[ ]	/* SetRefPoint1 */\012SRP2[ ]	/* SetRefPoint2 */\012IP[ ]	/* InterpolatePts */\012PUSHB[ ]	/* 1 value pushed */\01214 \012MDAP[1]	/* MoveDirectAbsPt */\012PUSHB[ ]	/* 2 values pushed */\0124 15 \012MIRP[10100]	/* MoveIndirectRelPt */\012PUSHB[ ]	/* 3 values pushed */\01224 0 1 \012SRP1[ ]	/* SetRefPoint1 */\012SRP2[ ]	/* SetRefPoint2 */\012IP[ ]	/* InterpolatePts */\012PUSHB[ ]	/* 1 value pushed */\01224 \012MDAP[1]	/* MoveDirectAbsPt */\012NPUSHB[ ]	/* 11 values pushed */\0129 24 25 24 41 24 57 24 73 24 5 \012DELTAP1[ ]	/* DeltaExceptionP1 */\012PUSHB[ ]	/* 2 values pushed */\01234 15 \012MIRP[10100]	/* MoveIndirectRelPt */\012PUSHB[ ]	/* 1 value pushed */\01245 \012MDRP[11100]	/* MoveDirectRelPt */\012SVTCA[0]	/* SetFreedomAndProjectionVectorToAxis */\012PUSHB[ ]	/* 1 value pushed */\0120 \012RCVT[ ]	/* ReadCVT */\012IF[ ]	/* If */\012PUSHB[ ]	/* 1 value pushed */\0120 \012MDAP[1]	/* MoveDirectAbsPt */\012ELSE[ ]	/* Else */\012PUSHB[ ]	/* 2 values pushed */\0120 21 \012MIAP[0]	/* MoveIndirectAbsPt */\012EIF[ ]	/* EndIf */\012PUSHB[ ]	/* 1 value pushed */\0120 \012RCVT[ ]	/* ReadCVT */\012IF[ ]	/* If */\012PUSHB[ ]	/* 1 value pushed */\0129 \012MDAP[1]	/* MoveDirectAbsPt */\012ELSE[ ]	/* Else */\012PUSHB[ ]	/* 2 values pushed */\0129 23 \012MIAP[0]	/* MoveIndirectAbsPt */\012EIF[ ]	/* EndIf */\012PUSHB[ ]	/* 1 value pushed */\0120 \012RCVT[ ]	/* ReadCVT */\012IF[ ]	/* If */\012PUSHB[ ]	/* 1 value pushed */\01229 \012MDAP[1]	/* MoveDirectAbsPt */\012ELSE[ ]	/* Else */\012PUSHB[ ]	/* 2 values pushed */\01229 23 \012MIAP[0]	/* MoveIndirectAbsPt */\012EIF[ ]	/* EndIf */\012PUSHB[ ]	/* 1 value pushed */\0120 \012RCVT[ ]	/* ReadCVT */\012IF[ ]	/* If */\012PUSHB[ ]	/* 1 value pushed */\0122 \012MDAP[1]	/* MoveDirectAbsPt */\012ELSE[ ]	/* Else */\012PUSHB[ ]	/* 2 values pushed */\0122 17 \012MIAP[0]	/* MoveIndirectAbsPt */\012EIF[ ]	/* EndIf */\012PUSHB[ ]	/* 1 value pushed */\0129 \012SRP0[ ]	/* SetRefPoint0 */\012PUSHB[ ]	/* 2 values pushed */\01219 9 \012MIRP[10100]	/* MoveIndirectRelPt */\012NPUSHB[ ]	/* 11 values pushed */\0128 19 24 19 40 19 56 19 72 19 5 \012DELTAP1[ ]	/* DeltaExceptionP1 */\012PUSHB[ ]	/* 1 value pushed */\01239 \012MDRP[10000]	/* MoveDirectRelPt */\012IUP[0]	/* InterpolateUntPts */\012IUP[1]	/* InterpolateUntPts */";
};
width = 606;
}
);
note = idieresis;
unicode = 00EF;
},
{
glyphname = igrave;
layers = (
{
layerId = "410E5E1C-5FD0-457E-A79B-7BF13808BDAC";
paths = (
{
closed = 1;
nodes = (
"435 0 LINE",
"435 1055 LINE",
"197 1055 LINE",
"197 0 LINE"
);
},
{
closed = 1;
nodes = (
"531 1274 LINE",
"138 1642 LINE",
"123 1633 OFFCURVE",
"106 1620 QCURVE SMOOTH",
"92 1609 OFFCURVE",
"56 1576 OFFCURVE",
"39 1554 QCURVE SMOOTH",
"20 1531 OFFCURVE",
"1 1495 OFFCURVE",
"1 1478 QCURVE SMOOTH",
"1 1453 OFFCURVE",
"46 1401 OFFCURVE",
"95 1364 QCURVE SMOOTH",
"108 1354 OFFCURVE",
"150 1325 OFFCURVE",
"203 1292 OFFCURVE",
"261 1256 OFFCURVE",
"289 1238 QCURVE SMOOTH",
"355 1197 OFFCURVE",
"431 1151 QCURVE",
"431 1151 LINE"
);
}
);
userData = {
assembly = "PUSHB[ ]	/* 4 values pushed */\01223 15 14 4 \012CALL[ ]	/* CallFunction */\012PUSHB[ ]	/* 3 values pushed */\0120 14 23 \012SRP1[ ]	/* SetRefPoint1 */\012SRP2[ ]	/* SetRefPoint2 */\012IP[ ]	/* InterpolatePts */\012PUSHB[ ]	/* 1 value pushed */\0120 \012MDAP[1]	/* MoveDirectAbsPt */\012PUSHB[ ]	/* 2 values pushed */\0121 13 \012MIRP[10100]	/* MoveIndirectRelPt */\012PUSHB[ ]	/* 1 value pushed */\01223 \012SRP0[ ]	/* SetRefPoint0 */\012PUSHB[ ]	/* 1 value pushed */\01226 \012MDRP[11100]	/* MoveDirectRelPt */\012SVTCA[0]	/* SetFreedomAndProjectionVectorToAxis */\012PUSHB[ ]	/* 1 value pushed */\0120 \012RCVT[ ]	/* ReadCVT */\012IF[ ]	/* If */\012PUSHB[ ]	/* 1 value pushed */\0120 \012MDAP[1]	/* MoveDirectAbsPt */\012ELSE[ ]	/* Else */\012PUSHB[ ]	/* 2 values pushed */\0120 21 \012MIAP[0]	/* MoveIndirectAbsPt */\012EIF[ ]	/* EndIf */\012PUSHB[ ]	/* 1 value pushed */\0120 \012RCVT[ ]	/* ReadCVT */\012IF[ ]	/* If */\012PUSHB[ ]	/* 1 value pushed */\0122 \012MDAP[1]	/* MoveDirectAbsPt */\012ELSE[ ]	/* Else */\012PUSHB[ ]	/* 2 values pushed */\0122 17 \012MIAP[0]	/* MoveIndirectAbsPt */\012EIF[ ]	/* EndIf */\012PUSHB[ ]	/* 4 values pushed */\01222 9 4 4 \012CALL[ ]	/* CallFunction */\012IUP[0]	/* InterpolateUntPts */\012IUP[1]	/* InterpolateUntPts */";
};
width = 616;
}
);
note = igrave;
unicode = 00EC;
},
{
glyphname = imacron;
layers = (
{
layerId = "410E5E1C-5FD0-457E-A79B-7BF13808BDAC";
paths = (
{
closed = 1;
nodes = (
"620 1199 LINE",
"620 1395 LINE",
"-5 1395 LINE",
"-5 1199 LINE"
);
},
{
closed = 1;
nodes = (
"427 0 LINE",
"427 1055 LINE",
"189 1055 LINE",
"189 0 LINE"
);
}
);
userData = {
assembly = "PUSHB[ ]	/* 4 values pushed */\0125 13 4 4 \012CALL[ ]	/* CallFunction */\012SVTCA[0]	/* SetFreedomAndProjectionVectorToAxis */\012PUSHB[ ]	/* 1 value pushed */\0120 \012RCVT[ ]	/* ReadCVT */\012IF[ ]	/* If */\012PUSHB[ ]	/* 1 value pushed */\0124 \012MDAP[1]	/* MoveDirectAbsPt */\012ELSE[ ]	/* Else */\012PUSHB[ ]	/* 2 values pushed */\0124 21 \012MIAP[0]	/* MoveIndirectAbsPt */\012EIF[ ]	/* EndIf */\012PUSHB[ ]	/* 1 value pushed */\0120 \012RCVT[ ]	/* ReadCVT */\012IF[ ]	/* If */\012PUSHB[ ]	/* 1 value pushed */\0126 \012MDAP[1]	/* MoveDirectAbsPt */\012ELSE[ ]	/* Else */\012PUSHB[ ]	/* 2 values pushed */\0126 17 \012MIAP[0]	/* MoveIndirectAbsPt */\012EIF[ ]	/* EndIf */\012PUSHB[ ]	/* 4 values pushed */\0121 8 2 4 \012CALL[ ]	/* CallFunction */\012IUP[0]	/* InterpolateUntPts */\012IUP[1]	/* InterpolateUntPts */";
};
width = 615;
}
);
note = imacron;
unicode = 012B;
},
